<?xml version="1.0" standalone="no"?>
<!DOCTYPE svg PUBLIC "-//W3C//DTD SVG 20010904//EN"
 "http://www.w3.org/TR/2001/REC-SVG-20010904/DTD/svg10.dtd">
<svg version="1.0" xmlns="http://www.w3.org/2000/svg"
 width="1284.000000pt" height="1284.000000pt" viewBox="0 0 1284.000000 1284.000000"
 preserveAspectRatio="xMidYMid meet">
<metadata>
Created by potrace 1.11, written by Peter Selinger 2001-2013
</metadata>
<g transform="translate(0.000000,1284.000000) scale(0.100000,-0.100000)"
fill="#000000" stroke="none">
<path d="M8376 10500 c-43 -16 -81 -32 -85 -37 -3 -4 -17 -14 -31 -21 -25 -13
-108 -110 -102 -119 2 -2 -3 -14 -10 -26 -13 -20 -46 -110 -53 -147 -2 -8 -4
-17 -6 -20 -1 -3 -3 -9 -4 -15 -1 -5 -7 -30 -14 -54 -7 -25 -14 -54 -16 -65
-1 -12 -5 -28 -9 -37 -4 -9 -6 -20 -5 -25 1 -5 0 -12 -1 -16 -4 -14 -6 -22
-19 -98 -7 -41 -15 -84 -17 -95 -3 -11 -7 -36 -10 -55 -3 -19 -7 -42 -9 -50
-3 -8 -7 -33 -11 -55 -3 -22 -15 -87 -25 -145 -11 -58 -22 -121 -24 -140 -2
-19 -18 -111 -35 -203 -17 -93 -33 -185 -36 -205 -4 -20 -7 -41 -9 -47 -7 -33
-16 -85 -20 -115 -2 -19 -4 -35 -5 -35 -1 0 -3 -11 -6 -25 -8 -50 -13 -75 -18
-100 -4 -21 -21 -120 -41 -235 -5 -29 -16 -88 -21 -112 -1 -6 -5 -29 -8 -50
-3 -21 -8 -49 -11 -63 -3 -14 -8 -41 -11 -60 -2 -19 -7 -46 -10 -60 -12 -64
-14 -76 -19 -110 -3 -20 -8 -47 -10 -60 -3 -14 -8 -40 -11 -59 -3 -18 -7 -41
-9 -50 -1 -9 -6 -36 -10 -61 -4 -25 -9 -54 -11 -65 -11 -52 -16 -82 -19 -100
-11 -71 -20 -123 -28 -160 -3 -11 -8 -40 -11 -65 -3 -25 -8 -56 -11 -70 -6
-27 -12 -58 -21 -105 -3 -16 -7 -46 -9 -65 -2 -19 -4 -35 -5 -35 -2 0 -6 -19
-19 -90 -6 -33 -13 -76 -17 -95 -3 -19 -8 -46 -9 -60 -2 -14 -4 -26 -5 -27 -1
-2 -3 -11 -4 -20 -2 -17 -13 -83 -22 -128 -2 -11 -6 -31 -9 -45 -3 -14 -7 -34
-9 -45 -2 -11 -7 -40 -10 -65 -3 -25 -8 -54 -10 -65 -10 -50 -36 -193 -41
-225 -3 -19 -12 -73 -21 -120 -9 -47 -20 -110 -25 -140 -18 -105 -21 -125 -24
-140 -2 -8 -7 -36 -10 -61 -7 -43 -14 -52 -84 -110 -42 -35 -80 -69 -86 -75
-5 -6 -46 -42 -90 -80 -44 -37 -89 -77 -100 -87 -11 -10 -37 -33 -59 -50 -21
-18 -46 -39 -55 -48 -86 -83 -498 -399 -520 -399 -5 0 -11 -3 -13 -8 -2 -6
-169 -120 -234 -159 -10 -6 -55 -34 -99 -61 -186 -115 -455 -236 -550 -248
-11 -1 -20 -3 -20 -4 0 -14 -210 -19 -265 -7 -78 18 -173 98 -207 175 -27 63
-31 75 -44 131 -12 53 -14 190 -5 247 3 16 8 49 11 74 3 25 11 63 17 85 5 22
12 47 13 55 23 105 117 365 178 490 17 36 32 67 33 70 12 39 18 50 25 50 5 0
9 9 9 20 0 11 4 20 8 20 4 0 13 12 19 28 16 38 56 106 68 114 6 4 7 8 2 8 -8
0 64 113 76 118 4 2 7 8 7 13 0 15 92 149 102 149 5 0 7 4 4 9 -4 5 -3 11 2
13 4 1 34 38 66 81 32 42 61 77 65 77 4 0 14 12 24 28 9 15 57 70 107 122 l91
95 -6 -60 c-3 -33 -9 -71 -12 -85 -13 -60 -12 -326 1 -375 53 -199 221 -296
441 -255 36 7 65 16 65 21 0 5 8 9 19 9 44 0 178 162 196 238 3 9 12 42 20 72
9 30 18 69 20 85 2 17 4 30 5 30 1 0 4 14 6 30 3 17 9 55 15 85 15 83 16 87
34 200 16 100 19 120 29 173 12 57 19 104 20 130 0 15 3 27 6 27 3 0 5 10 6
23 1 28 14 152 20 197 6 41 5 233 -1 270 -28 169 -114 275 -260 323 -37 12
-76 15 -150 13 -85 -4 -140 -10 -140 -16 0 -1 -7 -3 -15 -5 -42 -9 -124 -41
-206 -80 -82 -40 -212 -112 -224 -125 -3 -3 -44 -31 -92 -63 -48 -32 -96 -66
-106 -75 -11 -10 -70 -60 -132 -112 -123 -103 -313 -289 -400 -390 -30 -34
-59 -68 -65 -74 -6 -6 -26 -31 -45 -56 -19 -25 -39 -50 -45 -57 -23 -28 -33
-41 -75 -98 -24 -33 -48 -64 -52 -70 -31 -38 -126 -180 -165 -247 -16 -27 -31
-48 -35 -48 -5 0 -8 -4 -8 -9 0 -5 -27 -56 -59 -114 -77 -135 -160 -308 -221
-462 -28 -69 -104 -285 -108 -307 -1 -5 -2 -9 -3 -10 0 -2 -2 -10 -4 -18 -1
-8 -11 -44 -20 -80 -9 -36 -19 -76 -21 -90 -4 -28 -16 -90 -20 -105 -3 -16
-14 -89 -20 -136 -3 -24 -6 -104 -8 -176 l-3 -133 -108 -142 c-60 -79 -120
-157 -134 -174 -14 -17 -39 -46 -54 -65 -107 -129 -259 -287 -327 -339 -25
-19 -47 -37 -50 -40 -19 -20 -104 -53 -147 -57 -51 -6 -113 10 -113 27 0 5 -7
15 -15 24 -35 35 -44 80 -40 197 4 113 6 134 26 237 6 30 12 68 14 85 2 18 6
46 9 62 14 71 20 100 21 105 1 3 5 30 9 60 8 54 11 67 21 112 3 13 7 42 9 65
3 23 7 46 10 51 2 4 7 28 10 53 3 24 8 55 11 69 10 47 16 85 20 115 3 25 14
91 40 233 22 123 32 178 40 237 4 22 8 47 10 55 2 8 7 31 10 50 9 53 24 142
30 170 3 14 7 39 9 55 5 33 15 95 22 129 2 11 7 37 10 56 2 19 9 58 14 85 5
28 12 68 15 89 3 21 7 48 10 60 20 97 27 265 13 326 -16 68 -63 155 -105 194
-33 31 -108 75 -138 82 -5 1 -28 6 -50 11 -37 9 -118 9 -155 0 -8 -2 -31 -7
-50 -11 -57 -14 -142 -65 -188 -113 -34 -36 -78 -108 -87 -143 -1 -3 -4 -12
-8 -20 -10 -25 -32 -94 -33 -105 -1 -5 -3 -12 -4 -15 -1 -3 -3 -12 -5 -20 -2
-8 -10 -44 -19 -80 -8 -36 -18 -83 -21 -105 -4 -22 -8 -48 -11 -57 -6 -21 -12
-52 -19 -98 -3 -20 -8 -47 -10 -60 -3 -14 -10 -52 -15 -85 -5 -33 -12 -71 -15
-85 -3 -14 -8 -40 -11 -59 -3 -18 -8 -43 -10 -55 -4 -22 -11 -62 -18 -106 -4
-28 -16 -94 -23 -125 -2 -11 -6 -33 -8 -50 -3 -16 -7 -41 -10 -55 -2 -13 -7
-42 -11 -64 -3 -22 -8 -44 -10 -47 -2 -4 -6 -27 -9 -50 -3 -24 -10 -66 -15
-94 -5 -27 -11 -61 -14 -75 -2 -14 -13 -77 -25 -140 -21 -119 -32 -181 -37
-215 -1 -11 -3 -20 -4 -20 -1 0 -3 -9 -4 -20 -2 -11 -8 -47 -14 -80 -6 -33
-14 -76 -17 -95 -8 -46 -14 -80 -20 -110 -10 -52 -16 -86 -20 -120 -11 -105
-25 -169 -41 -189 -7 -9 -49 -63 -94 -121 -44 -58 -91 -118 -104 -135 -14 -16
-44 -55 -68 -85 -23 -30 -46 -56 -50 -58 -5 -2 -8 -8 -8 -13 0 -6 -17 -28 -37
-50 -20 -22 -44 -49 -52 -61 -35 -46 -199 -206 -242 -236 -60 -40 -143 -73
-194 -76 -63 -4 -101 23 -133 94 -18 39 -20 60 -17 165 2 66 6 131 10 145 3
14 8 39 10 55 3 17 7 41 10 55 11 58 19 107 19 133 1 15 4 27 7 27 3 0 6 6 6
13 0 16 29 185 33 197 1 3 2 8 1 13 -1 4 3 27 9 52 6 25 13 62 16 83 3 20 7
48 10 62 2 14 7 40 10 59 6 38 11 64 19 101 3 14 7 41 9 60 3 19 7 44 9 55 3
11 8 40 13 65 4 25 8 47 9 50 1 3 5 30 9 60 5 30 10 63 12 73 12 54 20 99 30
162 3 22 9 58 14 79 5 22 7 44 4 48 -3 4 0 8 6 8 6 0 9 3 7 8 -4 6 7 77 48
307 9 50 18 102 20 117 4 25 20 115 29 164 2 12 7 37 10 55 3 19 8 45 10 59 3
14 7 42 10 62 3 21 10 58 16 83 6 25 10 48 9 52 -1 5 0 11 1 16 5 13 16 76 26
142 1 11 8 45 14 75 6 30 13 78 16 105 4 28 9 54 12 59 3 5 6 21 7 35 4 38 16
115 20 121 2 3 6 23 9 45 4 22 11 66 17 98 5 32 12 70 14 85 5 34 14 81 20
109 3 12 7 39 10 60 3 21 7 49 10 63 11 57 26 143 31 176 2 20 6 39 9 43 2 4
7 32 10 61 4 30 8 57 10 60 2 3 6 26 10 50 4 25 19 117 35 205 67 371 81 467
82 566 1 130 -28 210 -111 306 -24 28 -125 84 -165 92 -17 3 -67 5 -112 5 -64
0 -96 -6 -160 -29 -147 -55 -217 -153 -279 -387 -23 -88 -29 -113 -42 -183 -8
-46 -11 -60 -13 -60 -1 0 -3 -13 -5 -30 -2 -16 -7 -46 -11 -65 -4 -19 -8 -44
-10 -55 -1 -11 -5 -33 -8 -50 -3 -16 -13 -70 -21 -120 -16 -91 -20 -114 -28
-150 -3 -11 -8 -42 -11 -70 -4 -27 -12 -70 -17 -95 -6 -25 -12 -61 -15 -80 -2
-19 -6 -42 -9 -50 -5 -18 -15 -74 -20 -115 -2 -16 -6 -40 -9 -51 -2 -12 -7
-37 -10 -55 -3 -19 -8 -45 -11 -59 -2 -14 -7 -41 -10 -60 -2 -19 -9 -55 -14
-80 -5 -25 -12 -63 -15 -85 -4 -22 -11 -66 -17 -97 -5 -32 -12 -69 -14 -83 -3
-14 -10 -52 -15 -85 -6 -33 -13 -72 -16 -87 -2 -16 -7 -39 -10 -53 -3 -13 -7
-40 -10 -60 -2 -19 -6 -42 -9 -50 -2 -8 -7 -31 -10 -50 -8 -49 -49 -285 -59
-335 -14 -77 -19 -104 -22 -130 -2 -16 -6 -41 -9 -55 -14 -70 -58 -320 -58
-337 0 -7 -3 -13 -6 -13 -3 0 -6 -12 -7 -27 0 -26 -5 -59 -19 -123 -11 -54
-17 -86 -20 -115 -4 -30 -10 -69 -20 -115 -3 -14 -8 -38 -10 -55 -3 -16 -10
-55 -15 -85 -6 -30 -12 -68 -15 -85 -2 -16 -11 -65 -19 -109 -9 -43 -13 -83
-10 -87 3 -5 1 -9 -3 -9 -5 0 -9 -8 -10 -17 -1 -10 -4 -36 -8 -58 -3 -22 -7
-51 -9 -65 -2 -14 -6 -34 -9 -45 -3 -11 -9 -38 -12 -60 -9 -57 -13 -77 -18
-100 -2 -11 -8 -42 -11 -68 -4 -27 -9 -59 -12 -70 -2 -12 -7 -35 -10 -52 -2
-16 -7 -43 -10 -60 -4 -16 -7 -39 -9 -50 -1 -11 -3 -20 -4 -20 -2 0 -4 -20 -6
-45 -2 -25 -7 -56 -10 -70 -6 -28 -12 -64 -20 -136 -3 -27 -8 -65 -11 -84 -14
-107 -18 -302 -8 -410 5 -60 7 -68 18 -120 4 -19 8 -42 10 -50 2 -8 5 -22 8
-30 3 -8 11 -33 18 -55 35 -111 108 -226 194 -308 71 -66 101 -88 143 -107 13
-5 35 -17 49 -27 15 -9 36 -19 47 -20 11 -2 34 -10 51 -18 46 -22 107 -29 236
-29 129 0 185 7 280 36 36 11 70 21 75 22 6 1 20 7 32 14 12 7 29 12 37 12 9
0 16 5 16 10 0 6 7 10 16 10 29 0 338 177 364 209 3 3 25 22 50 41 25 19 46
38 48 42 2 4 7 8 12 8 12 0 92 74 235 218 73 72 135 132 138 132 4 0 7 -4 7
-10 0 -26 123 -123 218 -170 115 -58 212 -78 352 -75 63 1 129 6 145 9 17 4
41 9 55 12 42 8 45 9 58 17 6 5 12 6 12 3 0 -6 134 41 165 57 11 6 22 12 25
12 10 1 125 59 130 65 3 4 19 13 35 21 17 9 41 22 55 30 23 13 33 20 63 45 7
6 23 16 34 22 11 6 52 37 89 67 38 31 85 69 106 86 69 56 323 316 378 387 8
10 28 34 44 53 l28 33 29 -32 c16 -18 33 -32 39 -32 5 0 10 -4 10 -9 0 -10
154 -111 169 -111 6 0 11 -5 11 -11 0 -5 4 -8 8 -5 5 3 20 -1 34 -8 31 -16
141 -53 183 -61 142 -28 348 -38 465 -21 25 3 64 8 87 11 24 3 75 12 115 21
40 8 82 17 94 20 95 19 485 158 492 176 2 4 10 8 18 8 7 0 29 9 49 20 19 11
37 20 40 20 14 0 217 108 293 157 29 18 55 33 57 33 9 0 150 95 153 103 2 4 8
7 14 7 17 0 243 161 375 268 29 23 54 40 54 37 1 -3 2 -8 3 -12 1 -5 10 -25
19 -47 9 -21 17 -42 17 -46 0 -3 25 -34 55 -67 111 -123 277 -158 445 -94 53
20 140 77 140 91 0 6 7 10 15 10 8 0 15 7 15 15 0 8 5 15 10 15 6 0 10 7 10
15 0 8 5 15 10 15 6 0 10 9 10 19 0 11 4 22 9 26 8 4 51 118 57 150 1 6 10 39
19 75 9 36 19 76 21 90 2 14 9 45 14 70 9 44 14 68 26 139 3 18 7 41 9 50 9
49 35 190 39 216 14 85 17 101 21 115 2 8 6 31 9 50 3 19 8 46 11 60 3 14 8
43 10 64 3 21 8 43 11 47 2 5 7 25 9 46 3 34 13 92 19 118 2 6 6 33 11 60 6
37 20 65 55 110 25 33 63 83 84 110 37 49 115 140 187 218 l36 40 13 -34 c7
-19 14 -36 15 -39 28 -77 186 -405 248 -515 67 -120 80 -140 98 -167 11 -14
19 -31 19 -37 0 -6 5 -11 10 -11 6 0 10 -7 10 -15 0 -8 5 -15 10 -15 6 0 10
-5 10 -11 0 -12 80 -133 92 -137 4 -2 8 -9 8 -14 0 -6 7 -18 15 -27 9 -9 35
-41 58 -71 59 -78 76 -97 126 -144 24 -22 49 -46 55 -52 33 -31 164 -110 201
-120 114 -33 140 -37 230 -36 180 2 379 62 580 177 50 28 195 124 205 134 3 4
23 19 45 36 22 16 42 31 45 34 3 4 36 33 75 66 181 155 546 527 682 694 15 19
37 44 48 55 16 17 91 111 167 211 32 41 82 123 111 181 105 209 89 372 -49
493 -26 23 -51 41 -57 41 -6 0 -18 6 -26 13 -40 34 -157 52 -231 36 -101 -23
-128 -43 -280 -209 -47 -51 -101 -110 -120 -131 -19 -21 -42 -47 -50 -57 -19
-25 -128 -147 -205 -231 -71 -78 -334 -341 -391 -391 -71 -63 -132 -110 -142
-110 -6 0 -12 -3 -14 -7 -7 -17 -88 -62 -134 -76 -95 -28 -156 -5 -253 93 -36
37 -71 73 -76 81 -6 8 -24 32 -41 54 -62 81 -89 120 -86 124 2 2 0 7 -5 10
-19 14 -151 231 -188 308 -11 24 -23 43 -27 43 -5 0 -8 6 -8 13 0 6 -15 44
-34 82 -52 108 -71 152 -111 255 -20 52 -41 106 -46 119 -9 23 -2 37 41 81 3
3 23 28 45 55 22 28 44 55 50 61 5 6 19 23 30 38 11 15 29 38 40 50 11 12 36
43 57 67 20 24 46 55 58 69 26 30 271 289 388 409 46 47 130 135 185 195 56
60 144 153 196 205 77 79 142 152 200 226 19 25 38 104 35 152 -2 57 -32 163
-45 163 -5 0 -9 6 -9 14 0 21 -75 101 -127 134 -62 39 -150 64 -216 61 -52 -2
-139 -27 -145 -41 -2 -5 -9 -8 -15 -8 -9 0 -111 -64 -127 -80 -3 -3 -27 -23
-55 -45 -61 -49 -87 -71 -128 -109 -228 -209 -673 -680 -857 -905 -19 -24 -43
-53 -54 -65 -10 -11 -30 -37 -45 -56 -14 -19 -33 -42 -41 -50 -8 -8 -31 -37
-50 -65 -19 -27 -38 -51 -42 -53 -4 -2 -8 -9 -8 -16 0 -7 -11 -23 -26 -37 -14
-13 -23 -17 -20 -9 3 8 7 26 10 40 2 14 9 52 15 85 6 33 13 74 15 90 3 17 7
44 10 60 12 64 19 101 21 115 3 21 34 200 40 230 3 14 8 41 11 60 2 19 8 49
11 65 4 17 7 37 8 45 2 8 5 29 8 45 3 17 13 71 21 120 9 50 18 101 21 115 2
13 7 42 10 65 3 22 8 47 10 55 3 8 7 31 9 50 3 19 8 46 10 60 3 13 8 42 11 65
3 22 8 47 10 55 2 8 7 35 10 60 4 24 8 47 10 50 2 4 7 29 10 56 4 27 10 67 15
89 10 46 22 124 23 143 0 6 3 12 6 12 3 0 6 12 7 28 0 25 6 63 19 122 3 14 6
38 7 53 1 15 5 30 9 33 5 2 6 11 3 18 -3 8 0 17 5 21 6 3 9 10 6 16 -3 5 -1
36 5 69 6 33 13 72 16 87 2 16 7 39 9 53 12 60 15 78 21 120 3 25 8 48 10 51
1 3 6 28 10 55 3 27 8 58 10 69 3 11 7 38 10 60 3 22 8 51 11 65 3 14 6 83 8
154 2 103 0 134 -12 153 -8 13 -12 23 -9 23 9 0 -36 84 -46 88 -5 2 -8 9 -8
15 -1 7 -25 32 -55 56 -107 85 -250 103 -399 51z"/>
<path d="M3117 8144 c-2 -3 -21 -7 -42 -9 -49 -7 -158 -59 -215 -104 -89 -69
-159 -184 -184 -301 -16 -75 -13 -239 5 -273 7 -12 11 -23 10 -25 -7 -7 15
-71 40 -121 49 -94 125 -169 214 -210 62 -29 134 -41 208 -36 56 5 102 11 102
15 0 1 10 3 23 6 13 2 53 19 90 36 122 59 215 174 267 333 39 119 13 369 -47
458 -11 15 -16 27 -13 27 15 0 -82 104 -119 128 -23 15 -43 30 -46 33 -17 20
-135 47 -208 47 -44 0 -82 -2 -85 -4z"/>
<path d="M12248 7645 c-2 -2 -23 -6 -48 -10 -61 -9 -76 -20 -204 -150 -168
-169 -426 -453 -426 -468 0 -3 12 -2 28 1 15 4 43 7 62 6 61 -2 194 -14 220
-20 14 -3 32 -6 40 -6 8 0 36 -4 61 -9 25 -4 66 -10 90 -13 24 -3 68 -10 98
-16 30 -5 88 -13 130 -16 71 -6 80 -4 133 24 67 36 129 98 160 162 12 25 23
48 24 53 1 4 2 8 4 10 8 10 13 53 13 117 0 76 -22 149 -58 188 -46 50 -82 83
-100 88 -11 4 -23 11 -26 16 -11 17 -189 55 -201 43z"/>
</g>
</svg>
