<?xml version="1.0" encoding="utf-8"?>
<svg viewBox="0 0 504.9 285.81" xmlns="http://www.w3.org/2000/svg">
  <path fill="none" stroke="#FFF" stroke-width="1.35" d="M.68 160.13h71.56v34.9H.68z"/>
  <circle cx="342.41" cy="187.66" r="97.4" fill="none" stroke="#FFF" stroke-width="1.5"/>
  <path fill="#EB008B" d="M496.72 46.38c-.2.06-1.47 1.53-1.47 1.53.2-.1 1.78.2 1.98.2.44-.1.8-.6.66-1.1-.2-.4-.7-.7-1.2-.5m-2.1 2.1c-.2.1-.3.1-.4.2l-.7.7c-1.1 1.3-1.9 2-2.3 2.1-.2.1-.4 0-.5-.1-.2-.1-.4-.3-.6-.7-.5-.6-.8-1.4-1.1-2.2l.1-.1c.4-.5.7-.9 1-1.1l.9-.9.6-.7c.3-.3.5-.5.6-.7 0-.1.1-.3 0-.5-.1-.1-.2-.3-.3-.4-.1-.1-.3-.2-.5-.2h-.5c-.4.1-.9.6-1.8 1.5-1 1-1.7 1.8-2.1 2.4l1.1-6.5c.1-.5.1-.9.03-1.1-.07-.2-.2-.4-.44-.6-.2-.1-.44-.1-.7 0-.3.07-.5.2-.6.4-.15.2-.27.6-.37 1.2l-1.85 10.5-.2.2-1.1.9c-.54.5-1.12.9-1.74 1.3-.63.4-1.15.7-1.6.8-.74.2-1.2 0-1.4-.63-.1-.33-.02-.82.16-1.43.2-.6.5-1.2.85-1.9.4-.6.8-1.1 1.3-1.6-.1.6-.1 1.1-.05 1.3.04.3.2.4.4.5.2.1.44.2.7.1.4-.1.64-.4.74-1l.1-.62.2-1 .1-.7c0-.34 0-.6-.03-.76-.05-.3-.2-.5-.45-.6-.23-.1-.5-.1-.84-.04-.5.15-1.1.5-1.77 1s-1.2 1.13-1.7 1.83c-.5.6-.9 1.3-1.2 2-.3.7-.5 1.35-.6 2-.07.3-.08.6-.07.9l-.24.33c-.75 1.03-1.3 1.6-1.7 1.7-.2.07-.4-.03-.5-.3 0-.15 0-.44.1-.84l.8-4.7c.1-.6.13-.9.1-1.1-.1-.3-.2-.5-.47-.6-.28-.1-.5-.2-.8-.1-.3.1-.5.2-.6.4-.2.2-.3.6-.4 1.2l-.8 4.6-.1.44-.3.4c-.42.6-.8 1-1 1.25-.2.2-.44.4-.65.4-.24.1-.4 0-.5-.3 0-.1 0-.4.1-.8l1.8-10.4c.1-.5.1-.9.06-1.1-.04-.3-.2-.5-.4-.6-.26-.1-.5-.1-.8-.06-.3.1-.5.2-.6.4-.13.2-.3.6-.4 1.2L467.1 56c-.1.6-.12 1.04-.13 1.4 0 .32.02.64.1.9.15.54.45.95.9 1.2s.95.3 1.53.14c.9-.2 1.7-.8 2.6-1.8.1.2.3.3.5.46.4.26.95.3 1.54.15 1-.24 1.9-1 2.9-2.2 0 .05 0 .08.03.1.36.36.8.57 1.34.65.6.1 1.2.08 1.8-.1.6-.15 1.3-.43 2-.8.6-.3 1.2-.73 1.8-1.2v.05c.1.25.2.44.5.6.24.1.5.13.76.1.3-.1.5-.27.6-.48.13-.2.25-.6.36-1.2l.4-2.34v-.06c.3-.4.57-.7.85-1 .4 1 .9 1.9 1.4 2.65.3.46.66.7 1 .9.3.12.7.12 1.18 0 .46-.1.9-.3 1.3-.67.48-.36 1-.85 1.6-1.5.6-.68 1.07-1.2 1.28-1.57.2-.3.3-.63.2-.9-.04-.2-.2-.4-.4-.52-.23-.1-.44-.12-.66-.1m-19.8-.7c.4-.1.7-.3.88-.64.1-.38.2-.7.06-1.1-.1-.4-.24-.6-.5-.7-.25-.2-.54-.2-.9-.1-.33.1-.6.3-.8.6-.2.3-.2.7-.1 1.1.1.33.28.6.5.73.3.15.6.2.9.1"/>
  <path fill="none" stroke="#FFF" stroke-width="1.1" stroke-miterlimit="4.4" d="M260.1 215.88h43.34v-15.4H278.1v-38.5h-18zm73-20.02l4.92-13.1 4.93 13.1h-9.86zm-26.58 20.02h19.25l2.78-7.24h18.86l2.9 7.24h19.6l-22.8-54.28h-17.8l-22.7 54.28zm86.18-13.63v-8h9.07c3.93 0 5.86 1.6 5.86 3.92v.15c0 2.3-2 3.93-5.93 3.93h-9zm0-19.1v-7.54h7.76c3.85 0 5.78 1.4 5.78 3.7v.2c0 2.4-1.85 3.7-5.7 3.7h-7.85zm-17.57 32.73H405c13.64 0 20.72-6.3 20.72-14.94v-.15c0-7.4-4.47-11.1-11.4-13.1 5.78-2 9.63-6 9.63-12.4v-.2c0-3.7-1.4-6.5-3.3-8.4-3.17-3.2-7.87-4.9-15.33-4.9h-30.2v53.9z"/>
  <path fill="none" stroke="#FFF" stroke-width="1.5" d="M126.13 62.13h136.9v44.1h-136.9z"/>
  <path fill="#FFF" d="M144.37 74.18h7.78c3.17 0 5.34.7 6.77 2.13 1.07 1.1 1.65 2.6 1.65 4.3 0 2.1-.7 3.9-1.95 5.1-1.2 1.2-2.84 2.1-4.94 2.6l3.63 7.3H152l-3.3-6.8h-3.5l-1.83 6.9h-4.7l5.73-21.3zm6.1 10.37c1.83 0 3.4-.46 4.3-1.37.55-.55.9-1.3.9-2.17 0-.7-.22-1.2-.68-1.7-.6-.5-1.7-.8-3.2-.8h-4l-1.7 6.2h4.1zm16.08-10.37h15.96l-1.1 4.18h-11.3l-1.1 4.36h10l-1.1 4.12H168l-1.24 4.5h11.47l-1.13 4.2H161l5.7-21.36zm23.62 4.32h-6.5l1.16-4.32h17.7l-1.17 4.33h-6.5l-4.56 17.1h-4.7l4.52-17zm20.23-4.47h4.5l3.4 21.5h-4.83l-.67-4.8h-9.03l-3.23 4.8h-5.06l14.9-21.5zm1.85 12.56l-.97-7.1-4.7 7h5.67zm14.62-12.5h4.7l-5.74 21.3h-4.7l5.74-21.4zm10.03 0h4.7l-4.57 17.1h10.64l-1.15 4.2h-15.35L236.9 74zm-101.12-56h-3.4v-2.3h9.28v2.3h-3.4V27h-2.48v-8.9zm7.77-2.3H146v4.4h4.56v-4.5h2.46V27h-2.46v-4.5H146V27h-2.45V15.8zm12.17 0h8.45V18h-6v2.3h5.28v2.2h-5.28v2.34h6.08v2.2h-8.53v-11.2z"/>
  <path fill="none" stroke="#FFF" d="M 148.63 42.36 L 148.63 61.5 M 263.66 106.87 L 273.21 118.04"/>
  <path fill="none" stroke="#FFF" stroke-width="1.5" d="M160.5.75h-23.74L124.9 21.3l11.86 20.56h23.74l11.86-20.56zM498.13 33.2l-22.87-6.35-16.93 16.64 5.94 22.9 22.87 6.3L504.07 56z"/>
  <path fill="none" stroke="#FFF" d="M125.38 107l-52.1 52.1m390.55-93.04l-52.12 52.1" stroke-dasharray="3.88 3.88"/>
  <path fill="#FFF" d="M8.3 185.7l2.6-3.12c1.82 1.5 3.7 2.44 6 2.44 1.8 0 2.9-.72 2.9-1.9v-.05c0-1.12-.7-1.7-4.04-2.55-4.04-1.03-6.65-2.15-6.65-6.14v-.05c0-3.65 3-6.05 7.1-6.05 3 0 5.4.9 7.5 2.55l-2.3 3.32c-1.7-1.23-3.5-1.98-5.2-1.98-1.7 0-2.5.78-2.5 1.75v.06c0 1.32.9 1.75 4.3 2.64 4.1 1.06 6.4 2.52 6.4 6.02v.06c0 3.98-3 6.22-7.3 6.22-3 0-6.1-1.06-8.5-3.2zm19.27-18h4.36v7.74c1-1.3 2.3-2.46 4.5-2.46 3.3 0 5.22 2.18 5.22 5.7v9.95H37.3v-8.57c0-2.06-.98-3.13-2.65-3.13-1.66 0-2.72 1.07-2.72 3.13v8.57h-4.36V167.7zm14.3 2.72v-.02c0-1.16.9-2.16 2.14-2.16s2.2.98 2.2 2.14v.02c0 1.16-.9 2.16-2.1 2.16s-2.1-1-2.1-2.14zm3.8 0v-.02c0-1-.72-1.8-1.7-1.8s-1.66.8-1.66 1.78v.02c0 1 .8 1.8 1.7 1.8 1 0 1.7-.8 1.7-1.78zm1.67-2.1h.4v.94c.36-.54.88-1.02 1.7-1.02 1 0 2 .8 2 2.14v.02c0 1.34-1 2.16-2 2.16-.82 0-1.36-.47-1.7-1v2.2h-.4v-5.43zm3.68 2.1v-.02c0-1.1-.75-1.78-1.62-1.78-.86 0-1.68.72-1.68 1.77s.82 1.7 1.68 1.7c.9 0 1.62-.7 1.62-1.8zm1.68-2.1h.4v.94c.34-.54.87-1.02 1.7-1.02 1 0 2 .8 2 2.14v.02c0 1.34-1.02 2.16-2 2.16-.84 0-1.37-.47-1.7-1v2.2h-.4v-5.43zm3.67 2.1v-.02c0-1.1-.75-1.78-1.62-1.78-.86 0-1.7.72-1.7 1.77s.84 1.7 1.7 1.7c.9 0 1.62-.7 1.62-1.8zm1.38-.02c0-1.2.85-2.16 1.96-2.16 1.2 0 1.9.93 1.9 2.16v.16h-3.4c.1 1.03.8 1.63 1.7 1.63.7 0 1.1-.3 1.4-.7l.3.2c-.4.4-.9.7-1.7.7-1.1 0-2-.9-2-2.2zm3.43-.2c-.06-.83-.54-1.6-1.48-1.6-.82 0-1.45.7-1.53 1.6h3zm1.6-1.87h.4v1.18c.3-.7 1-1.2 1.8-1.2v.5h-.04c-.95 0-1.8.8-1.8 2.1v1.7h-.38v-4.1z"/>
</svg>