<svg xmlns="http://www.w3.org/2000/svg" width="154.67" height="99.88" viewBox="0 0 154.67 99.88"><path fill="#917F76" d="M.03.35c2.75-.03 5.5-.03 8.25 0 2.3 7.65 4.58 15.3 6.96 22.94 2.4-7.7 4.64-15.4 6.98-23 2.98 0 5.95-.1 8.92 0-.97.9-2.04 1.7-3.08 2.5-.26.2-.68.4-.6.9-.02 8.5 0 17.1 0 25.6 1.2 1 2.5 1.9 3.68 3H19.07c1.16-1.1 2.58-1.9 3.65-3.1.08-8.9.02-17.7.03-26.5L13.8 32.2h-.7C10.9 24.9 8.6 17.43 6.4 10c-.44-1.32-.7-2.7-1.3-3.96-.15 7.75-.1 15.5-.04 23.23 1.1 1.16 2.5 1.97 3.65 3.1-2.8 0-5.7.03-8.6 0l3.8-3V3.45c-1.3-1.1-2.6-2-3.8-3.1zm59 .02c4-.07 8.03-.07 12.07 0-1.1 1.07-2.42 1.9-3.54 2.94-.22.5-.1 1-.14 1.4.03 8.9 0 17.8.02 26.6 2.36 0 4.73.1 7.1 0 1.66-2.1 3.27-4.2 5.02-6.2.05 2.5 0 5 .02 7.4H59.04c1.18-1 2.47-2 3.68-3-.05-8.6.04-17.3-.05-25.9-1.04-1.2-2.52-1.9-3.65-3.1zM77.1.35c7.9-.05 15.8 0 23.73 0 0 2.48.03 5-.02 7.5-1.7-2.03-3.3-4.16-5-6.24h-4.5v25.7c.1.8-.1 1.5.1 2.3 1.2 1.1 2.5 2 3.7 3-4 .1-8 0-12.1 0 1.3-1 2.6-2 3.8-3V1.8c-1.4 0-2.9 0-4.4-.03C80.6 3.8 79 5.97 77.3 8V.38zm51.88 0c2.27-.04 4.53-.03 6.8 0 4.6 7.8 9.24 15.6 13.95 23.35.1-6.74 0-13.5.06-20.24-1.3-1.1-2.6-2-3.8-3.1 2.9-.05 5.7-.03 8.6 0-1.2 1.13-2.6 1.94-3.7 3.1-.1 9.85 0 19.7-.1 29.54h-1.2c-5.2-8.58-10.3-17.25-15.5-25.8-.1 7.4 0 14.8-.1 22.2 1.2 1.02 2.5 1.97 3.7 3.03-2.9.02-5.8.03-8.7 0l3.8-3.03V5.08c-1.4-1.58-2.8-3.13-4.1-4.72zM57.74 13.1c-.6-4.3-2.6-8.64-6.26-11.14C48.88.1 45.46-.38 42.36.28c-3.7.84-6.73 3.6-8.45 6.9-2.1 4.04-2.5 8.8-1.8 13.27.7 3.8 2.4 7.53 5.5 9.9 3.2 2.5 7.7 3.15 11.5 1.8 3.1-1.12 5.6-3.64 7-6.56 1.9-3.9 2.3-8.3 1.8-12.5zm-6.3 13.17c-1.07 2.44-3 4.95-5.83 5.3-2.4.35-4.6-1.08-6-2.97-2.3-3.14-2.9-7.13-3.1-10.93-.1-3.96.5-8.04 2.3-11.62 1-1.95 2.5-3.83 4.7-4.57 2.1-.76 4.4.07 5.9 1.6 2.2 2.23 3.2 5.3 3.8 8.3.8 4.96.6 10.23-1.4 14.9zM128.4 11.8c-.83-4.14-3.08-8.23-6.85-10.35C119.05 0 116-.3 113.2.3c-3.93.9-7.05 3.97-8.73 7.54-2 4.3-2.34 9.3-1.3 13.9.8 3.3 2.5 6.52 5.24 8.6 3.4 2.6 8.1 3.22 12 1.65 3.2-1.4 5.6-4.1 7-7.3 1.7-4.1 2-8.7 1.2-13zm-6.47 15.34c-1.2 2.3-3.33 4.5-6.1 4.48-2.6.04-4.76-1.84-6-3.98-2.06-3.56-2.6-7.78-2.53-11.82.15-4.06.94-8.3 3.38-11.62.87-1.17 2-2.2 3.4-2.7 2.3-.88 4.87.2 6.36 2.03 2.43 2.9 3.3 6.74 3.65 10.42.3 4.46-.1 9.15-2.2 13.2zm-38.7 17.32c4.07-.02 8.14-.02 12.2 0-1.15 1.1-2.56 1.88-3.6 3.06 1.8 7.14 3.8 14.22 5.66 21.34 2.4-6.26 4.7-12.57 7-18.85-.3-.8-.4-1.7-.8-2.5-1.1-1.1-2.5-1.9-3.7-3h12.2c-1.2 1-2.4 2-3.7 2.9 1.8 7.2 3.8 14.3 5.7 21.5 2.7-7.1 5.3-14.3 8-21.4-1.3-1-2.5-1.9-3.7-3h8.6c-1.18 1.2-2.7 2-3.76 3.3-3.6 9.6-7.2 19.2-10.74 28.8h-1.36c-2.1-8.1-4.36-16.2-6.5-24.3-3.14 8.1-6.1 16.2-9.1 24.3h-1.3c-2.5-9.5-5.1-19-7.65-28.5-.1-.6-.6-.9-1.04-1.2-.9-.7-1.8-1.4-2.7-2.2zm45.77 0h6.78c3.5 5.94 7.08 11.84 10.6 17.8 1.14 1.8 2.13 3.7 3.35 5.46.1-6.74 0-13.48.05-20.22-1.22-1.04-2.52-1.98-3.72-3.04 2.87 0 5.74-.03 8.6 0-1.2 1.04-2.48 2-3.72 3.02v29.6h-1.18c-5.16-8.6-10.25-17.26-15.47-25.84-.1 7.4 0 14.8-.1 22.2 1.2 1.04 2.5 1.98 3.7 3.03h-8.6c1.2-1.05 2.5-1.98 3.7-3-.1-8.13 0-16.24-.1-24.35-1.4-1.55-2.8-3.1-4.1-4.67zm-45.97 12.6c-.56-3.93-2.28-7.85-5.4-10.4-2.5-2.12-5.95-3-9.18-2.46-3.57.54-6.67 2.9-8.56 5.9-2.8 4.33-3.4 9.72-2.5 14.68.6 3.9 2.6 7.7 5.9 10 2.8 1.95 6.4 2.52 9.7 1.82 3.4-.77 6.3-3.3 8-6.36 2.1-4 2.6-8.75 2-13.2zm-6.16 13.07c-1 2.28-2.6 4.57-5.08 5.33-2.5.8-5.2-.5-6.7-2.48-2.6-3.28-3.3-7.56-3.4-11.6-.1-4.4.6-9.06 3.1-12.8.9-1.3 2.1-2.47 3.7-3.02 2.1-.78 4.5.08 6 1.7 2.3 2.45 3.2 5.83 3.7 9.08.6 4.6.3 9.45-1.5 13.8zM52.2 72.98c-1.82-3.3-1.35-7.44-3.6-10.53-.84-1.23-2.28-1.77-3.67-2.13 2.74-.1 5.35-1.7 6.62-4.13 1.26-2.3 1.28-5.3.04-7.6-1.3-2.5-4.1-4.3-6.9-4.2H28.5c1.1 1.1 2.52 1.8 3.6 3 .1 8.2 0 16.4 0 24.6-.05.4.05.9-.15 1.4-1.1 1-2.4 1.9-3.5 2.9h12c-1.2-1.1-2.5-2-3.67-3 .05-4.4 0-8.8.03-13.2h5.7c1 .9 2.4 1.7 2.7 3.2.7 2.3.7 4.7 1.2 7.1.4 2 1.2 4.1 2.4 5.8h6.9c-1.2-1.2-2.7-2-3.4-3.5zm-9.47-13.92c-1.96.18-3.94.1-5.9.04.07-4.5 0-8.98.04-13.47 1.9.02 3.8-.08 5.68.04 2.78.27 4.8 2.86 5.18 5.5.64 3.35-1.44 7.37-5 7.9zm-17.2 7.54c-.4-3.2-2.72-5.92-5.7-7.04.57-.56 1.3-.9 1.86-1.48 2-1.97 2.8-5.07 2.1-7.8-.9-3.28-4-5.84-7.4-5.83-5.5.02-11-.02-16.4.02 1.2 1 2.5 2 3.7 3.02v25.9c-1.2 1-2.5 1.9-3.7 3h17.2c4.9 0 9.1-5 8.2-9.9zM8.37 45.62c1.85.02 3.7-.05 5.54.02 1.8.1 3.5 1.23 4.4 2.75 1.6 2.5 1.5 6-.3 8.4-.9 1.3-2.5 2.2-4.1 2.3-1.8.1-3.6 0-5.4 0V45.5zm7.33 29.54c-2.45.3-4.9.05-7.35.13v-15c2.15 0 4.3-.1 6.43 0 2.63.1 4.82 2.2 5.65 4.6 1.5 3.9-.5 9.1-4.76 10.1zM30.9 90.4h1.42c.03 2.72-.03 5.45.04 8.18 1.35 0 2.7-.07 4.06 0 .18.4.14.85.2 1.26-1.9.1-3.8.02-5.72.04V90.4zm32.52-.07c.5.1 1.16-.05 1.48.45 2 2.26 3.95 4.56 5.97 6.8.02-2.4 0-4.8 0-7.2h1.3c.04 3.18 0 6.34.02 9.5h-1.3c-2.1-2.37-4.1-4.7-6.2-7.1v7.1h-1.4c0-3.18-.1-6.37 0-9.55zm51.65.07l1.06-.02c2.14 2.33 4.12 4.8 6.3 7.1.03-2.37-.02-4.74.04-7.1.44 0 .87 0 1.3.03.03 3.2 0 6.4.02 9.5h-1.3c-2.1-2.3-4.1-4.7-6.2-7v7.1H115c0-3.1-.02-6.3 0-9.5zM54.1 92.65c-1.08-1.94-3.53-2.65-5.63-2.24-1.1.3-2.15.9-2.85 1.8-1.42 1.8-1.33 4.6.22 6.3 1.56 1.8 4.34 2 6.38 1 2.44-1.1 3.24-4.5 1.9-6.7zm-.85 2.94c-.18 2.4-3.3 3.8-5.36 2.6-1.6-.9-2.3-3-1.5-4.6.4-1 1.3-1.7 2.3-1.9 2.3-.7 4.8 1.4 4.4 3.8zm52.65-4c-1.4-1.4-3.53-1.6-5.33-1.1-1.33.4-2.48 1.4-3.02 2.7-1 2.3.04 5.3 2.37 6.3 1.94.8 4.46.6 6.02-1 1.87-1.8 1.84-5.2-.05-7zm-3.62 7c-2 .1-3.8-1.8-3.6-3.8.06-1.5 1.14-2.8 2.55-3.1 2.08-.7 4.6.9 4.6 3.1.2 2-1.58 3.8-3.55 3.7zM88 91.4c-2.02-1.42-4.6-.9-6.9-1-.02 3.16 0 6.32 0 9.48 2.3-.12 4.92.52 6.9-1.02 2.4-1.73 2.38-5.74 0-7.47zm-.83 6.3c-1.26 1.15-3.08.83-4.63.87-.03-2.28-.02-4.55 0-6.83 1.53.02 3.3-.24 4.6.8 1.57 1.27 1.53 3.9.03 5.17z"/></svg>