<svg xmlns="http://www.w3.org/2000/svg" width="730" height="500" version="1"><path d="M475.84 325.4L328.34 69.04 434.3 8.17 617.73 325.4h-141.9m-392.9-35.92L188.9 228.2l56.1 97.2H103.5l-20.57-35.92M290.9 488.95h30.16v-122H290.9v122zm377.96 2.88c-33.72 0-54-17.4-55.1-41.95h31.8c0 7.68 4.8 18.92 25.36 19.33 13.7 0 20.15-8 20.15-14.1-.82-9.6-12.88-10.4-25.77-12.5-12.9-2-23.86-4.3-31.8-8.5-10.15-5.2-17-16.4-17-29.3 0-21.8 18.9-39 50.44-39 30.58 0 49.9 16.1 51.96 39.9h-30.7c-.28-6.4-1.52-16.6-19.6-16.6-12.2 0-20.3 2.5-21 11 0 12.5 25.38 11.7 45.12 16.9 18.92 4.8 30.98 16.6 30.98 33.08 0 30.3-24.54 41.96-54.84 41.96m35.1-161.67c7.26 0 13.84 6.18 13.84 13.58 0 7.3-6.58 13.47-13.84 13.47-7.27 0-13.3-6.14-13.3-13.4 0-7.4 6.03-13.57 13.3-13.57zm0-2.05c-8.5 0-15.36 7-15.36 15.64 0 8.5 6.86 15.5 15.36 15.5 8.64 0 15.9-7 15.9-15.5 0-8.63-7.26-15.62-15.9-15.62zm3.7 16.2c1.5-.54 2.6-2.2 2.6-4.4 0-3.27-2.6-4.8-5.75-4.8h-5.9v17.16h2.8v-7h3.7c2.1 0 2.6 1.64 2.6 4.93 0 .98 0 1.53.6 2.08h2.6c-.5-1.1-.5-2.6-.5-4.8 0-2.72-1.5-3.13-2.6-3.13zm-6.3-6.57h3.7c1.5 0 2.6 1.1 2.6 2.7 0 1.63-2.2 2.2-3.7 2.2h-2.6v-4.96M207.14 180.7l105.96-61.2 118.87 205.9h-110.9v30.16H290.9v-30.3l-83.76-144.63" class="ps00"/><path fill-rule="evenodd" d="M209.88 491.83c-35.1 0-63.6-28.65-63.6-63.34 0-35.1 28.5-62.8 63.6-62.8 13.3 0 25.36 3.5 35.92 10.8v-51.1h30.16v163.5H245.8v-8.1c-10.56 6.8-22.62 10.9-35.92 10.9zM175.2 428.5c0 18.9 16.17 34.68 35.5 34.68 18.92 0 35.1-15.77 35.1-34.7 0-18.9-16.18-35.08-35.1-35.08-19.33 0-35.5 16.17-35.5 35.1m257.6-103.1h29.74v163.55H432.8v-8.1c-10.15 6.87-22.63 10.98-36.34 10.98-34.68 0-63.2-28.65-63.2-63.34 0-35.1 28.52-62.8 63.2-62.8 13.7 0 25.78 3.5 36.33 10.8v-51.1zm-70.2 103.1c0 18.9 16.18 34.68 34.7 34.68 19.3 0 35.5-15.77 35.5-34.7 0-18.9-16.2-35.08-35.5-35.08-18.52 0-34.7 16.17-34.7 35.1m173.28 63.33c-34.54 0-63.2-28.65-63.2-63.34 0-35.1 28.66-62.8 63.2-62.8 13.3 0 25.78 3.5 35.92 10.8v-9.8h30.16v122.2H571.8v-8.1c-10.14 6.8-22.2 11-35.92 11zm-33.86-63.34c0 18.9 16.18 34.6 35.1 34.6s34.68-15.8 34.68-34.7c0-18.9-15.76-35.1-34.68-35.1s-35.1 16.1-35.1 35.1m-466.66 0c0 18.9 16.18 34.7 35.1 34.7 19.33 0 35.5-15.8 35.5-34.7 0-18.9-16.17-35.1-35.5-35.1-18.92 0-35.1 16.1-35.1 35.1zm34.28 63.3c-34.7 0-63.34-28.7-63.34-63.4 0-35.1 28.65-62.8 63.34-62.8 13.3 0 25.77 3.56 36.33 10.83v-9.75h29.74v122.2H106v-8.1c-10.15 6.86-22.62 10.97-36.33 10.97" class="ps01"/></svg>