<svg xmlns="http://www.w3.org/2000/svg" viewBox="0 7 50 36.1"><g fill="#55a440"><path d="M15.9 28.6h-3c-.3 0-.6 0-.8-.1-.1-.1-.1-.6-.1-.9v-2c0-.4-.1-.6.2-.8.1-.1.4-.1.6-.1h1.7c.4 0 .4-.1.4-1.3s0-1.3-.4-1.3h-1.8c-.2 0-.4 0-.6-.1-.2-.1-.1-.4-.1-.7v-2c0-.4 0-.3.1-.5.1-.1.4-.1.6-.1h3.1c.4 0 .4-.1.4-1.3 0-1 0-1.2-.3-1.2h-6c-.3 0-.4 0-.6.2-.1.2-.2.2-.2.4V30c0 .4-.1.8.1 1 .2.1.6.1 1.1.1h5.5c.3 0 .3-.1.3-1.3.2-1.1.2-1.2-.2-1.2m24.6 0h-3c-.3 0-.6 0-.8-.1-.1-.1-.1-.6-.1-.9v-2c0-.4-.1-.6.2-.8.1-.1.4-.1.6-.1h1.7c.4 0 .4-.1.4-1.3s0-1.3-.4-1.3h-1.8c-.2 0-.4 0-.6-.1s-.1-.4-.1-.7v-2c0-.4 0-.3.1-.5.1-.1.4-.1.6-.1h3.1c.4 0 .4-.1.4-1.3 0-1 0-1.2-.3-1.2h-5.9c-.3 0-.4 0-.6.2-.1.2-.2.2-.2.4V30c0 .4-.1.8.1 1 .2.1.6.1 1.1.1h5.5c.3 0 .3-.1.3-1.3 0-1.1 0-1.2-.3-1.2M7.7 24.2c-.5-.7-1.4-.8-1.4-.9 0-.1.7-.2 1.2-.8.4-.5.5-1 .5-1.9V20c0-1.1-.3-2.1-1-2.9-.8-.8-2-1.1-3.1-1.1H.8c-.3 0-.5 0-.6.1-.2.3-.2.5-.2.5v13.3c0 .9 0 1 .1 1.1.1.1.4.1.8.1H4c1 0 2.2-.3 3.1-1.2.9-.9 1.1-1.8 1.1-2.8v-1.4c-.1-.6-.2-1.1-.5-1.5m-4.9-4.8c0-.1 0-.3.1-.4.1-.1.3-.1.6-.1H4c.5 0 .6.1.8.3.4.4.4.9.4 1.4v.1c0 .3 0 .6-.4 1-.3.3-.6.4-.9.4h-.4c-.2 0-.4 0-.5-.1-.1-.1-.1-.3-.1-.5l-.1-2.1zm2.5 7.5c0 .5 0 .8-.4 1.2-.3.3-.7.4-.9.4H3c-.2-.1-.2-.4-.2-.6v-2.6c0-.5.1-.5.9-.5h.5c.8 0 1.1.7 1.1 1.7v.4zm44.2-2.5c-.5-.6-1.3-.7-1.3-.8 0-.1.8-.2 1.3-.9.4-.5.4-1 .4-1.7v-.9c0-1.1-.3-2.2-1.1-2.9-.8-.8-1.9-1.1-3.1-1.1h-3.1c-.4 0-.5-.1-.7.1-.1.1-.1.4-.1.3v13.6c0 .9.2.9 1.3.9 1.3 0 1.5 0 1.5-.5v-5.3c0-.4.1-.4 1-.4h.5c.6 0 1 .7 1 1.7v4.1c0 .5.1.4 1.4.4 1.3 0 1.4 0 1.4-.4v-4.7c.1-.6 0-1-.4-1.5M47.1 21c0 .3 0 .6-.4 1-.3.3-.7.4-.9.4h-.5c-.2 0-.4 0-.5-.1-.1-.1-.1-.3-.1-.5v-2.5c0-.1 0-.2.1-.4.1-.1.3-.1.5-.1h.5c.6 0 .8.1.9.3.4.4.4.9.4 1.4v.5zM25.2 7h-.4c-2 0-3.5 1.1-3.5 3.4v1.3c0 2.1 1.4 3.4 3.5 3.4h.4c2 0 3.5-1.3 3.5-3.4v-1.3c0-2.3-1.4-3.4-3.5-3.4m1 4.1c0 .8-.2 1.7-1 1.7h-.4c-.8 0-1-.9-1-1.7 0-1 .1-1.7 1-1.7h.4c.9 0 1 .7 1 1.7zm6.5 6.3c0-1 0-1.2-.4-1.2H17.6c-.3 0-.4.2-.4 1.2 0 1.1 0 1.3.3 1.3h2.3c.3 0 .6 0 .8.1.1.1.1.2.2.4V31c0 .3.2.3 1.3.3h.2c1.1 0 1.3 0 1.3-.3V19.1c0-.1.1-.3.2-.4h2.3c.1.1.1.2.2.4v11.8c0 .3.2.3 1.3.3h.2c1.1 0 1.3 0 1.3-.3V19.1c0-.1.1-.3.2-.4.2-.1.5-.1.8-.1h2.3c.3.1.3 0 .3-1.2z"/><path d="M1.1 35.1H.5v1.5H0v.6h.5v4.2h.6v-4.2h.7v-.6h-.7m5.4-.1c-.7 0-1 .5-1.1.7-.1.2-.1.4-.1.5v2.5c0 .3 0 .4.1.6.1.5.6.6.6.6.1 0 .3.1.4.1.1 0 .6 0 .9-.4.2-.2.2-.5.2-.8v-.6h-.4v.2c0 .4 0 .6-.1.7 0 .1-.1.1-.1.2-.1.1-.4.1-.4.1-.4 0-.5-.2-.6-.4V39h1.8v-1c0-.3 0-.8-.2-1.1-.2-.2-.5-.4-1-.4m.6 1.3v.8H5.9v-.7c0-.3 0-.6.2-.7.2-.2.3-.2.4-.2.1 0 .3 0 .4.1.1.1.2.2.2.7m4.6-2.9c-.2 0-.4 0-.5.1-.3.1-.4.4-.4.8v.9h-.6v.5h.5v4.2h.6v-4.2h.6v-.5h-.6v-.9c.1-.2.2-.3.4-.3h.3V35c-.2-.1-.2-.1-.3-.1m1.7 1.6c-.7 0-1 .5-1.1.7-.1.2-.1.4-.1.5v2.5c0 .3 0 .4.1.6.1.5.6.6.6.6.1 0 .3.1.4.1s.6 0 .9-.4c.2-.3.2-.5.2-.8v-.6H14v.2c0 .4 0 .6-.1.7 0 .1-.1.1-.1.2-.1.1-.4.1-.4.1-.4 0-.5-.2-.6-.4V39h1.8v-1c0-.3 0-.8-.2-1.1-.2-.2-.4-.4-1-.4m.6 1.3v.8h-1.2v-.7c0-.3 0-.6.2-.7.1-.1.3-.1.4-.1.1 0 .3 0 .4.1.1 0 .2.1.2.6m2.4-1.3c-.7 0-1 .5-1.1.7-.1.2-.1.4-.1.5v2.5c0 .3 0 .4.1.6.1.5.6.6.6.6.1 0 .3.1.4.1.1 0 .6 0 .9-.4.2-.3.2-.5.2-.8v-.6H17v.2c0 .4 0 .6-.1.7 0 .1-.1.1-.1.2-.1.1-.4.1-.4.1-.4 0-.5-.2-.6-.4V39h1.8v-1c0-.3 0-.8-.2-1.1-.2-.2-.5-.4-1-.4m.6 1.3v.8h-1.2v-.7c0-.3 0-.5.2-.7.1-.1.3-.1.4-.1.1 0 .3 0 .4.1.1 0 .2.1.2.6m1.4-2.8h.6v6.4h-.6zm8.8 1.8c-.2-.2-.5-.3-.8-.3-.4 0-.8.1-1 .4-.2.3-.2.5-.2.8v2.6c0 .2 0 .4.1.5.2.5.7.6 1.1.6.2 0 .9-.1 1.1-.8.1-.2.1-.4.1-.6v-2.2c0-.2 0-.4-.1-.6-.1-.2-.2-.3-.3-.4m-1.5 3.3v-2.3c0-.3 0-.6.3-.7.1-.1.3-.1.4-.1.1 0 .3 0 .4.1.2.1.2.4.2.6V40c0 .2 0 .3-.1.4-.1.2-.3.4-.6.4s-.5-.1-.6-.4v-.3m4.6-3.3c-.2-.2-.5-.3-.8-.3-.4 0-.8.1-1 .4-.2.3-.2.5-.2.8v2.6c0 .2 0 .4.1.5.2.5.7.6 1.1.6.2 0 .9-.1 1.1-.8.1-.2.1-.4.1-.6v-2.2c0-.2 0-.4-.1-.6-.1-.1-.1-.3-.3-.4m-1.5 3.3v-2.3c0-.3 0-.6.3-.7.1-.1.3-.1.4-.1.1 0 .3 0 .4.1.2.1.2.4.2.6V40c0 .2 0 .3-.1.4-.1.2-.3.4-.6.4s-.5-.1-.6-.4v-.3m4.4-3.3c-.1-.1-.4-.3-.8-.3-.3 0-.5.1-.6.2-.3.2-.4.6-.4 1.1v2.4c0 .3 0 .6.2.8.3.4.7.4.8.4.4 0 .6-.2.8-.4v.3h.5V35h-.6l.1 1.8zm-.6 4.1c-.1 0-.3 0-.4-.1-.2-.2-.2-.4-.2-.7v-2.6c.1-.3.3-.4.5-.4.1 0 .2 0 .3.1.3.2.3.5.4.6v2.5c0 .3-.2.6-.6.6m6.3-4.2c-.2-.1-.4-.2-.6-.2-.2 0-.5 0-.8.3v-.3H37v6.4h.6v-1.8l.1.1c.3.2.5.2.7.2.4 0 .8-.3.9-.7.1-.2.1-.3.1-.4V38c-.1-.5-.1-1-.5-1.3m-1.4.8c0-.1 0-.1.1-.2 0-.1.2-.4.6-.4.2 0 .4.1.5.4V40c0 .3 0 .6-.2.8-.1.1-.3.1-.3.1-.2 0-.4-.1-.6-.3 0-.1-.1-.1-.1-.2v-2.9zm2.6-2.5h.6v6.4h-.6zm3.6 5.7v-3.2c0-.3 0-.7-.4-1-.2-.1-.4-.1-.6-.1-.6 0-.9.3-1 .6-.1.3-.1.5-.1 1v.1h.6V38c0-.2 0-.6.1-.8.1-.1.1-.3.5-.3.1 0 .2 0 .3.1.2.1.2.4.2.6v.5c-.1.1-.2.1-.4.2-.1.1-.2.1-.3.1-.4.2-.8.4-1 .8-.1.2-.2.5-.2.8 0 .7.4 1.2 1 1.2.4 0 .7-.2.9-.3 0 .1.1.1.1.2.1.1.3.1.6.1v-.5h-.1c-.2.1-.2.1-.2 0m-1.2.1c-.5 0-.5-.4-.5-.6 0-.4.2-.7.6-1 .1-.1.3-.1.4-.2 0 0 .1 0 .1-.1 0 0 .1 0 .1-.1v1.6c-.2.3-.4.4-.7.4m4-.6v.3c0 .1-.1.4-.5.4-.3 0-.5-.1-.6-.4-.1-.2-.1-.6-.1-.6v-2c0-.1 0-.3.1-.4.1-.1.2-.4.6-.4.4 0 .5.3.6.5v.8h.4v-.5c0-.1 0-.5-.1-.8-.2-.4-.5-.6-1-.6-.3 0-.9.1-1.1.7-.1.2-.1.3-.1.5V40c0 .4 0 .9.5 1.3.1.1.4.2.6.2.6 0 1-.3 1.1-.7.1-.1.1-.3.1-.6v-.7h-.6c.1-.1.1.7.1.7zM50 39v-1c0-.3 0-.8-.2-1.1-.1-.2-.4-.4-1-.4-.7 0-1 .5-1.1.7-.1.2-.1.4-.1.5v2.5c0 .3 0 .4.1.6.1.5.6.6.6.6.1 0 .3.1.4.1.1 0 .6 0 .9-.4.2-.2.2-.5.2-.8v-.6h-.6v.2c0 .4 0 .6-.1.7 0 .1-.1.1-.1.2-.1.1-.4.1-.4.1-.4 0-.5-.2-.6-.4V39h2zm-.6-1.2v.8h-1.2v-.7c0-.3 0-.6.2-.7.1-.1.3-.1.4-.1.1 0 .3 0 .4.1.1 0 .2.1.2.6m-44.7-.3c0-.1 0-.2-.1-.3-.1-.4-.4-.6-.6-.6-.1 0-.2-.1-.3-.1 0 0-.2 0-.4.1s-.2.1-.3.2V35h-.6v6.4H3v-3.8s0-.1.1-.2c0 0 .2-.4.6-.4h.2c.3.1.4.4.4.8v3.5h.6v-3.8h-.2m19.6 4.2v-5.2h-.6v.3c-.1-.1-.4-.3-.7-.3-.2 0-.8.1-1 .6V40c0 .4 0 .9.5 1.2.2.1.5.1.6.1.4 0 .6-.2.7-.3v.8c0 .2 0 .2-.1.3-.1.3-.6.4-.6.4-.1 0-.4 0-.5-.2 0-.1-.1-.2-.1-.3v-.1H22c0 .3 0 .4.1.6.2.4.6.5 1 .5.6 0 1-.3 1.2-.8v-.5zm-1.7-3.9c0-.3 0-.6.3-.8.1-.1.2-.1.3-.1.4 0 .6.3.6.6v2.6c0 .2-.1.2-.1.3-.2.3-.5.3-.6.3-.1 0-.2 0-.3-.1-.2-.2-.2-.4-.2-.7v-2.1z" class="strap"/></g></svg>
