<svg xmlns="http://www.w3.org/2000/svg" width="300" height="300" viewBox="0 0 300 300"><g fill="#009DDC"><path d="M91.313 161.905c4.58-1.154 7.45-4.594 7.45-9.165 0-6.992-6.288-9.935-12.65-9.935H70.818v40.368h14.44c7.608 0 15.374-2.796 15.374-11.492 0-5.11-3.413-9.16-9.32-9.77M77.66 148.7h6.05c3.567 0 7.92.626 7.92 5.287 0 4.194-3.573 5.432-6.993 5.432H77.66V148.7zm6.977 28.574H77.66v-11.946h7.29c4.04 0 8.852.306 8.852 5.74 0 5.122-4.975 6.208-9.165 6.208zm1.305 26.714c0-1.346.67-2.437 1.776-3.217 1.305-.94 3.323-1.45 4.915-1.45 3.707 0 6.057.59 9 1.84v-6.52c-2.932-1.12-5.26-1.67-8.98-1.67-3.003 0-6.84 1.07-9.264 2.98-2.58 2.05-4.28 4.99-4.28 8.36 0 12.89 18.33 9.17 18.33 17.08 0 1.45-.7 2.75-1.76 3.65-1.22 1.05-3.33 1.63-5.41 1.63-3.87 0-7.61-1.33-10.56-3.5v6.93c3.2 2.03 7.15 2.71 11.19 2.71 2.85 0 6.14-.84 8.43-2.44 2.92-2.04 4.93-5.22 4.93-8.97 0-13.5-18.34-10.24-18.34-17.38M129.54 98.4h-27.257v5.587h10.64v28.57h6.056v-28.57h10.56v-5.583m14.23 95.333h-6.85v15.217h-17.7V193.73h-6.83v38.2h6.83v-16.77h17.7v16.77h6.84v-38.2m-14.5-51.86c-12.74 0-21.59 8.853-21.59 21.43 0 12.57 9.01 20.8 21.59 20.8 12.57 0 21.58-8.54 21.58-21.115 0-12.885-8.7-21.114-21.58-21.114m0 36.02c-8.85 0-14.14-6.82-14.14-15.21 0-8.22 5.75-14.59 14.14-14.59 8.53 0 14.13 6.37 14.13 14.59 0 8.39-5.28 15.21-14.13 15.21zm33.8-79.49h-6.05v13.66h-16V98.4h-6.05v34.153h6.05V117.34H157v15.214h6.05V98.397m8.15 94.405c-11.955 0-20.19 8.23-20.19 20.186 0 11.96 8.39 19.873 20.19 19.873 11.795 0 20.49-8.07 20.49-19.87 0-12.26-8.375-20.18-20.49-20.18m0 33.85c-8.08 0-13.04-6.21-13.04-13.98 0-7.6 5.276-13.66 13.04-13.66s13.35 6.06 13.35 13.66c0 7.77-5.283 13.98-13.35 13.98zm16.05-81.09c-3.15-1.78-7.67-2.75-11.97-2.75H160v40.37h14.19c4.238 0 9.06-.95 12.42-2.85 5.996-3.37 10.035-9.56 10.035-17.34 0-7.97-3.54-14.1-9.397-17.42m-2.908 28.2c-3.11 2.23-7.03 3.21-11.53 3.21h-5.67v-27.95h7c4.73 0 8.375 1.12 11.162 3.56 2.592 2.28 4.032 5.69 4.032 10.41 0 5.05-1.896 8.55-4.996 10.78zm10.997-46.79h-17.39v-9.32h15.53v-5.28h-15.52V104h16.46v-5.6h-22.51v34.155h23.447v-5.585m33.32 15.84l-10.09 16.447-10.4-16.448h-8.547l15.06 22.97v17.39h7.147v-17.39l15.06-22.98h-8.22m-16.44 50.92h-12.81v38.2h6.82v-14.8h4.33c3.85 0 7.22-.5 10.14-1.82 3.21-1.48 5.62-4.75 5.62-10.07 0-8.4-6.817-11.51-14.11-11.51m3.7 17.03c-1.35.62-3.11.85-4.63.85h-5.06v-12.08h4.972c2.07 0 3.81.05 5.25.73 1.692.81 2.812 2.51 2.812 5.03 0 2.83-1.42 4.58-3.352 5.46zM104.66 54.47c-2.607 0-5.72.972-8.645 2.563-2.833 1.53-5.575 3.19-8.25 4.997-29.226 19.77-49.18 53.99-49.18 90.543 0 .777.467 1.558 1.244 1.558.77 0 1.39-.62 1.55-1.24 1.24-4.5 2.48-8.85 4.04-13.35 6.83-18.63 16.92-33.07 30.12-44.57 9.15-8.06 19.72-14.28 31.84-19.86 4.18-1.87 7.45-5.94 7.45-10.68 0-5.9-4.27-9.95-10.17-9.95m80.66 9.96c0 4.75 3.27 8.81 7.45 10.69 12.11 5.58 22.67 11.79 31.83 19.86 13.2 11.5 23.29 25.94 30.12 44.57 1.56 4.51 2.79 8.86 4.04 13.36.15.62.77 1.24 1.55 1.24s1.25-.78 1.25-1.55c0-36.556-19.97-70.78-49.19-90.55-2.68-1.81-5.42-3.466-8.26-5-2.93-1.59-6.04-2.56-8.64-2.56-5.9-.002-10.17 4.05-10.17 9.95"/><path d="M150.07 276.34c-68.013 0-122.968-55.277-122.968-123.286 0-43.17 22.354-82.345 59.308-104.714 8.535-5.046 14.803-7.875 24.09-11.647 3.827-1.554 8.817-3.7 11.31-5.86 2.27-1.974 3.474-4.88 3.474-7.906 0-2.783-.962-5.084-2.587-6.744-1.935-1.97-4.81-3.036-8.127-3.036-4.19 0-9.674 1.494-16.67 4.44C45.26 39.63 10.64 88.92 10.64 147.457c0 77.02 62.42 139.434 139.432 139.434 77.02 0 139.443-62.41 139.443-139.43 0-58.53-34.623-107.82-87.263-129.87-6.99-2.94-12.483-4.44-16.675-4.44-3.318 0-6.192 1.07-8.12 3.04-1.633 1.66-2.594 3.96-2.594 6.75 0 3.03 1.198 5.94 3.473 7.91 2.493 2.16 7.483 4.31 11.312 5.86 9.286 3.78 15.554 6.61 24.09 11.65 36.96 22.37 59.31 61.55 59.31 104.72-.002 68.01-54.96 123.29-122.978 123.29m97.465 10.32h-1.426v-10.31h-2.91v-1.27h7.25v1.27h-2.92v10.31m4.02-11.57h2.4l2.32 9.197h.02l2.34-9.193h2.39v11.574h-1.43v-10.11h-.03l-2.56 10.1h-1.43L253 276.57h-.028v10.103h-1.43v-11.58"/></g></svg>