<svg xmlns="http://www.w3.org/2000/svg" viewBox="0 0 631.5 384"><path fill="#1B448E" d="M0 192l.4-9.9 1.2-9.8 4.8-19.1 7.8-18.4 10.6-17.6 13.3-16.8 15.8-15.8 18.2-14.8 20.4-13.6L115 43.8l24.3-11.1 26.1-9.6L193 15l29-6.5 30.3-4.7L283.6 1l32.3-1 32.2 1 31.3 2.9 30.2 4.7 29 6.5 27.6 8.1 26 9.6 24.3 11.1L539 56.2l20.4 13.6 18.2 14.8 15.8 15.8 13.3 16.8 10.6 17.6 7.8 18.4 4.8 19.1 1.2 9.8.4 9.9-.4 9.9-1.2 9.7-4.8 19-7.8 18.4-10.6 17.6-13.3 16.8-15.8 15.8-18.2 14.8-20.4 13.6-22.4 12.4-24.3 11.1-26 9.6-27.6 8.1-29 6.5-30.2 4.7-31.3 2.9-32.2 1-32.3-1-31.4-2.9-30.3-4.7-29-6.5-27.6-8.1-26.1-9.6L115 340l-22.5-12.4L72.1 314l-18.2-14.8-15.8-15.8-13.3-16.8L14.2 249l-7.8-18.4-4.8-19-1.2-9.7L0 192z"/><path fill="#FFF" d="M534.2 160.3l-.2-3.1-.4-3.1-.6-2.9-.8-2.9-2-5.5-2.2-5.4-2.2-5.3-2-5.3-.8-2.7-.6-2.8-.4-2.9-.2-2.9 2.6-2 .7-.6.6-.6.6-.6.5-.6.6-.8.6-.9.3-.5.2-.5.2-.5.2-.5.1-.5.1-.5.1-.5v-.5l-.1-.6-.1-.6-.2-.6-.3-.6-.4-.4-.4-.3-.2-.2-.2-.1h-.3l-.2-.1-.3-.1-.2-.1h-.3l-.3-.1h-.8l-.3.1-.6.3-.7.4-.7.5-.6.5-.5.5-.5.6-.5.6-.4.6-.7 1.3-.6 1.3-1.1 2.6-24.6 30-3.3-.3-1.6-.1h-1.6l-1.6.1-1.6.2-1.6.3-1.5.4-1.5.5-1.4.6-1.4.7-1.4.8-1.3.9-1.3 1-1.2 1.1-1.2 1.2-1.3 1.4-1.2 1.5-1 1.6-.9 1.7-.8 1.8-.6 1.8-.5 1.9-.3 1.9-.2 1.9-.1 2 .1 2 .2 2 .3 1.9.4 1.9.5 1.8.7 1.8-7.8 8.1-8.4 7.4-2.2 1.7-2.2 1.5-1.1.6-1.2.5-1.1.4-1.1.3-.4.1h-1.5l-.3-.1-.3-.1-.3-.1-.3-.1-.3-.2-.3-.2-.3-.2-.2-.2-.2-.3-.2-.3-.1-.3-.3-.7-.2-.7-.1-.7v-1.4l.1-.7.1-.7.2-.7.5-1.4.6-1.4 1.1-2.6 35-85.9 52.9-6.4 6.4-11.5h-52.5l5-11.5-14.4.6-4.7 10.1H272.5l4.7 4.4 1.7 1.8 1.5 1.9 1.3 2 1.2 2 1 2.1.9 2.2.7 2.3.6 2.3.5 2.3.3 2.4.2 2.4.1 2.4-.1 2.3-.2 2.3-.7 4.5 79.5-8.8L455 101l-11.5 22.6-3.4-1.4-3.1-1.4-3.2-1-3.3-.7-3.3-.5-3.4-.2-3.4.1-3.4.3-3.4.5-3.3.7-3.3 1-3.2 1-3.1 1.2-5.9 2.8-5.4 3.3-3.5-1.2-3.5-.8-3.5-.5-3.5-.2h-3.5l-3.5.3-3.5.5-3.4.8-3.4.9-3.3 1.1-6.5 2.7-6.1 3.2-5.8 3.5-.3-.9-.3-1-.4-.9-.5-.9-.5-.9-.6-.9-.6-.8-.7-.8-.7-.7-.8-.7-.8-.6-.9-.6-.9-.5-.9-.4-1-.3-1-.2-2.3-.4-2.3-.2-2.3.1-2.2.3-2.2.5-2.2.7-2.1.8-2.1.9-3.9 2.1-3.6 2.2-5.8 4.1-.6-.4-.7-.4-1.5-.8-1.6-.8-1.4-.6-1-.3-1-.3-1-.2-1-.2-1-.1-1-.1h-2.1l-2.1.2-2.1.4-2 .5-1.9.7 2.4-4.4 1.1-2.2 1.1-2.3.9-2.3.9-2.3.7-2.4.6-2.4.3-2.6.2-2.6v-2.6l-.2-2.6-.4-2.6-.6-2.5-.7-2.4-.9-2.4-1-2.3-1.2-2.3-1.4-2.2-1.5-2.1-1.7-2-1.8-1.9-2-1.8-2.1-1.7.7-.7.7-.7 1.4-1.3 1.5-1.2 1.6-1.1 3.2-2 1.6-1 1.5-1.1.1-.1.1-.1.1-.1.1-.1.1-.1.1-.1.1-.1.1-.2v-.6l-.1-.2-.1-.3-.1-.2-.1-.1-.1-.1-.1-.1-.1-.1-.1-.1-.1-.1h-.1l-.2-.1h-.5l-.1-.1-.1-.1-2.6.7-2.7.9-2.7 1-2.6 1.2-4.5 2.3-3.2 1.7-6.2-2.2-6.4-1.7-6.6-1.2-6.7-.8-6.8-.4h-6.8l-6.7.4-6.6.8-10.2 2.4-10 3.1-9.7 3.8-9.3 4.6-8.9 5.4-8.4 6.3-7.9 7.3-7.4 8.2-2.7 4.1-2.5 4.4-2.2 4.6-.9 2.4-.8 2.4-.6 2.4-.4 2.4-.2 2.5v2.5l.3 2.5.6 2.5.9 2.4 1.2 2.4 1 1.2 1 1.2 1.1 1.1 1.2 1 1.2.9 1.3.9 1.3.8 1.4.7 1.4.6 1.5.5 1.5.4 1.5.3 1.6.1 1.6.1 1.6-.1 1.6-.2 1-.3 1-.4 1-.4 1-.5.9-.6.9-.7.9-.7.8-.8.8-.8.7-.9.7-.9.7-.9.6-.9.5-1 .5-1 .4-1-1.8-.5-1.8-.6-1.8-.7-.9-.5-.8-.5-.8-.5-.8-.6-.7-.7-.7-.7-.5-.8-.5-.9-.4-.9-.3-1-.2-2.2v-2.2l.1-2.1.3-2.1.4-2 .5-2 .7-2 .7-1.9 1.8-3.7 2.1-3.6 2.3-3.4 2.5-3.3 6.5-6.5 6.9-5.7 7.3-4.9 7.7-4.1 8-3.3 8.3-2.5L213 81l8.8-1 6.3.3 3.1.3 3 .5 2.8.7 1.4.5 1.3.5 1.3.7 1.2.7 1.2.8 1.1 1-13.5 8.4-6.7 5.5-6.2 6-5.7 6.4-5.4 6.7-5 6.9-4.8 7-9 14.1-2.5-.2-2.5-.1h-2.5l-2.4.2-2.4.4-2.3.6-1.1.3-1.1.4-1 .5-1 .5-.6.4-.6.4-.6.5-.5.5-.5.5-.5.5-.5.5-.4.6-.4.6-.3.6-.3.6-.3.7-.2.7-.2.7-.1.7.6.9.1 1.2.2 1.1.3 1.1.4 1.1.5 1 .6 1 .7 1 .7.9.8.9.9.8 1.8 1.5 1.9 1.3 1.9 1.1-1.4 3.7-15.5 33.7-3.3 7.1-1.7 3.3-.8 1.6-.9 1.4-3.4-1.2-1.8-.5-1.8-.4-1.9-.3-1.9-.2h-1l-1 .1-1 .1-1 .2-1.9.2-1.9.4-1.9.6-1.8.8-1.8.9-1.8 1.1-1.7 1.2-1.6 1.3-1.5 1.4-1.4 1.5-1.3 1.6-1.2 1.7-1.1 1.7-1 1.8-.8 1.8-.7 1.8-.8 2.3-.6 2.3-.4 2.4-.3 2.4-.1 2.4.1 2.4.3 2.4.4 2.3.5 2.3.7 2.3.8 2.2 1 2.2 1.1 2.1 1.2 2 1.4 1.9 1.4 1.8-.9 1.2-.9 1.1-2 2.1-2.2 1.9-2.3 1.8-2.5 1.5-2.6 1.4-2.3.9-2.7 1-3.9.8-2.1.3-2.1.2h-1.1l-1-.1-1-.1-1-.2-1-.3-.9-.3-.9-.5-.9-.6 1.3-.2 1.2-.3 1.2-.4 1.2-.5 1.1-.6.6-.3.5-.4.5-.4.5-.4.5-.5.5-.5.5-.5.5-.5.4-.5.4-.6.3-.6.3-.6.3-.6.2-.7.2-.7.1-.7.1-.6v-1.3l-.1-.6-.1-.6-.2-.5-.2-.8-.3-.8-.3-.8-.4-.8-.5-.7-.5-.7-.6-.7-.6-.7-.7-.6-.7-.6-.7-.5-.7-.5-.8-.4-.7-.4-.8-.3-.8-.2-.9-.2-.9-.2-.9-.1-.9-.1h-1.8l-.9.1-.9.1-.9.2-.9.2-.9.3-.8.3-.8.4-.8.4-.7.5-.7.5-.9.6-.9.7-.8.7-.7.8-.7.8-.6.9-.5.9-.4.9-.4 1-.3 1-.2 1-.1 1.1v2.2l.1 1.1.2 1.1.2 1.3.3 1.2L70 287l.6 1.2.7 1.1.8 1 .9 1 .9.9 1 .9 1 .9 1.1.8 1.1.7 2.3 1.2 2.3 1 3.3.9 3.3.6 3.3.3h3.3l3.2-.3 3.1-.5 3.1-.7 3.1-.9 5.9-2.2 5.6-2.7 5.2-2.9 4.8-2.9 5.2 2.8 5 2.4 2.5 1 2.5.9 2.5.9 2.6.8 5 1.1 5 .7 5 .3h4.9l4.9-.4 4.8-.7 4.7-1 4.6-1.4 4.5-1.8 4.4-2.1 4.3-2.4 4.1-2.7 4-3 3.8-3.3 3.6-3.6 3.4-3.9 3.4-4.3 3.1-4.5 2.7-4.8 2.4-5 2-5.1 1.6-5.3 1.3-5.4.9-5.5.6-5.5.2-5.6-.2-5.6-.5-5.5-.9-5.4-1.3-5.3-1.6-5.2-2-5-1.6-3.8-1.7-3.8-3.5-7.3 3.8-1.6 3.8-1.8 7.6-3.7 3.7-1.8 3.5-2.1 3.4-2.3 3.3-2.4 6.6-5 3.3-2.5 3.4-2.4 2.2-.8 2.4-.7 2.4-.5 2.5-.3 1.2-.1h1.2l1.2.1 1.2.2 1.2.2 1.2.3 1.1.4 1.1.5-4.6 4.9-4.4 5-4.1 5.2-3.8 5.3-3.5 5.5-3.2 5.6-3 5.7-2.7 5.9-2.2 5.8-2 6.1-1.6 6.3-1.1 6.4-.3 3.2-.1 3.2.1 3.2.3 3.2.6 3.1.8 3.1 1.1 3.1 1.4 3 .7 1 .7 1 .8.9.9.9.9.8 1 .7 1 .7 1 .5 1 .5 1.1.4 1.1.3 1.1.3 1.1.2 1.1.1h1.2l1.1-.1 4.2-.7 4-1.1 3.9-1.5 3.7-1.9 3.6-2.2 3.4-2.5 3.3-2.7 3.1-2.9 5.8-6.4 5.3-6.9 4.7-7.1 4.2-7 6.6-13 3-6.6 2.7-6.7 2.3-6.9 1.8-7.1 1.2-7.3.5-7.6 4.2-3.1 4.3-2.9 4.5-2.6 4.6-2.2 4.8-1.8 2.4-.7 2.5-.6 2.5-.5 2.6-.3 2.6-.1h2.7l-5.8 5-5.4 5.4-5 5.7-4.6 5.9-4.3 6.1-3.9 6.3-3.6 6.4-3.2 6.4-2.2 5.2-1.8 5.6-.7 2.9-.6 3-.4 3-.3 3v3l.2 3 .5 2.9.7 2.9 1 2.7 1.3 2.6 1.7 2.5 2 2.4.9.9.9.8 1 .7 1 .6 1.1.5 1.1.4 1.2.3 1.2.3 1.2.2 1.2.1h1.2l1.2-.1 1.2-.1 1.2-.2 1.2-.3 1.2-.3 4.1-1.6 4-2 3.8-2.4 3.6-2.7 3.5-3.1 3.3-3.4 3.1-3.6 2.9-3.8 2.7-4 2.5-4.2 4.3-8.7 3.4-8.9 2.4-8.8.7-4.8.4-4.9v-4.9l-.2-2.4-.3-2.4-.5-2.4-.6-2.4-.7-2.3-.9-2.2-1.1-2.2-1.3-2.1-1.4-2-1.7-2 1.8-1.3 1.6-1.1 1.4-.9 1.3-.8 2.2-1.2 2.3-1.1 2.4-.9 2.4-.8 2.5-.6 2.6-.5 2.6-.3 2.6-.1h2.6l2.6.2 2.6.3 2.5.5 2.4.7 2.3.9 2.2 1 2.1 1.2-23.9 53.2-.9 2.4-.8 2.5-.7 2.5-.5 2.6-.1 1.3-.1 1.3v1.3l.1 1.2.3 1.2.3 1.2.5 1.2.6 1.2.5.8.5.7.6.7.6.6.6.6.7.5.7.5.7.4 1.4.8 1.5.6 1.5.5 1.5.4 3.4.1 3.3-.3 3.2-.6 3-.9 3-1.2 2.8-1.5 2.8-1.7 2.7-1.9 5.2-4.3 5-4.7 9.5-9.6 1 1.5 1.2 1.4 1.2 1.3 1.3 1.2 1.4 1.1 1.4 1 1.5.9 1.6.8 1.6.7 1.7.6 1.7.5 1.7.4 1.8.3 1.8.2 1.8.1 1.8.1v.3l-.3.6-.3.6-.7 1.1-.7 1-.8.9-.9.9-.9.8-2 1.6-2.4 1.6-2.4 1.4-2.4 1.2-2.4 1-2.4.9-2.5.8-5 1.5L355 240.8l-73.4 17.9-4.1 1.3-4 1.8-3.9 2.1-1.9 1.2-1.8 1.3-1.7 1.4-1.7 1.5-1.6 1.6-1.4 1.7-1.3 1.8-1.2 1.9-1 2-.9 2-.6 1.5-.5 1.6-.5 1.6-.4 1.7-.3 1.8-.2 1.8-.1 1.8v1.8l.1 1.8.2 1.8.4 1.7.5 1.7.6 1.6.8 1.6.9 1.5 1 1.4.7-1.1.7-1 .8-.9.9-.8.9-.8.9-.7.9-.6.9-.5 200.4-62.3 12-3.9 2.9-1.1 2.9-1.2 2.9-1.4 2.8-1.6 2.2-1.5 2-1.6 1.9-1.7 1.7-1.9 1.6-2 1.4-2.1 2.6-4.3 2.2-4.5 2-4.6 3.9-9.2h.4l.1-.1h.3l.1-.1.1-.1.1-.1 1.2-.6 1.3-.8 2.6-1.8 2.1-1.5.6-.5.2-.1v-.1l1.8-1.4 1.7-1.5 1.6-1.5 1.5-1.6 1.4-1.7 1.3-1.8 1.2-1.8 1-1.9.9-1.9.8-2 .7-2 .6-2 .5-2 .3-2.1.3-2.1.4-2.3z"/><desc>Drawing</desc><path fill="#1B448E" d="M518.7 163.7l.7-2.6.5-2.6.3-2.6.2-2.6v-5.2l-.5-5.2-.8-5.2-1-5.2-2.1-10.1-15.5 20.9 1.8 1.4 1.7 1.4 1.6 1.5 1.5 1.6 1.3 1.6 1.2 1.7 1.1 1.8 1 1.8.9 1.9.8 1.9.7 2 .5 2 .4 2 .3 2.1.3 4.2.9-2.1.8-2 .7-2 .7-2.4z"/><desc>Drawing</desc><path fill="#1B448E" d="M506.9 175.5l.3-1.8.1-1.8v-1.8l-.1-1.8-.3-1.8-.4-1.7-.5-1.7-.7-1.6-.8-1.6-.9-1.5-1-1.5-1.1-1.4-1.2-1.3-1.4-1.2-1.5-1.2-1.6-1-21.9 28.6 1.3 1.6 1.4 1.4 1.5 1.3 1.5 1.2 1.6 1 1.6.8 1.6.7.8.3.8.2 1.2.3 1.2.2 1.2.1 1.2.1h1.2l1.2-.1 1.2-.2 1.2-.2 1.1-.3 1.1-.4 1.1-.4 1-.5 1-.6 1-.7.9-.7.9-.8.5-.9.5-1 .4-1 .4-1 .7-2.1.7-2.2z"/><desc>Drawing</desc><path fill="#1B448E" d="M487.4 148.5l-.8-.2-.8-.1-.8-.1h-1.6l-.8.1-.8.1-.8.2-.8.2-.8.3-.8.3-.7.3-.7.4-.7.5-.6.5-.6.5-.9.9-.8 1-.7 1-.7 1.1-.6 1.1-.5 1.1-.4 1.2-.3 1.2-.3 1.2-.1 1.2-.1 1.2v1.2l.1 1.2.2 1.2.3 1.2.5 1.2 16.4-21.2z"/><desc>Drawing</desc><path fill="#1B448E" d="M324 150.9l.1-2.7v-1.4l-.1-1.4-.1-.7-.1-.7-.2-.6-.3-.6-.3-.5-.4-.5-.2-.2-.3-.2-.6-.3-.6-.3-.6-.2-.6-.1h-.6l-.6.1-.5.1-.5.2-.5.3-.5.3-.5.3-1 .8-1.8 1.6-6.6 7-6.2 7.2-5.9 7.5-5.5 7.7-5.1 7.9-4.7 8-4.3 8.2-3.9 8.3-2.6 5.5-1.2 3.2-1.1 3.3-.5 1.7-.3 1.7-.2 1.7-.1 1.7.1 1.7.2 1.6.4 1.6.6 1.6.2.3.2.3.2.3.2.3.3.2.3.2.3.2.3.2.3.1.3.1.3.1.3.1.3.1.3.1.3.1h.3l.5.1.5.1h1l1-.2 1-.3 1-.5 1-.6 1-.7 1-.7 2-1.6 1.9-1.8 3.3-3.6 4.6-5.6 4.3-5.8 4.1-5.9 3.8-6 3.5-6.2 3.3-6.3 6-12.7 4.6-12.2 2-6.2.8-3.1 1.1-3.3z"/><desc>Drawing</desc><path fill="#1B448E" d="M257.3 116.5l.1-3.1v-3.1l-.2-3.1-.4-3-.3-1.4-.4-1.4-.4-1.4-.5-1.3-.6-1.3-.6-1.4-.8-1.2-.9-1.2-5.4 5-5.8 6.7-5.4 6.9-5 7-4.7 7.1-17.4 29.2 3 1.7 1.4.9 1.3.9 1.2 1 1.1 1 1.1 1.2 1 1.3 11.1-6.4 2.7-1.8 2.6-1.9 2.5-2 2.4-2.2 2.3-2.3 2.1-2.4 2-2.5 1.8-2.6 1.7-2.7 1.6-2.7 1.4-2.8 1.2-2.9 1.1-2.9.9-3 .7-3 .5-2.9z"/><desc>Drawing</desc><path fill="#1B448E" d="M218.6 219.9l.9-5.4.6-5.6.3-5.8-.1-5.8-.6-5.7-.5-2.8-.6-2.7-.8-2.6-.9-2.6-1-2.4-1.2-2.4-1.8.5-1.9.4-2 .4-2 .3-4 .4-1.9.1h-1.8L184 211.4l-8.3 16.3-9.1 15.9-2.8 4.6-3.2 4.7-7 9.4-6.9 8.3-5.4 6.1 3.1.9 3.1.7 3.1.5 3.1.3 3.1.1 3.1-.1 3-.3 3-.5 2.9-.7 2.9-.8 2.8-1 2.8-1.1 2.7-1.2 2.6-1.4 2.6-1.5 2.4-1.6 3.1-2.3 2.9-2.4 2.7-2.6 2.6-2.7 4.8-5.7 4.2-6.1 3.5-6.4 3-6.7 2.4-6.9 1.8-7.3z"/><desc>Drawing</desc><path fill="#1B448E" d="M202.8 167l6.4-.7-4.4-2.7-2 3.4z"/><desc>Drawing</desc><path fill="#1B448E" d="M183.2 155.6l-.2-.1-.3-.1-.4-.1-.5-.2-.6-.1-.8-.2-.9-.1-1.1-.2-.5-.1-.5-.1h-1l-.5.1-.5.1-.4.1-.4.2-.4.2-.4.3-.4.3-.3.3-.3.4-.3.4-.2.3-.2.3-.2.3-.1.3-.1.3-.1.3-.1.3v.9l.1.3.1.3.1.3.1.3.1.3.2.3.2.5.3.4.3.4.3.4.3.3.4.3.4.3.4.3.9.4.9.4.9.4.8.4 4.9-10.4z"/><desc>Drawing</desc><path fill="#1B448E" d="M137.8 252.3l-1-.9-.9-.9-.9-.9-.8-1-.7-1-.7-1-.6-1.1-.6-1.1-.5-1.2-.4-1.1-.3-1.2-.3-1.2-.2-1.2-.1-1.2-.1-1.3v-1.2l-1.6 1.4-1.4 1.6-1.2 1.7-1.1 1.8-.9 1.9-.8 2-.6 2-.5 2.1-.3 1.3-.2 1.3v2.6l.1 1.2.2 1.2.3 1.2.4 1.2.5 1.2.5 1.2 1.2 2.3 1.4 2.2 1.6 2.2 1-1 5-7.5 2.3-3.8 1.1-2 1.1-1.8z"/><desc>Drawing</desc><path fill="#1B448E" d="M388.3 170.8l1-4.7.7-4.5.3-4.2-.1-3.9-.1-1.8-.3-1.7-.3-1.6-.4-1.5-.5-1.4-.7-1.2-.7-1.1-.8-1h-.4l-.2.1-.3.2-.7.5-.8.7-1.8 1.9-2 2.2-3.7 4.3-1.2 1.4-.3.4-.1.1-8.5 12-3.9 6.2-3.6 6.3-3.3 6.4-2.8 6.6-2.4 6.7-1.8 7-.7 3.7-.2 1.9-.1 1.9v.9l.1.9.1.9.2.9.3.9.3.9.5.8.5.8.4.4.4.4.5.3.5.2.5.2.5.1.6.1.5.1h.6l.5-.1.5-.1.5-.1.5-.2.5-.2.5-.2.5-.2 1.1-.5 1.1-.7 1.1-.8 1.1-.9 2.2-2 2.1-2.3 2-2.5 1.9-2.6 3.4-5 4.3-7.9 4-7.9 1.8-4.1 1.7-4.1 1.5-4.2 1.4-4.1z"/></svg>