<svg xmlns="http://www.w3.org/2000/svg" width="247.87" height="247.87" version="1"><path fill="#e47e35" d="M0 0h247.87v247.87H0V0z"/><path fill="#f2a845" d="M0 0h247.87v247.87H0V0z"/><path fill="#fff" d="M222.9 162.55c.92-25.1-12.12-39.07-35.7-39.07-21.87 0-34.58 15.9-34.58 39.56 0 24.95 12.7 39.7 34.57 39.7h37.9v-14.4h-11.85c5.37-5.3 9.2-14.47 9.62-25.8zm-45.5.5c0-13.25 3.74-19.6 9.8-19.6 6.05 0 9.8 6.35 9.8 19.6 0 13.22-3.75 19.57-9.8 19.57-6.06 0-9.8-6.35-9.8-19.58m-101.1-.67c8.73-4.56 11.2-10.06 11.08-18.67-.14-11.08-8.05-19.08-24.18-19.08H24.73v78.2h39.14c13.56 0 25.4-7.43 25.4-21.92 0-9.6-4.65-15.9-12.96-18.53zM49.9 141.4H55c4.48 0 6.88 2.96 6.88 7 0 4.07-2.4 7.36-6.88 7.36h-5.12V141.4zm6.17 44.63H49.9v-15.8h6.17c4.54 0 7.28 3.2 7.28 7.74 0 4.55-2.74 8.06-7.28 8.06m97.53 16.57c-.7-4.63-3.2-9.9-7-15.62 1.56-1.48 3.14-3.04 4.77-4.74l-9.1-10.46-4.23 4c-2.25-2.62-4.7-5.3-7.3-8.04 7.87-5.1 11.58-10.2 11.58-18.3 0-8.08-8.16-15.56-21.27-15.56-13.73 0-20.76 8.47-20.76 17.62 0 5.3 3.2 9.92 6.84 13.97-6.86 4.4-12.77 10.2-13.24 17.7-.83 13.48 9.28 21.07 21.95 20.53 5.15-.2 10.98-2.05 17.7-6.3 1.08 1.97 1.86 3.75 2.13 5.2h17.9zm-31.92-57.36c3.44 0 5.96 2.5 5.3 6.02-.32 1.72-1.48 4.16-5.98 6.86-2.86-2.78-4.86-5.06-4.86-7.2 0-3.38 2.12-5.68 5.54-5.68zm-8.33 41.64c-1.92-2.03-2.9-7 3.6-11.14 2.68 2.98 5.85 6.65 8.83 10.4-4.98 3.32-9.14 4.23-12.43.74"/></svg>