<svg xmlns="http://www.w3.org/2000/svg" width="300" height="300" viewBox="-101.98 -101.46 300 300"><path fill="#faaf18" d="M121.17-57.68c.7-1.68-.7-3.34-.7-3.34S109.5-79.66 70.72-83.8C49.97-86 21.7-81.8 1.9-71.13-34-51.8-39.36-19.93-39.36-19.93c-.2.78-.55 3.16.26 4.17.82 1.03 2.02 1 3.5.5 12.67-4.27 50.42-16.8 74.25-23.1 33.9-9 61.76-14.47 79.64-17.52 1.2-.2 2.4-.63 2.8-1.8"/><path fill="#185494" d="M159.9 92.47c-20.3 45.57-59.24 77.3-110.27 78.02C12.48 171-20.3 158.2-44 136l-14.32 6.13.03-22.18c-15.6-21.02-24.6-47.64-24.6-77.9 0-77.45 59.4-138.52 142.1-138.52 13.5 0 25.7 2.1 34.9 4.18-14.1-4.5-28.2-7-43.9-7C-38.6-99.3-98.4-27.2-98.4 47c0 80.93 63.5 148.7 146.8 148.7 79.6 0 122.56-56.1 136.3-89.85L160 92.42"/><path fill="#ed1d21" d="M139.3 76.46c11.67-1.33 19.75-6.02 24.18-10.38 4.04-3.97 5-9.44 5-13.5.15-5.97 0-24.8 0-24.8l-30.92 6.7v7.2c.05 4.78 2.35 7.38 7.36 6.46 1.57-.25 3.98-1.02 3.98-1.02l.04 5.9c-.02-.17.46 3.3-7.33 4.83-10.1 1.6-14.8-4.67-14.9-15.76.2-11.9 6.9-18.8 15.1-20.6 9.2-2.1 14.4 0 17.4.5 10.2 1.5 13.1-13.8 3.8-17.4-6.9-2.8-15.8-3.3-24.3-1.6-11.4 2.3-33.7 11.8-33.8 42.7.1 24.5 18.2 32.5 34.5 30.7"/><path fill="#ee1c23" d="M38.82 102.8l10.3-3.55c7.62-2.63 10.4-7.17 10.37-15-.1-8.53-.2-25.13-.2-25.13l22 25.4c3.6 3.7 8 4.02 12.2 2.8 4.2-1.23 7.8-5.12 7.9-10.6V13.6s-5.7 1.2-10.5 2.55c-5.47 1.54-9.6 5-9.6 14.17l-.07 21.85S69.03 36.6 60.9 28.5c-4.34-4.34-11.52-1.76-11.52-1.76l-10.58 3.2.02 72.85"/><path fill="#ed1c23" d="M32.14 31.6s-6.64 1.94-12.04 3.9C13.08 38 9.04 42.07 9.04 52.7l-.02 60.54s6.15-2.1 11.88-4.26c8.14-3.08 11.22-7.27 11.22-15.82l.02-61.57"/><path fill="#ee1d23" d="M-.8 46c-6.1-2.78-11.34.3-13.56 3.72L-33.1 81.6l-.03-25.7-22.1 9.15-.05 72.64 15.55-6.6s3.06-.9 4.9-3.8c1.7-2.7 1.63-7.2 1.63-7.2l.02-23.07 17.4 18.44c3.8 4 10.82 6 17 1 5.6-4.5 4.74-12.2 1.62-15.65L-13 85.05S.94 63.1 3.22 59.45C6.24 54.55 4.72 48.55-.8 46"/><path fill="#faaf18" d="M-9.46 131.38c-.82 1.9 1.05 3.78 1.05 3.78 8 10.08 43.7 22.87 82.4 13.5 59.1-14.3 71.6-56.16 73.1-62.07.3-1.2.5-3.2-.6-4.3-1-1-2.3-1-4.1-.6-41.1 9.6-109.5 30.5-148.9 47.4-1.7.7-2.5 1-3 2.2"/><path fill="#ee1c23" d="M-44.55 36.18c-.06-4-3.17-6.2-8.55-3.5v12.88s1.73-.77 3-1.36c3.15-1.46 5.62-4.1 5.55-8.02m-8.65-11.64c.95-.37 1.66-.7 2.46-1.08 2.92-1.42 5-4.05 5-7.46.05-3.88-3.15-4.88-7.46-2.66v11.2zm22.77 9.8c.17 10.16-7.15 15.56-16.68 19.5l-19.6 8.3-.1-52.9s12.3-5 16.3-6.47c11.4-4.15 18.1.85 18.1 8.47 0 5.1-2.2 9.4-6.9 13.2 4.6.8 8.6 4.6 8.7 9.9z"/><path fill="#ed1d1f" d="M6.64-10.32c0-4.45-3.07-5.64-6.77-4.57-3 .9-6.5 2.3-6.5 2.3l-.02 32.9c-.03 3.3-.54 7.4-4.58 8.4-3.1.8-4.56-1.2-4.56-4.5v-27c0-4.4-3.1-5.8-6.8-4.6C-26.7-6-29.2-5-29.2-5s.08 23.3 0 32.6c-.03 10.9 7.5 16.36 18.97 12.97 10.1-3 16.9-8.64 17-23.2V-10.3"/><path fill="#ee1c23" d="M115.17 3.28c2.9-.63 4.73-2.7 4.73-6.26v-5.65l-15.83 3.46.03-9.32s7.77-1.6 9.92-2.1c2.7-.6 4.13-2 4.13-5.1 0-2.9-.02-5.4-.02-5.4l-14.03 3v-7.4l11.22-2.3c3.06-.6 4.08-2.7 4.08-5.6l.03-5.6c-7 1.3-20.3 3.9-28.6 5.8L90.7 8.9s15.8-3.72 24.47-5.6"/><path fill="#ee1d23" d="M23.63 1.33s7.84-4.05 7.75-10.46c-.07-5.5-5.12-4.3-7.74-3.33v13.8m0 7.43s0 9.24-.03 12.96c0 3.5-2.4 6.02-5.4 7.17 0 .12 0-.1 0 0l-7.9 2.72.1-49.67S21.5-21.9 28-23.42C38.1-25.78 45.3-21.17 45.16-13c-.06 7.8-4.4 12.52-8.3 15.76l8.5 8.24c2.65 2.54 2.83 7.16-.13 9.95-1.74 1.65-6.44 3.36-10.12-.4L23.7 8.78zm112.12-34.15c.02 0 7.73-2.94 7.65-9.13 0-5.3-5.2-4.3-7.6-3.8v12.8M122.9 1.8l.02-47.6s13.9-2.46 17.5-2.92c9.95-1.3 16.64 4.24 16.5 12.1-.05 6.9-4.4 11.07-8.08 13.57 0 0 6.78 7.64 8.6 9.66 2.44 2.8 2.33 7.4-1.3 9.7-3.56 2.3-7.1 1.1-9.12-1.2L135.78-18s.02 8.08 0 11.6c0 3.5-2.05 6.07-5.7 6.82l-7.3 1.42z"/><path fill="#ee1d23" d="M87.6-18.16l-19.74 4.48s-.02 2.1-.02 5.5c.02 2.54 1.8 4.2 4.4 3.67l2.9-.7.04 5.5c.02 2.1-3.23 3.6-6.6 3.5C63.84 3.7 61.2 0 61.15-7c.14-9.2 4.47-14.6 10.37-16.1 2.94-.75 5.62-.4 7.7-.1 5.08.82 8-1.63 8.1-5.83.12-4.5-3.87-7.28-12.44-6.98-18.57.6-28.06 13.9-28.06 29.9 0 16.3 10.65 23.5 23.65 21.1 7.35-1.5 11-3.9 13.54-6.1 2.6-2.2 3.6-5.6 3.6-8.4v-18.7"/><path fill="#fff" d="M9.88-71.5c-21.75 9.6-36.44 32.47-37.25 42.14-.32 3.85 4.78 4.4 5.26.3C-17.6-46.7-3.5-63.33 9.8-71.5m72.1 16.4c11.72-2.87 18.16-3.3 18.3-8.55.2-8.77-24.86-18.95-47.78-17.1C75.82-79.2 89.84-70.2 89.9-63.93c.05 3.96-3.4 7.46-7.97 8.84m7.28 194c17.6-6.9 34.6-20.1 43.9-39.9 2.7-5.7-5.1-8.6-7.3-1.9-5.4 14.1-16.7 30.7-36.5 41.9"/><path fill="#ee1d23" d="M177.88 79.36h2.4c1.3 0 2.96.24 2.96 1.8 0 1.74-1.2 1.98-2.8 1.98h-2.56v-3.78m-2.85 12.15h2.85v-6.1h1.8l3.5 6.2h2.98l-3.85-6.2c2.2-.12 3.8-1.2 3.8-3.8 0-3.12-2-4.25-5.6-4.25h-5.4v14.3zm-8.06-7.1c0 7.8 6.2 12.9 13.18 12.9 6.97 0 13.18-5 13.18-12.8 0-7.8-6.2-12.8-13.18-12.8-6.97 0-13.18 5-13.18 12.8zm3.5 0c0-5.8 4.28-10 9.68-10 5.32 0 9.68 4.2 9.68 10.1s-4.36 10.1-9.68 10.1c-5.4 0-9.68-4.2-9.68-10.1z"/></svg>