<svg xmlns="http://www.w3.org/2000/svg" width="1024" height="512" viewBox="0 0 1024 512"><path fill="#DA2127" d="M996.75 155.05c0-2.57-1-4.3-2.96-5.2-1.3-.63-3.6-.78-7-.78-3.5 0-5.8.15-6.9.7-2 .88-2.9 2.64-2.9 5.3 0 2.8.7 4.65 2.2 5.43 1.3.7 3.7 1.05 7.5 1.05 3.5 0 5.8-.3 7-.98 1.8-.98 2.8-2.82 2.8-5.54m0 12.9l.4-5.3h-.2c-1 2.38-2.8 4.1-5.8 4.96-1.7.5-4.4.7-8.1.7-5.7 0-9.9-.9-12.3-2.6-2.9-2.1-4.4-5.6-4.4-10.8 0-5.1 1.5-8.6 4.5-10.5 2.4-1.6 6.5-2.4 12.1-2.4 3.4 0 6 .1 7.7.5 2.6.7 4.5 2.2 5.6 4.2h.3v-5.5c0-3.6-.5-6-1.5-7.2-1.2-1.4-3.9-2.1-8.1-2.1-2.8 0-4.9.3-6 .9-1.6.9-2.5 2.5-2.5 4.9H968c0-5.5 1.9-9.2 5.8-11 2.5-1.2 6.82-1.8 13.32-1.8 7.62 0 12.82 1 15.45 2.8 3.16 2.1 4.8 6.6 4.8 13.4v26.3h-10.8l-.05.1zm-50-60.03h10.7v60.08h-10.7V107.9zm-19.9 39.17c0-6-.5-9.7-1.6-11.24-1.3-1.85-4.2-2.72-8.8-2.72-4.5 0-7.4.9-8.7 2.8-1.2 1.6-1.7 5.3-1.7 11.3 0 5.9.4 9.5 1.6 11.1 1.1 1.8 4 2.7 8.6 2.7 4.7 0 7.6-.9 8.8-2.6 1-1.5 1.5-5.2 1.5-11m10.7 0c0 8.6-1.2 14.2-3.5 16.9-2.7 3.1-8.6 4.7-17.6 4.7-8.9 0-14.8-1.5-17.5-4.6-2.3-2.6-3.5-8.2-3.5-16.8 0-8.5 1.2-14.2 3.5-16.9 2.7-3.1 8.6-4.6 17.5-4.6s14.8 1.5 17.5 4.7c2.3 2.7 3.5 8.4 3.5 16.9m-48.6 3.2c0 4.9-.8 8.7-2.4 11.3-2 3.2-5.3 5.1-10.1 5.9-2.1.4-6.7.7-14 1-10.8.4-18.1-1.2-21.7-4.9-3.3-3.3-4.9-9.5-4.9-18.7v-14c0-9.1 2-15.3 6.2-18.8 3.7-3.1 10.7-4.7 20.4-4.7 9.6 0 16 .7 18.9 2.1 4.6 2.3 7 7.3 7 15.2v3.3h-12.2V125c0-3.35-1-5.43-2.9-6.3-1.6-.8-5.2-1.16-10.8-1.16-6 0-9.9.8-11.7 2.5-1.8 1.7-2.7 5.36-2.7 11.2v13.3c0 6 .9 9.96 2.5 11.7 1.7 1.77 5.7 2.65 11.9 2.65 5.7 0 9.3-.4 10.9-1.2 2.3-1.2 3.4-3.7 3.4-7.7v-3.3H889v3.9-.1zm-79-8.3H832v7.7h-22v-8zm-16 13.1c0-2.6-1-4.3-3-5.2-1.2-.6-3.5-.8-6.9-.8-3.5 0-5.8.2-6.9.7-1.9.9-2.9 2.6-2.9 5.3 0 2.8.8 4.7 2.2 5.4 1.3.7 3.8 1.1 7.5 1.1 3.5 0 5.8-.3 7.1-1 1.8-1 2.7-2.8 2.7-5.5m0 12.9l.4-5.3h-.1c-.9 2.4-2.8 4.1-5.8 5-1.7.5-4.4.8-8.1.8-5.7 0-9.9-.9-12.3-2.5-3-2-4.4-5.6-4.4-10.8 0-5 1.5-8.6 4.4-10.5 2.5-1.6 6.6-2.3 12.2-2.3 3.5 0 6 .2 7.7.6 2.7.8 4.5 2.2 5.6 4.2h.3V142c0-3.6-.6-5.9-1.4-7.1-1.2-1.33-3.9-2.1-8.1-2.1-2.8 0-4.8.37-5.9.9-1.6.9-2.4 2.6-2.4 5H765c0-5.5 1.9-9.14 5.8-11 2.4-1.2 6.9-1.8 13.3-1.8 7.7 0 12.9 1 15.5 2.87 3.1 2.17 4.7 6.64 4.7 13.4v26h-10.7l-.03.06zm-36.6-16c0 6.8-1.7 11.3-5 13.6-2.7 2-7.8 2.9-15.4 2.9-8.3 0-13.8-1.6-16.5-4.9-2.2-2.8-3.5-8.3-3.5-16.5 0-8.1 1.2-13.5 3.5-16.3 2.8-3.4 8.3-5.2 16.6-5.2 7.3 0 12.3.9 15.1 2.7 3.5 2.1 5.2 6.3 5.2 12.6H746c0-3.2-.7-5.3-2.2-6.3-1.2-.8-3.7-1.2-7.3-1.2-4.2 0-6.96 1-8.06 2.9-.8 1.5-1.2 5.1-1.2 11s.3 9.4 1.1 10.8c1 2 3.78 3 8.2 3 4.2 0 6.7-.5 7.9-1.6 1.2-1 1.8-3.5 1.8-7.3H757zm-58.7-4.9c0-6-.6-9.7-1.6-11.2-1.3-1.8-4.2-2.7-8.8-2.7-4.5 0-7.4.9-8.7 2.7-1.1 1.6-1.6 5.3-1.6 11.3 0 5.9.5 9.5 1.6 11.1 1.2 1.8 4.1 2.7 8.7 2.7 4.7 0 7.6-.9 8.8-2.7 1-1.5 1.6-5.2 1.6-11m10.7 0c0 8.5-1.2 14.2-3.5 16.8-2.7 3.1-8.6 4.6-17.5 4.6-9 0-14.8-1.5-17.6-4.6-2.3-2.6-3.5-8.2-3.5-16.8s1.1-14.3 3.4-16.9c2.7-3.2 8.6-4.7 17.5-4.7s14.9 1.5 17.5 4.7c2.3 2.6 3.5 8.3 3.5 16.9m-48.6 3.2c0 4.9-.9 8.7-2.4 11.3-2.1 3.1-5.3 5-10.2 5.8-2.2.4-6.7.7-14 1-10.8.4-18.1-1.2-21.8-5-3.3-3.2-4.9-9.5-4.9-18.7v-14c0-9.1 2-15.3 6.1-18.8 3.8-3.1 10.7-4.7 20.5-4.7 9.6 0 15.9.7 18.8 2.2 4.7 2.2 7 7.3 7 15.1v3.3h-12V125c0-3.33-1-5.42-2.8-6.3-1.6-.8-5.2-1.14-10.8-1.14-6.1 0-10 .8-11.8 2.5-1.8 1.7-2.6 5.4-2.6 11.3v13.3c0 6 .9 10 2.5 11.7 1.7 1.8 5.7 2.7 11.9 2.7 5.7 0 9.3-.4 10.9-1.2 2.3-1.1 3.4-3.7 3.4-7.7v-3.3H660v4zM138.4 459s1 1.4 1.2 0c.2-1.37.3-6.5 7.2-5.48 2.33.26 2.5-.53 2.5-.53s2.62-2.5 6.36-1.9c.9 0 1.25-.5 1.25-.5s4.5-2.6 7.1 1.5c1 1.4 1.1 3.7 1.1 3.7s.7 1 1.4-.2c.7-1.3 1.8-7.9 7.4-7.7 5.6 0 5.7 4.3 5.7 4.3s0 .6 1.1.1c1.2-.5 4.7-2 7.5-.5.7.1.1-.5.1-.5s-1.3-1.3-.1-2.4c1.1-1 5.9-4.2 9-2 3.1 2.4 4.4 4.6 6.2 3.3 1.8-1.3 4.1-4.2 6.6-4.2s3.7 2.1 4.4 2.5c.8.4 1.1.4 1.9 0 .7-.5 1.8-3.2 4.3-3.2s5.1 2.9 9.3 2.4c4.2-.5 3.4-3.6 3.4-3.6s.2-4.5 5.4-2.8c5.3 1.8 8 6.2 6.6 7.8-1.3 1.6-2 2.6-.8 3 1.3.3 3 1 3.8 0 .8-1.1 1.6-2.2 3.4-2.8 1.8-.5.8-2.3.7-2.4-.1 0-1.9-2.8-1-4.1.9-1.4 3.4-1.7 5.5-2 2-.3 2.8-1.6 2.8-1.6s1.3-.5 3.9-.5c2.6 0 3.7-.5 3.7-.5s1.9-.7 4.7 1.1c1.2.6 2.1-.5 2.1-.5s.7-2.3 3.3-2.7c1.5-.1 2.8.3 4.6 0 0 0 3.2-.8 4.4 1.2 1.2 1.9 1.1 2.9 2.7 3 1.6.1 5.3-.3 7.2-2.2 1.9-1.9 2.4-2.6 3.4-2.6.9 0 .9-.3 3.6 2.5.8.4 2.6 0 3.8-.4 1.2-.4 3.7-1.2 6.2 0 2.5 1.1 5 .9 5 .9s1-.3 2.9 1.6c1 .6 1.5-.7 1.5-.7s.6-2.3 4.3-2.4c3.7 0 4.8 2.9 4.9 3.5 0 .7 0 2.5 1 2.2 1-.3 2.9-1.2 3.2-2s-.8-1-.8-1-4.9-1.9-2.6-6.6c1.8-2.6 7.2 3 5.1 5.3-1.3 1.5 0 1.3 0 1.3s1.6-.3 2.9-1.1c1.4-.8 4.2-2.6 8.7-1 1.8.8 3.1-.5 3.1-.5s2.1-2.6 5.3-3c3.3-.4 6.2-.3 8-1.1 1.9-.8 7.1-2.7 9.6-.9.7.5.3 2.4.3 2.4s0 1.1 1 1.8c.9.8 3.8 2.5 4.5 4.1.6 1.5 1.9.1 1.9.1s1.8-2.1 4.3-2.3c1.2-.4.8-1.7.8-1.7s-1.7-3-.2-5.1c1.6-2.2 3.7-3.8 7-1.2 3.3 2.6 2 5.6 1.7 6.3-.3.7-.7 2.1.1 2.1.8 0 4 .4 6.5-1.1 2.4-1.5 4-3.4 6.5-2.7 2.6.7 1 4.1 0 4.9-1 .7-.1 1.4.3 1.6 0 0 2.7.5 3.7 1s3.4-1.1 2.1-3.1c-1.1-2-3.5-2.4-3.1-4.8.4-2.4 7-8.4 10.5-6.6 3.1 1.8 4.1 7.9 4.1 7.9s.1.8 2.2 1c2.2.1 5 2.3 5 5.5.3 1.2.9.3 1.5.1.5-.3 1-1.5 3.8-1.8 2.3-.4 1.1-2 .7-2-.4 0-4.2.4-2.7-4.6s5.2-3 5.2-3 2 .7 2.5-1.3.5-4.8 4.1-5.1c3.6-.1 5.2 5.9 2.8 8.9-2.4 3-.6 3.1-.6 3.1s1.8.6 3.8.4c1.8-.1 6.1-1.9 8.1-.4 2 1.6 1.7 2.5 2.8 2.4 1-.2.9-2.2.9-2.2s.2-2.9 1.1-4.2c.9-1.4-.3-2.9-.4-2.9-.1 0-1.1-1.4.6-2.2 1-.7 1.8.5 3.1-.2 1.4-.7 2.5-2.5 4.6-2.6 2.2 0 3.2 1.3 4.4 2.7 1.2 1.4 2.5 1 3.3.8.7-.3 1.2-.3 2.7-.1.7 0-.1-1.5-.1-1.5s-.5-1.2.9-2.2c1.5-1.1 4.7-2.3 6.3-1 1.7 1.3 1.5 3 2.7 3.3 1.2.3 2.3.4 2.9 0 .6-.4 4.8-1.1 6.4 1.5.9 1.6.7 2.6 2.1 3.3 1.4.7 3.3 1 3.5 3.7.3 2.7-3.7 4.1-3.7 4.1s-1 .9-.1 1.3c1 .3 2.8.3 3.2-.1.4-.4 1.5-3.4 2.1-3.9.5-.5.6-2.9.6-2.9s1.6-3.2 5.4-2.4c2.3.3 2.9 3.1 4.9 3 1.5 0 1.2-.5.9-1-.4-.5-3.1-2.3-3.1-4.8s-1.6-3.1-2.8-1.8-3.6 3.3-5.7 1.2c-2-2.2-.2-4.1 2.7-5.2 2.9-1.2 2.9-2.2 2.9-2.2s1.5-2 5.2.1c1.6 1.3 2.3 1.4 3.3 1.5.9.1 3.8 1.5 3.8 5.1s1.6 3.8 2.4 4.7c.7.9 2.3 4.3 1.6 7.4-.5 1.4.5 1.9 1 2.1 0 0 3.3 1.3 2.9 5-.1 1.6.9 1.6 1.4 1.2.5-.4.6-3-.1-4.1-.8-1.2-4-3.9-4.1-6-.1-2.2 2.4-3.9 2.6-4.9.2-1-1.5-2.2-1.8-3.3-.2-1.1 0-2.2 2.4-3.9 1.1-1 .7-2.4.7-2.4s-.4-2.4 2-2.2c2.3.1 2.5 2 2 3.1-.4 1-.3 2 .5 1.9.8-.1 2.3-2 5.2-2 2.9 0 3 2 4.9 2.5 1.9.5 3.8.2 3.8.2s1.4 0 3.2 2.1c.9.8 2.1-.7 2.1-.7s.8-.9 2.8-.6c2 .4 3.2 2.2 4.1 4 .8 1.8 2.4 1.7 2.4 1.7s1.6.1 2.8.8c1.2.7 2.4-2.1 2.5-2.5 0-.4 1.3-7.1 5.7-9.2 4.4-2 5.4 3.8 4.4 5.3-1.1 1.5-.1 1.9.3 2 .3 0 2.5-1.5 3.9-1 1.5.5 3.5 2.4 4.3 5.3.7 2.9 1.4 2.5 1.8 2.5 1.5 0 2.8-2.5 4.2-3.5 1.3-1 .7-3.3 1.7-5.1.8-1.9-.8-6.9 3.4-7.6 3.2-.4 4.3 2.8 4.3 2.8s1.1.8 1.9-.2c.8-1 1-1.7 1.1-1.7.1 0 .3-1.3 0-1.9-.3-.4-.3-2.1 1.3-2.1s1.9 1.9 1.3 2.6c-.5.7.8 1.6 1.6 2.1.7.6 5 1.9 6.2 3 1.2 1.1 2.2.3 2.1-.4-.1-.7 1.1-6.2 4.2-7.2 3.1-1.1 5.2 1.4 6.7 1.6 1.5.1 3.2.4 3.8.3.7-.2 6.2-1.3 7.4 3.2.4 2-1.1 2.2-.4 3.9.4.2 1.4 1.3 2.5-.4.5-1.1-.9-2.9 3.3-4.9 2.9-1.3 5.1-.3 7.1 0 0 0 4.3.7 5.5.3 1.3-.3 4.2 1.5 2.4 4-1.8 1.7-.7 2 .1 3.3.9 1.4 1.1.9 2.1 2.8.9 1.9 2.3 1.4 2.3 1.4s1.4.1 2.1 2.5c.3.7 2-.1 2.8-.3 0 0 1.1-.1 1.7 0 .6.2.6-.3.7-.6 0-.3-.7-3.8.7-5.3 1.4-1.4 3.9-2.5 3.9-2.5.3 0 1.1-.3.5-1.3-.5-.9-2.6-5.5.8-7.2 3.4-1.7 5.8 2.1 5.1 4.4-.8 2.3-3.9 3.6-3.9 3.6s-.5.5.1.9c.5.4 2 0 2.3-.4.3-.3 4.6-.8 6.1.9 1.5 1.6 1.6 1.3 1.6 1.3.1 0 1.2.1 1.1-.8-.1-1-1.3-2.2-1-3.8.3-1.6 0-4-.7-4.5-.8-.5-1.4-2.5.7-3 2-.4 2.5.7 2.6 2.1.1 1.3 1.2.9 1.2.9s.4-.1 1 .5c.5.7 3.1-.3 3.3-.4.3-.2 3.4-2.3 6.7.1 3.3 2.3-.9 6.6-.9 6.6s-.8.5-1.1 2.4c-1 2.2-2.6.3-2.6 0 .1-.3 0-1.5-.5-1.6-.5-.3-2-.9-3.2 1-1.1 1.9 1.7 1.9 1.7 1.9s1.7 1.6 2.5 4.3c.7 1.5 1.4 1 1.5.2.1-.8.1-4.2 2.6-4.4 2.5-.2 3.9-.2 6.8 1.5s3.5 0 4-.7c.4-.7.8-2.5 5.8-2.4 2.1-.2 1.5-2.7 5.4-2.1 1.8.1 4-2.1 4.4-3 .4-.9 1.7-3.3 4.2-3.3 2.4 0 3.9.8 5.1 1.9 1.27 1.1 3.86-.2 4-.4.27-.2 3.18-.4 3.8-.2.7.1.8-1.4.5-2.6-.3-1.2 1.7-2.8 4-2 2.3.9 1.5 2.4 3.86 3.9 2.3 1.5 2.6 1.2 2.9 3.6.2.8 2 0 2.3-.1.3-.2.4-.4 1.3-.5.8-.2.9-1 .8-1.2-.1-.2.3-4.5 4.4-3.8 4.1.8 3.6 4.4 1.3 6.5-.6 1-.1 1.7.4 2.1.5.4 2.6 0 3.9 1.8 1 1.1 2.2-.5 6.7 1.6 1 .3 1.2.3 1.3-.9.1-1.2.3-1.5-.4-2-.7-.4-.8-1-.6-1.4.1-.4.6-1.2 2.4-.5 1.9.7 1.9-1.3 1.8-1.5 0-.1-.1-1.4-1.6-1.2-1.7.2-5.6-.7-5.3-4.3.3-3.6 7-6.3 8.8-1 .2 1.1.8 1.6 1.8 1.8 1.1.2 1.7 0 3.2.7 1.5.7 3.7.7 4.8-.5 1.1-1.1 1.4-1.2 1.7-2 .3-.8 2.8-2.7 4.7-.2 1.9 2.5.1 4.3-2.2 4.7-1.5.8-.2 2.6-.1 2.6 0 0 3.5 1.6 4.3 3 2 1.7 3.1-.9 3.1-.9s1.6-3 4.7-3c3.1.1 3.4 1.6 5.6.5 2.1-1.1 1.9 0 3.4-2.1 1.6-1.8 2.3-2.4 4.1-2.7 1.8-.1 2.1-1.3 2.1-1.8s-.6-3.1 3.3-2.7c3.9.4 1.7 4.6-1 4.5-2.7-.1-2.4 1.1-2.6 1.5-.2.4 0 2.4-1.4 4.2-.8 1.1 1.4.7 1.4.7s1.9-.2 3.5.8 3-.4 3.4-1.2c.5-.7 2.1-2.9 4.2-3 2.2-.1 2.7.5 4 .6 1.2 0 2.1.1 2.4-.6.4-.8 1.4-1.8 2.5-1.6 1.1.1 3.9 4.1 4.4 7.3 0 1.3.2 2.3.7 2.8.5.5 2.7.6 3.1-.6.5-1.2.5-3.4 5-4.2 1.5-.5 1.5-2.3 1.5-2.3s.6-2.5 4.2-2.6c3.6-.1 7.1 3.5 6.5 8.1-.4 2.7.8 3.3.8 3.3.1 0 1.1.8 1 2.7.1 1.9 1.1.2 1.4 0 .4-.3 1.8-2.4 1.3-4-.6-1.6-.3-3.4.1-4.4.4-1 .3-2.4 0-3.5-.3-1-.7-4.4 2.5-4.3 3.2.1 6.1 3.4 6.6 5.7.45 2.3 1.1.7 1.2.4.1-.2.8-3.2 4.1-3.2 1.7 0 2.6.8 3.95.9 1.4 0 2.4-1.1 3.1-1.4.7-.3 6.2-1.6 8.2 3.8.7 1.9 4.3 1.4 6.1 2.9 0 0 1.4 1.7 1.8-.1.5-1.8.7-3.2 5.8-4.2 5.2-1 6.16-.2 8.7 2.1 1.1 1.3 1.5-.3 1.5-.3s.2-4.4 3.1-4.4 5.2 3.5 4.7 6c0 1.4 1.6 1.6 1.6 1.6s2.3 1.3 3.7 2.5c1.3 1.2 5 .3 5.3-.5.3-.8.4-1.8-.7-2.2-1.3-.4-3.6-1.8-2.3-4.7 1.3-2.9 4.4-3 6-.3 1.6 2.7 3 .8 3.2.6.3-.2 1.9-4 4.9-3.2 3 .8 2.7 3.4 2.3 5.2-.2 1.1.5 1.3 1.6 1.5 1.1 0 3.5.7 4.7 2.5 1.2 1.8 4.7-.5 4.3-2.1-.3-1.6 1.8-8.1 9.2-5 4.6 2.6 2 11.9-3.2 10.9-3.7 1.6-.9 2.3-.9 2.3s4.7-2.9 8.8.8c2.5 2.64-.1 7.25-.1 7.25s.5 1.1 1.4 0c1-1.2 2-6 7.4-4.8 5.4 1.1 3.5 8.45-.1 10-1.4.9-.4 2.3-.3 2.4 0 .1 2.2 2.5-1.1 3.3-2.3.7-3-1.2-3-1.2s-.4-.6-.9 0c-.3.5-.9 1.2-1.6 1.56-.7.3-1.2 1.2-.1 1.7 1.1.6 3.4 3.7 0 5.4-3.2 1.7-5.2 0-5.7-2.4s-2.7-1.8-2.9-1.7c-.3 0-1.9 0-3.1-.6-1.3-.6-2.2 1.5-2.2 1.5s-1.6 3.6-4.3 3.5c-2.7-.14-2.4-1.8-3.6-1.8-1.3 0-1.6-.3-3.8.4-2.1.8-6.8.8-7.8-.2-.9-.9.7-1.4 1.5-2.25.9-.9 1.5-2.7 0-2.8-1.4-.1-4.4 2.8-4.5 3.2-.1.3-3.1 2.5-6.4 1.9-3.3-.6-4.9-1.6-5.1-5.8-.3-3.4-2.1-1.8-2.1-1.8s-2.2 5.5-9.8 6.9c-7.7 1.3-10.2.8-15.9-.8-1.8-.5-5 0-5 0s-3.6.7-6.6-3.7c-2.9-2.9-4.7-.1-4.7-.1s-.7 5-6 4.4c-5.3-.7-4.3-4.8-4.4-5.6 0-.88-.7-.88-1.5 0-.82 1-2.1 2-7.1 1.7-1.4 0-2.1 3.5-8 2.6-.7 0-1-.5-2.6-.5s-3.4-2.3-3.4-2.3-.5-.9-1.9 0-5.6 1-6.1-3 2.6-6 5.1-5.5c2.5.4 2.6-.8 2.3-1.2-.3-.4-.6-1.6-.4-2 .18-.4-1.3-1-1.5-.9-.2 0-2.6-1.1-4.02.6-.9 1.2 0 3.1-2.7 4.6-2.6 1.6-2.3.9-2.8 2.5-.4 1.6-.3 3.8-4.7 3.9-4.5.1-6.1-2.5-6.1-2.5s-1.25-1.6-2.5-.3c-1.3 1.22-3.9 5.8-7.6 5.5-3.8-.3-2.8-4.7-1.9-6.5 1-1.8-1.3-1.8-1.4-1.75 0 0-2.5.7-3.9.6-1.3 0-2.5 1.4-2.7 2.6-.1 1.2 1 2.8-2 4.3-3.1 1.5-6.1-3.6-6.1-3.6s-1.2-.7-4.3-.1c-1 .1-2-.6-2-.6s-1.1 1.2-3.8 1.5c-2.8.3-3.5-1.9-6.1-2.2-1 0-1.6 1.5-2.46 1.6-.9 0-1.3-.3-1.8-.9-.5-.5-1.95-.1-2.9 1-1 1.2-.2 3-2.9 3.7-1.8.4-4.7-1.3-4.7-1.3s-1.2-.9-3.1.3c-1.9 1.2-3.5.8-5.9-.4-2.4-1.3-2.7 0-3.2.2-.5.1-4.2 2.3-6.3-.5-1.4-2.1 1.5-6.6 4.4-8.2 0 0-.1-2.7.6-4 .8-1.2-.3-1.7-1.4-1.3-1.2.4-2.4.4-2.8 2.6-.4 2.2-3.2 2.5-5.7 5.4-1.5 1.9.4 4.2-4.2 5.8-3.7.5-5.9-3.5-4.8-6.5 0 0 .5-2.3-1.2-1.1-.9.9-.1 2.7-2.8 3.2-2.6.5-3.1-.1-4.2-.3-1.2-.1-1.6 1.1-1.8 1.4-.1.3-1.7 4.2-8.6 3.4-3.1-.3-5.6-2.8-5.6-2.8s-2.7-1.6-4.5 0c-1.8 1.7-.4 3.4-3.5 3.7-3.1.4-6-2.6-6-2.6s-2.5-1.8-4.4-.1c-1.8 1.6-.8 2.5-4.7 1.8-1.3-.3-2.4-1.4-3.4-1-1 .4-1 2.2-4.8.7-3.7-1.6-3.7-1.9-4.9-1-1.2 1-3.1 3.1-7.8 1.5-1.6-.4-3.6.3-3.6.3s-4.5.7-5.7-3.6c-.9-2.2-3.2-1.4-3.3-.8-.2.6-.9 4.2-3.6 4.3-2.6 0-3.1-.9-4.3-1-1.1 0-2.4 1.2-4.5 1-2.1-.1-3.7-3.1-3.7-3.1s-1.4-1.6-4.4 0c-3 1.8-6.9 4.2-9.2 2.7-2.4-1.43-3.6-1.1-3.6-1.1s-1.2 2.3-3.9 2.5c-2.7.2-3.7-2.6-5.5-2.02-1.8.6-3.5 1.5-5.2.5-1.7-1-.9-2.8-.5-3.7.3-.8.5-2.4-.8-2.2-1.3.2-3.3 0-4.1-.1-.8 0-3.2-.4-3.7 2.5-.4 2.8-3.6 5.7-9.7 4.8-5.3-.8-4.5-8-1.8-9.8.9-1-.8-2.3-2.2-1.5-1.4.8-2.5 2.2-5.9 2.5-2.2.3.3 1.1.3 1.1s5.3 1.3 4.1 3.9c-1.14 2.7-6.4 2.6-8.9.8s-3.2-1-3.6-.4c-.4.7.4 5.8-5.2 5.8-5.6 0-4.9-5.5-4.8-6 .1-.5-1.6-1.4-3.2 0-1.5 1.5-1.5 2.1-1.5 2.1s-.3 4.2-8.7 3.3c-4.3-.2-5.5-3.4-5.5-3.4s-2.2-1.5-2.8.6c-.6 2.1-.8 4.3-6.4 4.3-5.7 0-8.9-4.2-8.9-4.2s-3.5-1.5-5.8 0c-2.4 1.4-2 4.4-5.8 4.4-3.7 0-3.5-6.8-6.1-7.2-2.7-.5-3 1.3-3 1.3s-.1 3.3-3.7 3.9c-3.5.4-5.2-4-5.2-4s-2.6-.6-3.7-1.1c-1-.5-1.7-.5-2.1.4-.4.9-1.1 2.9-4.3 2.9-1.4 0-1.5 1.6-1.5 1.6s.3 2.5-3.2 3.7c-3.5 1.2-4.8-1.9-6-2.5-1.2-.5-2.6.4-2.7.5 0 0-4.7.3-5.5-1.5-.7-1.9 1.2-3.8-.3-4.1 0 0-1.9-1.2-2.4 1.2-.4 2.5.7 2.8.9 2.9.1.1 1.5 2-.9 3.5-2.3 1.4-4-1.5-4-1.5s-.9-3.2-4-2.1c-1.4.5-2.3 3.2-5.4 4.1-3 .8-2.8 2.8-6.4 1.74-3.5-1.1-2-4.9-2.7-5.3-.7-.5-.9-.8-2 0-1.2.8-1.5.8-2.6 1.3-1.1.4-.1 1-.1 1s.8 1.4-.7 2.1c-1.5.8-8.7 2.1-12-4.2-1.2-2.3-3.6-.1-3.6-.1s-2.8 1.4-3.6 2.4c-.8 1-2.8 1.3-5.3 1.3-2.6 0-6.8 2.3-6.8 2.3s-3.4 2.5-6.6.7c-3.1-1.7-2.46-2.3-5.2-3.2-1.3-.1-2.1-1.6-2.1-1.6s-1-.7-1.1.7c-.2 1.4.5 3.36-1.2 4.6-1.8 1.3-5.5 2.4-6.9-1.6-1.2-1.7-3.5-1.34-3.5-1.34-.15 0-1.6 0-2.3-.9-.7-.9-1.6.8-1.6.8s-.3 2-3.3 3.1c-3 1-4.56-1.3-4.56-1.3s-1.7-1.5-3.1.4c-1.5 1.97-1.2 2.8-3.6 3.8-2.4.9-5.3-2.2-5.3-2.2s-2.5-1.5-5 .9c-1.5 1.4-4.6.6-5.9.5-1.4-.2-1.6 1.7-2.9 2.1-1.2.4-3.3 1-5.8-1.9-1.7-.8-2.6 0-3.4.4-.9.5-2.5 2.5-7.7-1.04-1.7-1-4.3.4-4.3.4s-.9 1.3-2.7 1.2c-1.8-.2-1.8-2-3-2s-2.8 2-2.8 2-1.5 2.5-4.9 2.3c-3.5-.2-2.4-1.7-4.9-1.6-2.5 0-1.6 2.1-3.6 2.4-2 .4-13.7.45-9.7-6.4.8-1.7-.3-1.1-.4-1.1-.2 0-2.4 3.4-6.4 5.3-4 2-5.2.1-6.4 1.6-1.2 1.4.2 3.2-3.2 4.5-5.7 1.8-14.3-7.2-14.3-7.2s-2.1-1.5-3 .4c-.3.9-.4 1.9.2 2.6.5.7 2.6 2.75-.7 4.85s-4.8-1.8-4.5-3.9c.3-2.1-3.2-2.5-3.3-1.5-.3 1 .8 3.6-1.3 5.2-2.2 1.5-4.3 1.3-8.6 1.1-1.3 0-3 .7-3 .7s-1.9.2-3.7-1.8c-.8-.8-3 1.4-3 1.4s-1.6.8-4.6.3c-1.6-.1-2.4 1.7-2.4 1.7s-2.8 3.5-6.5.3c-1.4-.8-2.3.1-2.3.1s-1.5 1.5-5 1.4c-3.6-.1-5.6-1.7-5.6-1.7s-.6-.7-1.4.3c-.8.9-1.1 2.6-3.3 3.9-2.3 1.3-5 0-5 0s-1.1-.5-2 .1c-1 .7-1.6 1.4-3.9 1.5-2.1 0-5.7-.8-5.7-.8s-3.1-.6-4 .4c-.8 1-.9 2.1-4.6 2.2-3.6.1-3.9-1.9-5.1-1.8-1.1 0-6.6 1.46-9.4-3.5-1.2-2.2-2.2-1.24-2.2-1.24s-.83.6.2 1.43c1.1.9 2.5 3 1.2 5-1.2 2-3.4 2.2-5.8 2.3-2.4.1-3.5 1.1-3.5 1.1s-1.7 1-4.2.7c-2.5-.2-3.3 0-3.7.3-.5.4-2.7.9-5.4 0s-3.43-2.2-4.8-1.8c-1.3.4-4.3 2.2-7.4-.3-1.1-1.9-2.3-2-2.3-2s-7.6.2-6-4.4c1.1-1.9 1.7-2.4 1.7-2.5 0 0 .7-2.7 3.1-2 1 .4 1.1 1.5 2.26 1.1 1.14-.3 2.5-.7 2.1-1.3-.4-.7-.25-.9-1.5-.8-1.2.1-1.86-1.7-3.4-.9-1.6.8-1.7 1.8-4.6 1.9-2.24.3-2.34 1.9-5.1.3-2.7-1.6-4.4-4.9-3.2-6.7 1.14-1.8 3.9-.5 3.64-3.2-.2-2.7-.3-2.9.8-4.8.7-1 3-.7 3.9-1.7.9-1 .9-1.4.3-1.8-.7-.5-2-4.1.7-6.3 2.68-2.2 4.7-.8 6.1 1.2l-.2-.1z"/><path fill="#060709" d="M853.47 309.2c0 .1.08.17.08.33l-.16-.3zm-567.35 27.03c0-.78.16-1.5.32-2.27.08-.47.16-.88.3-1.34.1-.24.25-.4.33-.63.62-1 1.08-2.1 1.57-3.1.23-.6.54-1.2.8-1.8.08-.3.24-.7.4-.9.07-.2.4-.4.47-.7.4-.9.4-1.8.9-2.7.2-.4.3-.7.4-1.1.2-.7.2-1.4.6-2.1.2-.3.3-.6.5-1l.1-.1c.2-.5.5-.9.7-1.3.3-.4.5-1 .6-1.5h-.1c.7.1.7-1.5.7-1.9.2-1.9.4-4.1 1.8-5.4l.2-.2s.3-.1.4-.3c.7-.6 1.7-2.4 2.3-4.4l.1-.4s.3-.3.3-.5c.1-1.7.3-2.8.3-3.5-.1-.3-.3-.8-.2-.9l.9-1 .4-.5.6-.1c.2 0 .3-.1.5-.3 2.4-1.7 5.6-10.3 6.6-14.4l.4-1.6.9-1.3v-.2l.2-.4s0-.1.2-.2c.3-3.7 4.1-8.1 7.3-11.1 2.6-2.4 3.6-5 4.6-7.6 1.1-2.7 2.1-5.1 4.5-7.3l3.3-3 .3 4.5c.3 6.7-5.3 28.2-8.1 32.5-1.4 2.1-2.4 3.9-3.4 5.7-2.1 3.6-4 6.8-7.3 10-.8 1.2-1.8 2.3-2.9 3.5-1.4 9-11.4 24.3-18.5 31.9l-.9 1c-.9 1.1-1.7 2.1-2.6 3 0 0 0-.1.1-.2l-1 1 .8-6.5-.2-.2zm255.58 0c.24-1.14.4-2.36.47-3.15l.08-.47.32-.3s.07 0 .15-.2c.9-1.6 1.73-3.5 2.66-5.6l.24-.4.3-.3c0-.3.24-.7.24-.9 0 0 .08-.3.08-.4.08-.1.08-.4.16-.6l.23-.5.16-.3c0-.2.2-.4.3-.8v-.3l.1-.3c0-.4.1-.7.3-1.1 0 0 0-.1.1-.1v-.6l.1-.1.3-.5.1-.1v-.2c.2-.3.3-.5.5-.9.1-.1.4-.6.6-1.3v-.3l.1-.3c0-.4.1-1 .1-1.5.2-1.9.4-4.1 1.8-5.4l.2-.2h.2c.7-.6 1.7-2.4 2.3-4.4l.1-.4.1-.3v-.1c0-1.7.2-2.8.3-3.5-.1-.4-.3-.8-.2-.9l.9-1 .4-.4.6-.1c.1 0 .3-.1.4-.2 2.3-1.7 5.5-10.2 6.5-14.3l.4-1.6h.3c.2-.5.4-.9.4-1.2v-.1s.1-.1.1-.2l.1-.2h.1s.3-.2.3-.3c.3-3.7 4.1-8.1 7.2-11.1 2.6-2.4 3.6-5 4.6-7.6 1.1-2.7 2.2-5.1 4.6-7.3l3.3-3 .2 4.5c.3 6.8-5.4 28.2-8.1 32.5-1.4 2.1-2.5 3.9-3.5 5.8-2.1 3.6-4 6.8-7.3 10-.9 1.2-1.8 2.3-2.9 3.5-1.4 9-11.4 24.3-18.5 31.9l-.8 1c-.9 1.1-3.5 3.8-3.5 3.8l.7-6.5.4-.8zm315.9-17.72c-.15-1.5-.3-2.8-1.5-4.7-.32-.4-1.23-2.1-1.82-3.2-.63-.9-.7-1.1-.7-1.2-1.44-2.7-6.42-5.1-8.26-5.6-4.24-1.2-7.8-.4-11.26.5-1.53.3-4.94 1.2-4.94 1.2h-.3l-.24.1c-1.54.3-2.48 1.7-3.3 2.8-.3.4-.7 1.1-.88 1.2-.47.4-1.13.4-1.9.6-1.1.3-2.32.5-3.45 1.4-.88.6-1.48 1.5-1.93 2.3-.47.8-.78 1.3-1.2 1.4l-.62.2-.32.4-.47.7c-1.6 2.1-3.5 4.7-4 7.6-4.2 1.1-6.5 5.2-8.3 8.6-.7 1.2-1.3 2.4-2 3.3-.8 1-1.8 1.7-2.9 2.4-1.4.9-2.7 1.8-3.8 3.3l-.1.3v.2c-.3.8-.7 1.5-1 2.2-.3.3-.7.7-1.2.9-1.1.7-2.2 1.6-3 2.7-1.1 1.4-1.5 3.3-2.3 4.9-.4.9-.9 2-1.4 2.8-.5.8-1.5 1.4-2.1 2.1-.5.9-.7 2.3-.9 3.2-.1.5-.3 1.1-.4 1.6-.1.6-.1.9-.4 1.5-.1 1-1.3 1.8-2 2.5-.7.6-1.6 1.4-2.1 2-.7.9-1.1 1.9-1.9 2.7-.7.7-.9 1.4-1.4 2.1-.7 1-1.7 1.3-2.7 1.7-1.5.8-2.4 2.3-3.3 3.7-.6 1-1.3 2.7-2.2 3.3-.8.6-2.3.3-2.9 1.2-1.1-.7-2.4-.2-2.9-1.8-.4-1.1-.1-2.4.2-3.5.3-1.2.4-1.8.4-3.1 0-1.1-.1-2-.2-2.8 0-.7-.1-1.5-.3-2.3-.2-1.4-.4-2.9-.4-4.3 0-.6 0-1.3.1-1.9.2-.7.9-1 1.1-1.6.2-.5 0-1.2.2-1.7.7-1.8 1.1-3 1-5-.2-1.6-.3-2.8.3-4.3 0 0 1.4-4 1.6-6.6.3-.6.4-1.4.3-3.1l.2-2v-.4c1.4-3.1 2-11.9 2.3-15.2 0 0 .4-1.2.4-1.4v-2c0-1.9-.1-3.3.8-4.8 1.2-1.8 1-3.7.9-5.5 0-1.1-.2-2.2 0-3 .7-2.1 0-4.1-.4-5.9-.4-1.2-.7-2.3-.6-3.3 0-.2.3-.9.5-1.3.5-1.3 1.3-3 .4-4.8-.2-2-.9-3.8-1.6-5.6-.7-1.7-1.3-3.4-1.4-5l-.8-1.9-.4-.4s-.1 0-.2-.1c-.2-.3-.5-.9-.9-1.4-1.5-2.5-2.3-3.7-3.1-4.3 0 0-2.9-1.7-5.4-2.6l-1.9-.8c-1.6 0-3-.3-4.3-.6-2.8-.7-5.8-1.2-9.7.7-1 .4-1.9 1.1-2.9 1.7-1.1.8-2.3 1.5-3.4 1.7-.1.1-.3.1-.5.1-1.2.2-2.7.6-3.8 2-.2.1-.3.4-.5.7-.1.1-.3.6-.5.8l-1.2 1c-.3.1-.7.4-1.1.5-1.1.5-2.1 1-2.7 1.8-.4.5-.7 1.1-1.1 1.6-.5.9-1.1 1.7-1.8 2.5-.9 1-1.8 2-2.7 2.9-1.1 1.2-2.3 2.4-3.3 3.7-1.2 1.3-1.7 3.1-2.3 4.9-.9 2.8-1.6 4.6-3 4.7-6.4.4-9.7 5.8-10.3 11.2l-.5.8c-5 1.6-6.5 4.1-8.6 9-.8 2.3-2.8 4-4.9 5.9-2.6 2.3-5.2 4.8-6.2 8.3-.5 2.1-2.3 3.4-4.3 4.9-1.2.9-2.5 1.9-3.6 3.1l-.5.5c-2.5 2.7-3.9 4.3-4.5 5.7-1.6.5-3.7 3.1-3.8 3.1-1.1 1.8-1.5 3.9-1.8 5.7-.1.5-.1 1-.3 1.4-.3 1.2-.4 1.3-2.5 1.6-2.4.3-3.5 1.9-4.2 3.1-.4.8-.8 1.3-1.3 1.4-2.6.9-3.8 1.5-5.7 3.6-.8.8-1.4 1.2-1.8 1.4 0-.4.2-1 .6-2.1l.1-.2c.9-2.4.7-4.9.5-7.3 0-.9-.1-1.8-.1-2.7v-.6l-.4-.5c-.8-1.2.2-4 1.2-6.4.9-2.1 1.7-4.3 1.7-6.3.9-1.4.6-3 .4-4 0-.2-.1-.4-.1-.5-.1-1 .3-2.3.9-3.6l.2-.7c1.5-3.9 1.1-7 .7-10.6l-.1-.7c-.3-2.1 1-4.3 1.4-6.3.2-.5.5-1.2.6-1.7.1-.4.1-1 .3-1.5 0-.3.4-.4.4-.7 0-.3-.1-.6 0-.9.2-.8.4-8.4 1.2-11.6.5-2.8 1.3-5.6 1.2-8.6 0-1.5-.3-3-.5-4.5-.2-1.1-.3-2.2-.4-3.3-.3-2 .4-3.5 1-5.5.3-.8.5-1.5.8-2.4 1.1-4.2 1-8.3.8-12.4-.1-2-.1-3.9-.1-5.8 0-.7.2-1.5.4-2.3.1-1.1.5-2.3.4-3.5 0-1-.3-1.9-.4-2.8-.1-.9-.3-1.7-.3-2.4V247c0-1.1.1-2.2-.1-3.4-.1-.9-.5-1.5-.7-2.1-.2-.5-.5-1-.4-1.2l.1-.7-.4-.7c-.4-.7-.5-1.8-.8-3-.2-1.2-.3-2.57-.8-3.84-1.3-3-5.5-3.8-5.9-6.6-.5-3.9-12-7.02-16.9-2.7-2.5 2.17-3.3 5.3-4.9 7.77-1.6 2.6 1.8 5.2 2.5 8.2.2 1.1 1.1 2.4 1.8 3.3.3.4.6.4.7.9.1.3 0 .9.1 1.2.1.5.3.7.3 1.5-.1.97.1 1.8.4 2.6.7 1.8 1.1 3.3 1.4 5.3.3 1.8 1 2.8 1.6 3.55.1.4.5.7.7 1 .2.5-.2 2-.3 2.78l-.3.93c-.7 3.4-.1 4.7 1.5 7.2l.1.1c-.1.3-.5.7-.8 1-.7.7-1.5 1.6-1.8 2.7-.4 1.4-.3 2.6-.1 3.7 0 .6.2 1 .2 1.5 0 .8-.3 1.7-.5 2.6-.2.7-.4 1.4-.5 2.1-.5 2.8-.3 5.5-.1 8v.8c.1 1.5-.2 3-.4 4.6-.1 1.1-.3 2.2-.4 3.3l-.4 1.3c0 1.4.4 2.6.7 3.7.5 1.7.8 2.8.3 3.6-1 1.5-1.1 3.5-1.1 5.5 0 1-.2 3.3-.6 3.6-3.5 1.7-3 4.5-2.6 6.5.1.3.1.7.1.9v.2c.3 1.7.5 2.7.5 3.4v1.6c-1.1.8-2.7 1.8-3.4 2.6-.7.9-.5 1.8-.5 2.3 0 0-.6 2.7-.6 4.6-.3.2-.5.2-.8.4-.7.6-1.6 1.7-1.6 3.6-2.1 3.3-26.3 18.9-29.3 19.5h.4c-.4 0-.5 0-.8.1-3.9-.1-5.9 2.8-7.4 5.1-.6.9-1.2 1.8-1.8 2.3-1 0-2 0-2.9-.5-.1 0-.5-.1-.8-.1s-.5 0-.7.1c-1.6.7-3.2 1.7-4.4 2.9-.2 0-.3.1-.5.3-1.7.3-3.2 1.1-4.7 2-1.8 1-3.5 2-5.1 1.7-.3 0-.7 0-1 .1-.8 0-1.5.3-2.1.6-.7.4-2.2.6-2.2.6l-.2.1c-1.2 0-2.6.4-4.2.7-2.5.4-4.7.9-6.6 1-3.1.1-5.3-.5-6.1-3.1-1.2-4.3-.1-7.5 1-10.8.9-2.7 1.7-5.4 1.7-8.7.8-1.4 6.3-6.2 16.4-14.2 1.6-1.3 2.4-2 2.7-2.2 0 0 6.6-7.5 6.8-8.1.1-.1.8-.7 1-1 0 0 .1-.1.1-.2 0 0 .5-.5.6-.8 2.2-2 5.1-7 5.6-8.4 0-.1 0-.2.1-.3.3-.1.5-.2.6-.4.2-.2.5-.7.5-.7l.2-.2.1-.1s.1 0 .1-.1c.3-.3.7-1.1.7-1.1.1 0 .2-.2.2-.2 3.2-1.7 5.1-6.9 5.9-9.8 1-1.1 1.8-2.4 2.4-3.8.4-.4.6-.8.6-1.3 0-.4.3-.8.9-1.4.7-.6 1.1-1.4 1.5-2.4.1-.1.4-.5.5-.8.9-3.9 3.1-7.5 5.5-11.4 2.9-4.8 5.9-9.8 6.6-15.7 0-.3.3-.4.3-.7-.1-1.7.5-3.5 1-5.5.4-1.6.8-3.3 1-5 .2-.3.2-.7.2-.7 0-.2.4-.7.4-1 .2-.2.2-.4.4-.7.4-.4.5-.9.5-1.4 0-.7.7-1.9 1.1-3 .6-1.1 1-2.2 1.3-3.3.2-.3.4-.7.4-1.1V237c0-.3-.1-.4-.2-.7.1-2.5-.9-4.8-2.9-6.8-2.9-2.9-7.6-4.7-11.5-5.1-1.2-.2-2.5 1.1-3.6 1.3-4.4.7-7.7 1-11.3 4-1.1 1-2.2 1.8-3.2 2.7-2.8 2.2-5.3 4-7.9 8.1-.1 0-.1.1-.1.1-6.6 4.9-10.3 12.3-13.6 18.8l-2 2.5c-.4.8-1.2 1.7-2 2.6-2 2.1-4.5 4.8-3.8 8.77.1.6 0 .8-1.7 1.8-1.2.8-2.9 1.96-3.4 4.1-.2.16-.3.55-.3.9-.1 1.9-1.2 7.3-1.9 9.05-.8.4-1.6 1-1.9 1.4-.4.4-.6.9-.5 1.5 0 .6-.2.8-.9 1.6-.6.7-1.4 1.5-1.8 2.9 0 .1-.2.2-.2.2-.5 1.7-.9 3-1.1 4.1-.4 1.7-.7 3-2 5.4-.1.1-.2.3-.2.4l-.2.3s-.1.1-.1.3c-.1 0-.1 0-.1.1-.3.4-.6.9-.7 1.3-.1.3-.2.5-.2.8-.1.8-.9 2-1.7 3.2-1.6 2.5-3.3 5.2-2.3 7.9.8 2.3.8 2.3-.4 3.5-.4.4-1 .9-1.6 1.6-1.2.7-1.7 2.6-2.1 4.8-.1.4-.3.9-.3 1.3-.2.2-.4.4-.6.7-.3.9-.9 2.9-1.9 6.5-1.1 4-3.2 12.3-4.2 13.7-.4.3-.7.5-.8 1l-.3.7c-.7 2.1-1.3 4.3-1.2 6.7-.7.4-1.2.9-1.8 1.3-1.5.9-2.4 2.2-3.6 3.3-1.6 1.4-4 1-5.6 2.6-.6.5-1 1.5-1.5 2.3-.4 1-1.1 1.2-2.2 1.4-.1 0-.4-.1-.4 0-.2.1-.4.3-.5.4-.4.1-1.1.4-1.4.4-.9.1-1.8 0-2.7.4-1.3.5-1.9.8-2.7 1.9-1.6 2.2-3.8 4-6.6 4.3-1.8.1-3.9-.5-5-1.9-.9-1.22-1.3-4.53-.7-5.9 1.1-2.5 3.5-3.4.8-6.6 3.5-3.5 1.7-8.3 3-12.4 1.9-5.63 3.9-10.6 5-16.5 2.1-10.5 5.3-18.9 8.4-28.8 2.8-9.34 3.6-18.4 7.6-27.34 2.6-5.66 2.2-9.7 3.4-15.2 1.3-6 6-11.7 7.7-17.8.9-3.28-2-4.4.7-7.17 3.6-3.8 6.5-13.9 8-19.1.9-3.2-.9-7.2 1.6-9.7 3-3.1 3.7-9 4.5-13.1 1-4.9 3.5-8.6 4.4-14.3 1-6.4 11.3-19 7.7-25.9 6.7-15.1 12.8-31.9 15.5-47.8 2.7-15.6 20.1-32.1 17.9-47.9 3.9-9.5-16-8.3-19.9-7-5.7 2-5.9 5.7-7.8 11-2.7 7.6-5.2 15.3-7.8 22.9-3.7 11.1-6 23-9.5 33.8-1.6 5.5-6 12.1-6.3 17.9-.1 1.8-3.7 3.9-4.4 5.7-1.5 3.6-3 8.3-2.4 12.3-2.6 2.6-4.3 4-4.8 7.5-2.6 2.1-8.1 14.2-7.6 17.2-3.6 3.7-4.9 10.5-6.5 15.4-1 3.3-6.3 12.1-5.9 14.7v-.4c-1.7 8.2-8.7 10.2-11.6 17.5-1.4 3.6-3.2 6.9-5 10.3-1.7 3.1-3.6 6-5.2 9.2-.4 1.1-.9 2.2-1.4 3.3-.5 1-.6 2.2-1 3-.6 1.1-1.4 1.2-1.6 2.5-.2 1.1 0 2.2-.5 3.2-1.4 3.1-3.5 5.9-4.8 9-.5 1-.9 2.1-1.2 3.2-1.7 1.9-5 2.3-3.5 5.9-.8-1.9-7.5 13.1-8.2 13.8-4.9 5.2-5.3 14.6-10.7 19.5-2.3.7-6 3.4-6.3 6-.8 5.1-4 7.6-5.5 13-5.4 1.6-3.6 8-4.2 12.3-5 3.2-8 12-8 12l-5.4 5.7-5 4.4-2.3 5.3s0 2.7-.7 3.8c-.6 1.2-1.9 2.2-2.7 3.3-.7.9-1.7 1.8-2.7 2.5-1.2.9-2.7.4-4 1-.9.4-1.9 2.1-2.8 1.3-1.5-1.1-1-4.2-.9-5.7.2-2 .5-4 .9-5.9.9-5.3 2.3-10.5 3.7-15.7.7-2.7 1.4-5.3 2-8 1-4.4-.2-6.4 2.3-10.6 1.6-2.8 3.6-5.7 3.7-9.1.1-6.9-1.5-2.8 1.4-8.5.4-.8 4-6.8 4-7.5.2-10.8 5.9-22.2 8.4-33.1 1.1-4.9 2.6-11 4.1-15.7 1.2-4 5.2-8.3 5.6-12.3.4-3.7.1-4.1 2.1-7.6 2.7-4.7-.1-10.9 2.8-15.5 4.8 0 12.2-33 13.9-36.9 4-9 9.2-22 10-31.9.4-5 4.5-9.1 5.4-14.5 1.1-6.5 4.6-12.2 5-18.9.7-10.6 11.2-19.4 12.6-30.2 1.5-4.9-.6-11.3 2.3-15.7 4.8-7.3 6.3-14.2 9.5-22.4 4.88-12.3 17-31.4 7.5-43.9-1.82-2.4-9.2-2.1-11.9-2.1-9.3 0-9.6 6.6-14.4 12-6.1 7.2-2.3 15.3-6.3 22.7-4.1 7.4-5.6 17.6-7.5 25.5-.2.8-.5 1.6-.9 2.3-6.5 8.1-11.8 20.5-11.5 31.3-3.9 10.6-7.6 22.7-9.8 34.3-1.3 6.9-1.5 12.3-3.3 18.3-1.4 4.6-10.8 21.3-7.4 25.7 1.8 3.9-4 10.3-3.9 14.6.1 4.3-3.43 6.5-4.4 10-.6 2.4.7 5.3.1 7.7-2 7.1-15.4 19.1-9.53 26.8.4.4-1.6 3.2-1.8 3.6-.8 1.2-2.1 2.3-2.8 3.5-.5.9-.5 2-.7 2.9-.3.7-.63 1.4-1 2.1-.6 1.4-1.1 3-1.3 4.5-.2 2.3-1.1 4.7-2.5 6.6-.6.9-1 1.9-1.3 3-.4 1.3 0 2 .2 3.3.1.8-.2 1.6 0 2.4.1.3.5.9.5.9s-.3.8-.4 1.3c-.2.8-.2 1.5-.42 2.4-.2.8-.4 1.4-.5 2.2-.2.9-.9 1.7-1.1 2.6-.1.9.5 1.6.3 2.5-.1.9-.8 1.6-1.2 2.4-.6.9-1 1.7-1.5 2.7-.4 1-1 1.6-1.2 2.6-.2 1-.3 2.1-.3 3.1-.1 2.1.4 4.2 1.6 6-1.6 1.1-6.6 11.9-6.8 14.1-.1.7-.1 1.2-.3 1.9-6.5 4.4-4.5 8-7 14.9-4.1.6-5.4 1.5-5.6 3-.6.2-1.3.5-1.8.9-.8.5-1.6 1.7-1.7 3.6-2.2 3.3-26.3 18.9-29.3 19.5h.4c-.3 0-.5 0-.8.1-3.9-.1-5.9 2.8-7.4 5.1-.6 1-1.2 1.9-1.8 2.4-1 0-2 0-3-.5-.3 0-.6-.1-.8-.1s-.5 0-.8.1c-1.7.7-3.2 1.8-4.4 3-.2 0-.32.1-.4.3-1.7.3-3.2 1.1-4.7 2-1.8 1-3.5 2-5.1 1.7-.4 0-.7 0-1 .2-.8 0-1.6.4-2.2.7-.3.1-.6.1-.9.1-.3 0-.7.1-1 .3h.1-.5.6-.6c-.3 0-.5.1-.7.2-.4 0-.9.2-1.3.2l-2.6.5c-2.4.5-4.7 1-6.6 1.1-3.1.1-5.3-.5-6.1-3.1-1.2-4.3-.2-7.5 1-10.8.9-2.7 1.7-5.4 1.7-8.7.9-1.4 6.3-6.2 16.3-14.2l2.7-2.2h-.4c2.2-1.5 5.8-6.4 7.1-8.3.4-.3.7-.7.9-.9.1 0 .2 0 .1-.1.3-.1.5-.4.6-.8 2.26-1.9 5.1-7 5.67-8.4.2-.6.9-.7 1.16-1.1.1-.2.2-.3.2-.3.4 0 .7-.7.9-1 .5-.6 1.1-1 1.7-1.5.6-.6 1.1-1.2 1.6-1.9 1-1.5 1.6-3 2.2-4.6.3-.8.5-1.5.8-2.3 1-1.1 1.8-2.4 2.4-3.8.4-.4.6-.8.6-1.3 0-.4.3-.8.9-1.4.5-.5 1.1-1.4 1.4-2.4.3-.2.4-.4.5-.7 1-3.9 3.2-7.6 5.5-11.5 2.9-4.8 5.9-9.8 6.6-15.7.1-.3.3-.4.3-.7 0-1.7.5-3.5 1-5.5.2-1 .5-1.9.6-2.9l.2-1.4c.1-.4.1-1 .4-1.3v.1c.1-.1.4-.7.6-1 .2-.1.3-.4.3-.7.4-.4.7-.8.7-1.4 0-.7.6-1.8 1.1-2.9.6-1.1 1-2.2 1.3-3.3.2-.3.3-.7.3-1.1.2-3.5.1-7.1.1-10.5l-.08-2.8c0-.2 0-.4-.1-.7 0-2.4-.9-4.8-2.9-6.8-3-2.9-7.6-4.7-11.5-5.1-1.3-.1-2.6 1.1-3.6 1.3-4.5.7-7.9 1-11.4 4-1.2 1-2.2 1.8-3.3 2.6-2.5 1.9-4.8 3.9-6.7 6.4-.5.7-.9 1.4-1.5 2.1-.6.6-1.3 1-1.9 1.6-1.3 1.2-2.5 2.5-3.6 3.8-2.2 2.7-3.9 5.6-5.5 8.5-.9 1.6-1.7 3.2-2.5 4.9l-1.1 2.2c-.4.8-1.2 1.7-2.1 2.6-1.9 2.1-4.4 4.8-3.7 8.8.1.6 0 .8-1.6 1.8-1.3.8-3 1.9-3.4 4.1-.1.1-.3.5-.3.9-.2 1.9-1.2 7.3-1.9 9-.8.4-1.5 1-1.9 1.5-.4.4-.5.8-.4 1.4 0 .5-.2.8-.9 1.6-.4.4-.6 1-.9 1.4-.1.4-.4 1.1-.7 1.4-.2 0-1.2 3.9-1.3 4.4-.4 1.7-.7 3-2 5.4-.3.5-.6 1.1-.9 1.6-.5.8-.5 1.7-.9 2.5-.3.9-.9 1.7-1.4 2.5-1.5 2.4-3.3 5.2-2.3 7.8.9 2.4.9 2.4-.3 3.5-.4.4-1 .9-1.6 1.6-.3.3-.7.6-1 1-.3.5-.5 1.1-.6 1.6l-.5 1.9c-.1.5-.1 1.2-.4 1.7-.9 1.6-1.3 3.3-1.8 5-.1.7-.4 1.4-.5 2.1l-1.7 6.1c-.5 2-1.1 4-1.8 6-.1.4-.3.7-.4 1.1-.2.4-.6.7-.8 1.1-.3.4-.3.8-.4 1.1-.9 2.6-1.8 5.4-1 8.7v.1c0 .8-.1 1.3-.3 2.1-.2.6-.3 1.1-.3 1.7-.3.4-.4.8-.4 1.2v2.8c.2 6.4.3 15 6.9 18.8 1.2.7 1.5 1.8 1.98 3.6.56 2.2 1.3 4.9 4.56 6.7 1.65.9 3.5 1.2 5.1 1.4.4 0 .7.1 1.15.2.2.3.5.3.7.3.8.1 2 .2 3.3.2 1.5 0 3.6.1 4.4.4h.6c.3 0 .5 0 .7-.1h1.4c3.8 0 9-1.1 10.2-1.3 2.7-.6 5.5-2.3 8.1-4.2 2.2-1.4 4.5-3 6-3.1.4 0 .8-.1 1.1-.4 2.6-.7 5.4-2.6 8.1-4.6 2.4-1.7 5.5-4 7-3.9.4 0 .7-.1 1.1-.3 2.4-.5 4.4-2.2 6.1-3.9 1.6-1.5 3-3 4.6-3.1.3 0 .5-.2.8-.4 2.6-.7 4.9-3.3 7.2-6.3 1.7-2.1 3.7-4.5 5.1-5.1.6-.1.9-.7 1.2-1.3.6-1.3 6.6-6.8 8.1-7.8 1.1-.7 3-3 6.2-6.8-.2 1.9-.5 3.9-.2 5.6.8 7.3-3 9.9-3.8 16.7-.5 4-1 8-.9 12 .1 2 .1 4.1.6 6.1.4 1.6.4 3.3.9 4.9.4 1.6 1.4 3.4 3.1 4 1 .3 2.1.8 3.1.9.5 0 1.1-.2 1.7 0 .5 0 .8.4 1.3.5 1.1.4 2.3.5 3.4 1 1.3.7 2.1.9 3.5.8 1.2 0 2.4.1 3.5 0 2.3-.13 3.6-1.4 5.3-2.82 1.2-1 2.5-1.7 3.8-2.5 3.1-1.9 5.9-3.3 8-6.4 2-2.8 3.3-5.9 5.1-8.7 1-1.4 2-2.76 3.5-3.7 6.9-4.6 8.4-12 11.9-18.8 9.7-7.8 6.4-15.9 13.1-24.3 9.4-2.9 14.1-20.6 19.7-27.9 4-5.5 7-13 10.9-18.9 2.1-3.3.8-7.8 2.4-10.4.6-.9 2.8-.4 3.2-.9 4-6.8 11.9-16.7 12.1-25.1 2.7-1.9 4.5-3.6 4.8-7.16.5-6.6 6.7-11.6 10-16.7-.2 6.4-2.1 13.7-4.2 19.9-.7 1.5-4.1 1.6-5.1 3.2-1.7 4.3-6.1 10.3-3.45 14.4 4.2 6.5-5.6 13.8-7.7 19.5-2.1 5.3-3.3 10.8-2.4 16.2-2.04 4.8-6.4 8.1-7.3 13.7-2.1 2.8-1.6 7.6-3.2 10.8-3.6 7-1.9 13.1-3.8 20.1-1.6 5.8-6.9 11.8-4.13 18.3.4 2.4-.9 4.3-1.4 6.5-4.3 2.7.4 10.7.3 14.5-6.1 4.9 5.1 14.9 9.1 15.8 2.7 0 5.4.3 8.1.48 2.1 0 3.8-.7 5.8-1.2 4.8-1 9.5-2.6 13.2-5.9 1-.9 2.3-1.7 2.9-2.9.3-.6.5-1.2.9-1.8.5-.6 1.1-1.1 1.5-1.7.8-1.1 1.7-1.8 2.8-2.3.3-.2 1-.3 1.4-.4.9-.3 1-.2 1.6-1 .6-.9 1.08-1.9 1.78-2.7 1.2-1.5 3.3-2.5 5-3.3.8-.4 1.7-.6 2.5-.9.5 4.9 1.9 10 6.5 12.6 1.1.7 1.4 1.7 1.9 3.5.6 2.2 1.3 4.9 4.5 6.7 1.7.87 3.5 1.1 5.1 1.3.4 0 .8.1 1.1.2.2.1.5.3.7.3.8.1 2.1.15 3.3.15 1.5 0 3.6.08 4.4.4h.7c.1 0 .4 0 .5-.1h1.5c3.7-.1 8.9-1.13 10.1-1.4 2.7-.6 5.4-2.3 8.1-4.2 2.2-1.4 4.5-3 6-3.1.4 0 .7-.2 1-.4 2.6-.7 5.3-2.6 8-4.5 2.4-1.8 5.5-4 7.1-3.9.4 0 .8-.1 1.1-.3 2.4-.5 4.4-2.2 6.1-3.9 1.6-1.6 3.1-3 4.6-3.1.4 0 1-.4 1-.4 2.5-.7 4.8-3.3 7.1-6.3 1.8-2.2 3.7-4.6 5.1-5.1.6-.2 1-.7 1.1-1.4 0 0 .1 0 .1-.1 0 0 6.6-6.7 8.1-7.7 1.1-.7 2.9-2.9 5.9-6.5-2.04 8.1-3.2 16.1-3.3 22.9l-.4.4v4.6s0 1 .1 1l.8.5c.6.4.7.8.4 2.5-.1.8-.2 1.8 0 2.7.6 4.1 3.4 7 6.2 9.2.1 0 .5.6.8.8.1.2.3.9.5 1 .1 0 .3.1.4.1 2 1.6 5.8 2.7 5.8 2.7 1.6.3 3.7.6 5.8.3 0 0 2.3-.4 3.7-1.4 2.9-.2 4.7-1.8 6.4-3.3.9-.8 1.8-1.6 2.9-2.1 0 0 6.8-3.5 7.8-7.8 0 0 .1-.5.1-.7 0 0 .5-.2.7-.5.2-1.3 1.9-2.2 3.5-3.2 1.1-.6 2.1-1.2 2.9-2 2.9-2.7 4.9-5.1 6.3-7.4.5-1 1.6-1.9 2.7-2.8.5-.5 1.1-.9 1.5-1.4 1.1-1 2-2.5 2.9-4 .7-1 1.7-2.9 2.3-3.2l.5-.3.3-.4.3-.4c.4-.4.8-.7 1.3-1.1 1.3-1.04 2.6-2.15 3.8-3.5.6-.75 1-1.6 1.38-2.4.5-1 .9-1.9 1.4-2.1l1.4-1.5s0-.1.1-.2c.1 0 .1-.3.1-.3s.7-.7.7-.8v-.1s.54-.4.54-.5c.1 0 .1 0 .3-.1 2.6-1.5 3.6-3.84 4.3-5.8.7-2 1.3-3.1 2.6-3.6.9-.3 1.7-1.5 4.1-5l1.2-1.6c.3-.4.8-.8 1.2-1.1.9-.8 1.86-1.7 2.5-2.9.1-.2.7-.8.9-1.1.4-.4.7-.7.9-1.1l.5-.1.3-.5c.5-1 1.7-2.1 2.9-3.2 1.2-1.2 2.5-2.4 3.5-3.9 1.7-2.55 2.2-3.2 4.8-5.15 1.6-1.1 2.6-2.7 3.6-4.1.8-1.14 1.5-2.2 2.5-3l1.8-1.5c1.7-1.3 3.5-2.7 4.8-4.6 1.6-2.4 5-4.27 6.9-3.7.9.3 1.5 1.3 1.6 3.1.1 1-.4 1.9-.8 3-.55 1.43-1.3 3.1-1.1 5.2l.55 3.8c.3 2.1.7 4.03.6 6.3-.1 1.33-.7 3.1-1.3 4.8-.5 1.2-.9 2.4-1.2 3.6l-.3 1.5c-.33 1-.6 2.1-.8 3.2-.23 1.1-.1 2.1 0 3 .1.7.1 1.3.1 1.7-.1.5-.4 1.2-.5 1.8-.7 1.37-1.3 3-.9 5 .3 1.5.4 3.1.3 3.6 0-.1-.4.6-.5.9-.1.2-.4 3.3-.9 4.9-.2.9-.4 1.8-.7 2.7-.2.4-.2.7-.4.9-.6.9-1.3.9-1.3 2.1 0 1 .2 1.9.2 2.8 0 .9 0 1.7.5 2.4 0 .3.2.5.4.7.1 1.5-.8 6.6-1.3 9.7-.8 4.9-1 6.8-.9 7.8.2.9.4 1.8.7 2.5.3.6.4 1.1.6 1.7.1.4 0 .9 0 1.5-.1 1.1-.3 2.3.3 3.7.8 1.9 3.4 4.2 5.1 5 1.4 3 4.7 6.6 8.4 6.6 1.5 0 2.8-.7 3.8-1.2.8-.4 1.5-.8 2-.8.4 0 .6 0 1.5-.3.7 0 2.1-.4 2.6-.4h.2c.3 0 .4.1.7 0 .36-.1 1.66-1.3 1.66-1.3.4-.5 2-1.1 2.64-1.4.3-.1.7-.3 1-.5 1.8-.8 3.4-2.2 5-3.4.9-.7 1.8-1.3 2.7-2 1.84-1.2 3.4-2.7 4.9-4.1.8-.8 1.46-1.5 2.25-2.2.8-.7 1.6-1.3 2.6-2 1.8-1.3 3.7-2.7 5-4.7.7-1 1-1.9 1.3-2.8.4-1.3.5-1.8 1.6-2.3.4-.3 1.1-.6 1.6-.9 2.1-1 4.1-2 6.1-4.1.5-.5 1-1 1.6-1.5 1.6-1.4 3.1-2.9 4.2-5 .7-1.4 1.1-2.5 1.4-3.4l.6-.7c4.6-1.3 7.2-6.3 7.9-8 .6-1 5.3-7 6.6-8 2.7-.1 6.1-1.8 7.9-3.9.4-.4.7-.8 1-1.4.2-.3.6-1 1-1.4.5 1.2.8 2.4.7 3.2 0 .4-.2.8-.3 1.3-.4 1.3-.9 2.86-.2 4.6.2.5.4.9.5 1.3.6 1.1.7 1.5.4 2-.1.3-.3.66-.4.9-.6 1.3-1.4 2.7-1 4.77.3 1.2-.3 2.5-.6 4-.6 2.2-1.4 4.7-.2 7.4.7 1.7 1 7.4.3 8.6 0 0-.8.3-.8.4-.1.3 0 1.4 0 1.4l.1-.8c-.4.9-.1 1.6 0 1.9l.2.1c.1 2.9 1.3 5.1 2.5 7.3l.3.7c.7 1.1.7 2.1.9 3.4.1.8.2 1.7.5 2.8 1 3.2 3.1 4.6 5.1 5.6.1 0 .5 0 .9.3.3.1.8.3 1.2.5 0 0 1.1 1.1 1.2 1.1 0 0 0 .1.2.2l.6.4h.4c.2 0 .3.4.6.7.6.8 3.2 1.1 4.3 1.5 3.3 1.3 4.7.4 6.1-3.1 1-2.6-1.7-8.3-1.8-9.1-.4-1.9 0-4.3.3-6.5.2-1.1.3-2.3.5-3.4.3-3.2.4-6.3.5-9.4.1-4.2.3-8.6.8-12.9.4-3.3.8-7.1.1-11.1-.4-1.7 0-3.4.2-5.1.1-1.6.4-3.4.4-5.3-.3-1.6 1-8.8.7-11.1-.1-.4-.1-.8-.3-1.1m150-101.42c-.98-2.2-2.6-4.5-4.1-6.3-.4-.4-6.1-4.9-6.2-4.3-3-.9-5.8-1.2-8.6-1.5-1.8-.12-3.4-.4-5-.7-3.2-.52-5 .7-6.1 1.5-.7.5-1.1.7-1.6.8-.8.1-1.8 0-2.8-.1-2.4-.1-5.4-.3-7.9 1.5-1.2.9-2.3 1.9-3.4 2.95-1.8 1.5-3.4 3.1-4.9 3.4-1.1.1-1.9.1-2.7.3-1.8.1-3.5.3-6.4 1.7-1.2.6-2 1.1-2.6 1.5-1.2.7-1.2.7-2.8.7-3.7 0-6.5 3.1-8 6.3-1 2-.8 1.8-2.8 2.6-1.8.7-2.1 1.1-3.2 2.6-2.5 3.2-6.6 4.7-9.9 6.9-2.5 1.8-3.3 4-3.7 5.5-.4 1.4-.4 1.7-1.6 2.1-4.6 1.8-4.2 5.7-4 7.6.1 1.7 0 1.9-.3 2.2l-2.7 1.9c-3.2 2.1-6.8 4.6-8.6 9-4.4 10.4-6 15.52-6.6 18.32 0 0-.2 0-.3.1-3 2.1-6.8 9.9-7.8 13.9-.4.5-.6 1-.6 1.7 0 4.9-2.2 10.8-4.4 16.5-1.1 2.9-2.1 5.6-2.9 8.2-.8 2.9-.8 5-.7 6.7 0 1.9 0 3.2-1.1 5.5-.3.7-1.2 2.5-.6 4.4.4.9.8 1.5 1.3 1.83-.6.7-1.3 1.6-1.6 3-.7 3.4 1.7 5 2.6 5.5v.4c0 1.3-.7 3.3-1.3 5.3-1.3 3.9-2.6 8.4-.8 12 1.1 2.3 3.2 4.4 5.3 6.5 1.7 1.8 4.3 4.4 4.4 5.7 1.3 13.2 29.1 18.7 38.1 18.1l2.4-.2c12-.9 24.3-1.7 35.7-6.3 2.5-1.1 5.3-1.6 8.4-2.2 4-.8 8.1-1.6 11.7-3.6.7-.4 2-1.5 5.4-4.2.3-.2.6-.5.6-.5-.1 0-.3.1-.5.2 1-.4 1.6-1.4 1.6-2.5 0-1.6-1.3-2.9-3-2.9-2.5 0-13.7 1.2-29.2 2.9-7.8.9-16.8 1.9-17.9 1.9.2 0 .42 0 .7.1-.4-.1-.7-.2-1.1-.2-.4 0-.8.1-1.2.4-.17 0-.4 0-.6.1-1.2-.2-2.9-.4-4.3-.7-3.2-.6-5.2-.8-6.37-.8l-1.2-.3c-.6 0-3.5-.5-5-.9-.8-.2-1.3-.3-1.7-.3-.1-.1-.4-.2-.6-.2-.5-.4-1-.7-1.65-.7-6.5 0-12-6-16.6-12-.8-1-.3-5.5.2-7.7.4-3.5.7-6.1-.5-7.9v-3 .6c.2-.7 0-1.4-.2-2.6-.4-2.6-.6-4.3-.4-5.2.6-.1 1.1-.4 1.5-.8.5-.5.9-1.3.9-2.1 0-9.4 3.6-17.4 7.5-25.9 2.65-5.9 5.4-12 6.8-18.6.3-.2.5-.3.7-.6.2-.3.2-.6.3-.9 5.9-12.2 13.5-26.1 15.75-28.1 1.1-.4 1.9-1.4 1.9-2.6.1-4.5 5.1-7.7 7.3-9.1 1-.7 1.5-1 2-1.7 1.2-2 3-3.6 5.1-5.3 3.2-2.8 6.8-6 7.8-11.1 2.1-2.1 14.6-9.7 16.6-10.6.3-.1 1.8-.4 2.8-.7 5.3-1.3 8.1-2.2 9.5-3.8 1.2-1.46 5 .2 6.4 0 .9 0 1.6-.7 2.5-.86 1.1-.1 2.2.1 3.3.1 2.4 0 3.7.7 5.6 2.2 1.9 1.6 3.4 3.3 6.1 1.8 2.1-1.1 2.5-2.9 1.6-4.9m-149.4 42c-1.1-1.9.3-3.8 2.7-8.7 1.5-2.9-.5-5.3-1.7-7.5-1.2-2.1-1.4-6.3-3.9-7.5-2.3-1.2-5.8-.1-8.4-.4-2.9-.3-6-.3-8 .8l-1.8 1.2c-2.06 0-3.3 1.4-4.98 2.5-2.2 1.4-4.8 1.4-6 3.6-1.4 3-3.1 5.95-4.8 8.9-2 3.4-2.2 8.1-2.2 12 0 2.5 0 4.8.7 6.9.6 2.14.3 5.6 2.1 7.4 1.9 1.9 7 .3 9.8 1.9 2.7 1.5 4.5 4.7 7.4 4.54 1.5 0 4.9.7 8.7 0 2.6-.5 5.4-2.3 8.3-3.1 2.9-.86 4.8-3.6 7.1-4.9 3.1-1.6 7.2-2 7.4-4.5.1-2.1-.9-5.97-4.17-8.7-3.5-2.9-7.4-2.86-8.5-4.76m-601 13.4l.3-.15c1.25-.7 3.16-5.2 5.15-22.8l.4-2.9.3-.4c1.05-1.4 5.3-15.3 6.24-18.4 4.6-1.3 10.3-3.3 13.8-5.7 1.5-1.1 3.8-1.3 6.3-1.5 3-.3 6.1-.5 8.6-2.3 3.3-2.4 5.5-3.5 9.5-4.2 6.8-1.2 13.8-3.8 20.5-6.4 9.6-3.6 19.5-7.3 29.1-7.1 5.9.1 18.6-3.1 23.8-6.8 1.1-.8 1.7-.7 3.2-.3 1.2.3 2.7.7 4.5.16 1.2-.3 2.2-.8 3.2-1.3 1.3-.6 2.3-1.1 3.6-1.1 2.4.1 4.5-.9 6.4-1.7 1.7-.8 4.6-1.2 4.6-1.2l7.1-1.3.1-3s-6.1-3.4-11.4-2.63c-2.3.3-4.6.8-6.8 1.2-5.2.86-10.5 1.9-15.9 1.8-5.4 0-18.8.17-24.9 3.1-3.5 1.65-7.1 1.97-10.9 2.3-3.2.3-6.6.56-9.8 1.7-10.4 3.77-21.5 5.65-32.3 7.46-8 1.3-16.1 2.8-23.9 4.9l.4-1.4 1 .1s.3-.1.3-.2c1.8-4.1 5.3-14.6 4.1-17.2l-.1-.5.2-.9v.1l.6-2.9s7.9-14.4 11.9-22.6l2.3-4.6 2.6-5.2s5.4-10.5 7.5-16.7c2.3-6.7 5-18.5 5-18.5l.1-.4.4-.4c.8-.7 2.2-4.4 3.2-7.2l3.2-7.3 4.5-7.7 1-1.7c4.7-7.9 8.9-15.07 12.6-22.67 1.4-3.1 2.2-5.7 2.6-9.6l.1-1.2.7-4.2.8-1.8c.6-1.05.9-1.7.7-2.4l-1-2.5-.3-1.7-.3-1.4-2-2-1.1-.9-4.7-3.1c-.9-.3-1.2-.1-2.3.5l-.8.5-3.8 1.85c-2.7 1.2-4.9 2.2-6.5 4.7l-.8 1.2-1.5 3.1c-.3 2.3-.5 5.13-2.8 7.4l-1.7 1.9-2.1 2.4-1.5 1.4-2.5 2.56c-7 10.8-9.9 24.5-11 34.1 0 0-9.7 16.5-9.7 16.8 0 .4-3.6 12.7-3.6 12.7l-1 6.9c-.1.1-.6 5.5-.6 5.5l-7.5 8.8-4.2 6.6-.8.7s-5.7 14.8-7.1 22l-1.5 6.6s-.6.5-.7.7c-.6 1.3-1 2.9-1.1 4.7v.7l-.7.5c-2.6 1.8-7.9 14.4-11.5 23.4-1.6.4-3.5.5-5.4.7-4.1.2-8.4.4-11.8 3-2.7 2-6.3 3.3-10.1 4.6-3.3 1.1-6.6 2.3-9.4 4-.9.5-2.1.7-3.5.9-1.8.1-4 .5-6.4 1.8.3-1.1.5-2.7.3-4.8l-.1-1.5 4.7-13.4c.4-5.6 2.4-10.9 4.1-14.8l2.3-4.6 3.5-8.3 2.2-4.1c.9-1.2 1.7-2.2 1.9-3.9l.2-1.8c.4-3.1.7-6.2 2.6-9.4 2.2-3.8 2.8-7.4 3.5-11.6l.2-1.3c.4-2.3.9-4.7 2.2-6.6l1.1-1.4c1-1.3 2.2-6.1 2.2-6.1l.8-5 .4-2.6 1.2-4.8 2.5-3.6c1.6-2.2 3.3-4.6 4.1-7.1l-.1-1.3.7-4.3.5-.1c.3-.3 2.6-6.5 2.6-6.5.3-.4.4-.7.4-.7.2-.5.5-2.1.5-2.1s.7-2.8.9-2.9l.7-1.9s3.3-4.6 4.2-7.2l.5-2.1 1.7-4.4c1-1.3 1.1-2.2 1.1-3.8l.1-2.6c.3-2.5 1.9-4.4 3.2-6.1l1.5-2.1c2.6-4.2 3.3-9.1 3.6-13.6l.4-2.6.3-3.6s-.1-5.5-.6-6.2c-1.2-1.9-4.6-3.1-6.7-2.9l-3.4 1.3-1 1s-4.6 2.7-6.2 2.9l-2.5.4c-3.2 1.3-5.9 4.5-8.3 7.8-1.8 2.5-2.4 6.1-3.1 9.6-.7 4.3-1.5 8.9-4.7 11.8-1.3 1-1.3 1.4-1.4 2.7l-.2 2-1.2 2.7-.7 1.1-1.1 5.4c-.4 5.2-2 9.9-3.6 14.4l-1.1 3.3-1.6 2.5-1.1 1.4-1.6 6.5c-.9 6.1-2.9 10.1-5.6 14.3l-4.4 8-.4 2.8-.2 2.1-2.1 5.6-.7 1.4c-1.4 3.1-1.67 4.6-1.3 7.7.13 1.9-.7 3.4-1.6 4.7l-1.07 2.3c-1 5.7-3.6 10.1-6.2 14.7l-.9 1.5c-3.8 6.4-5.1 13.6-3.9 20.3.3 1.7-2 5.6-2 5.6l-.5 2.5-.5 2.4-.46 1.9c-1.2 4.3-1.6 5.6-2.5 6.2-2.3 2.3-2.8 5.7-3.4 9.4-.5 3.1-1 6.3-2.7 9.1l-2.7 2.9c-1.2 1.1-2 1.8-2.4 3.7l-.1.4c-3 1.8-6.1 2.6-9.9 2.7-2.4 0-3.8 1.6-4.9 2.7-.7.8-1.4 1.4-2 1.4-3.6.5-6.5 1.7-9.2 2.8-1.5.7-4.9 1.6-4.9 1.8.1.3-3.6 2.6-5 4.2-2.2 2.7-4.1 2.6-4.1 2.6s-21.2 8.1-21.3 8.2c-4.6 2.5-6.9 4.2-8 5.4-.3.1-.4.2-.6.4-2.1 1.7-8.5 6.3-9.7 6.7-2.7.5-4.2 2.2-5.3 3.6-1 1.1-1.7 1.9-3.1 2.3-4.1 1-6.7 2.5-8.9 3.8-2.3 1.4-7.9 3.3-7.9 3.3s-6.9 3.9-9.8 7c-1.8 1.9-3.5 3.7-5 4.6-2.7 1.5-5.8 3.1-8 5.3-.7.7-1.1 1.6-1.8 2.3-1.2 1.1-2.4.7-3.7 1.2-1.2.4-2.1 1.4-3 2.3-2.1 2-4.2 3.8-5.9 6.2-1.1 1.4-1.9 2.4-3.7 2.9-1.3.4-2.4.6-3.4 1.6-2 1.9-2.1 4.7-2.7 7.1-.7 2.7-2.3 5.1-2.7 7.9-.4 2.5-.5 5-.8 7.6-.2 2.2.2 3.9 1.5 5.8 1.7 2.5 4.6 4.5 7.6 4.3 1.5 0 2-1.3 3.1-2.2 1.3-.8 2.9-1.3 4.1-2.4 1.8-1.7 3.4-3.8 5.3-5.3 1.6-1.2 3.6-1.8 5.6-2.2 1.4-.3 3.6-.6 4.6-1.4.8-.6 1.5-1 2.3-1.6 2.4-1.6 3.8-3.7 5.9-5.7 1.8-1.7 4-3.4 6.1-4.6 1-.6 1.9-1.6 3-2.1.7-.3 1.6-.4 2.3-.7.6-.2.9-.7 1.4-1 .6-.3 1.3-.4 1.8-.7.6-.3 1.3-1.1 1.9-1.5 1-.5 1.6-1.4 2.4-2 1.7-1.3 4.3-1.2 5.7-2.8.8-.8.9-2.1 1.7-2.8.5-.5 2.5-1.4 3.3-1.6 1.8-.4 3.3-.4 4.9-1.5 1.3-.9 2.4-2.1 3.5-3.2 2.1-2.2 4.4-4.2 6.7-6.2 3.6-3.2 7.7-6.2 11.8-8.8 2.2-1.4 4.7-1.9 7.2-2.7 1.5-.4 4-2.1 5.5-2.1h.1l.5.1.8-.6c1.4-.7 2.7-2.2 3.9-3.6 2.1-2.3 3.8-2.9 6.6-4.2 2.5-1.2 5-1.6 7.4-3.2 2.3-1.7 4.3-3.1 6.9-4.3 2.4-1.1 4.6-2.6 6.9-3.6.6-.3 1.2-.4 1.7-.7l-2.3 9.7-.1 4-1.5 2.7c-1.4 2.2-2.1 3.6-1.5 5.1.8 2.1-.2 3.3-.9 4.2l-.6 1-.55 2.7-.3 2.1c-.5 2.2-1.94 3.8-3.4 5.3-1.3 1.3-2.4 2.6-2.8 4.1l-.7 3.5c-.5 3-1.03 6.1-3.1 9.3-2.6 4.1-2.94 9.3-3.3 14.3l-.7 7.2-.7 2.9c-.7 2.7-.5 12.1-1.33 13.3-.6.7-.9 1.2-.9 1.6-.5 4.5-2.5 7.5-4.3 10.4-1.7 2.5-3.2 4.9-3.9 8.1l-1.5 5.5c-.9 2.9-1.8 5.7-1.9 8.8-.4 6.2.3 10.7 2.3 15.8 3.1 8.5 18.1 6.2 24.8 3.8 2.9-1.1 3-2.4 3.2-5.1l.2-2.4c0-.1-.7-9.2 1.4-11.6.6-.8.6-4.3.6-4.3l2.8-10.4c.1-2.5.2-5.1 1.1-7.6 0 0 3.3-14.1 4.1-15.3.6-1.1.6-2.2.6-3.5v-.7l.9-5.6 2.8-3.9s3-6.3 3.27-8.4l.9-5.2 2.5-6.7.2-2.9.7-4.6 1-3.6 1.5-5.1 1.2-4.5c.3-2 .6-4.4 2.1-6.5 1.2-1.7 2-5 1.6-7.1-.6-3.3 1.1-5.1 2.5-6.6.8-.9 1.8-7.1 1.8-7.1-.4-2.8-.8-5.9 1.2-8.3l1.2-1.3 1.2-1.6.5-2.5 1.7-4.9c.8-1.4 1.6-3.1 2-4.9 7.1-2.4 14.3-6 18.8-11.5 1.1-1.1 8.6-2.15 11-2.5 3.7-.5 5-1.8 5-1.8l-.2.3s7.4-4.65 12.4-6.26c.7-.2 1.4-.5 2.16-.7l-.5 5.4-.5 5.8c-.1.9-6 7.1-6 7.1s-3.3 11-4.5 17.1l-.9 7s-.9 8.5-2.5 12.7l-.7 1.4c-1.93 4.9-4.3 10.9-5.42 17.2l-.4 3.7-3 15.3c-1.9 7.6-3.9 12.8-6.4 16.2-2.5 3.3-4.2 8.1-5.5 15.2l-1.3 8.4-.1 1.2-.8 3.7-.8 4.2v8.1c.1 6.5 2.1 12.3 4.2 18.5l.2.8c.8 2.3 1.5 3.8 3.6 4.8.9.4 3.7 0 5.6-.7 2.4-.8 4.5-2.5 6.1-4 2.9-2.7 6.5-6.3 7.9-10.2.7-2 .7-4.1.7-6.4V384c.2-5.2 1.4-10.3 2.8-15.4l1.6-5.4 2.4-8.9 1.8-11.8 1.7-11.4 1.9-7.5 2.2-9.1 3.2-19.2.2-.4 1-1.5s3.5-7.46 4.4-12c.9-4.26 1.7-8.2 3.2-10.6l.2-.4.3.6zm7.3-26.8v.1-.1z"/></svg>