<svg xmlns="http://www.w3.org/2000/svg" viewBox="0 0 306 44"><path d="M186.8 14.15c0-2.42-3.9-2.6-5.6-2.6h-5.13l-3.5 12.5h3.83l1.1-4.4c3.88 0 9.3-.38 9.3-5.5zm-4.4 1.78c-.45.86-1.67 1.4-2.63 1.4h-1.34l.84-3.72h1.05c.95 0 2.24.3 2.24 1.5l-.17.9zm-17.54 4.55h5.23l.7-2.6h-5.3m58.7 1.56l-.5-7.9h-5.5l-3 12.5h3.03l2.27-8.94.5 8.94h3.6l4.9-8.94-2.03 8.94h3.4l3-12.5h-5.58m-35.55 0c-3.24 4.07-6.13 8.4-9.3 12.5H188l2.4-3.56h4.83l.54 3.55h4.45c-.28-.27-2.4-11.32-2.5-12.5h-5zm-.8 6.25l2.5-3.5.5 3.5h-3zm17.55-6.3h-4.2L202.5 24h10.22l.68-2.7h-6m-92.33-4.6l-.6 2.7h1.6l-.45 1.9c-.25.26-1.32.34-1.7.34-1.67 0-3.22-.54-3.22-2.48 0-3.2 2.86-5 5.85-5 1.48 0 2.68.42 4.1.7l.45-3.04c-1.6-.08-3.15-.58-4.8-.58-4.85 0-9.7 3.06-9.7 8.22 0 2.98 2.38 4.84 5.32 4.84h2.1c1.7 0 3.48-.3 5.14-.52l1.6-7.08h-5.68zm-40.5-2.52c1.1 0 2.05.35 3.08.43l.33-2.9c-1.1-.1-2.3-.4-3.4-.4-4.82 0-9.57 3-9.57 8.1 0 3 2.7 5 5.6 5h1.5c1 0 2.2-.1 3.1-.3l1-3c-1 .2-2 .5-3 .5h-1.5c-1.4 0-2.5-1.26-2.5-2.6 0-2.9 2.7-4.7 5.5-4.7zm76.2 9.83h10.82l.5-2.7h-6.6l.5-2.2h5.6l.5-2.6h-5.57l.5-2.2h6.6l.7-2.6h-10.8m-2.2 0H139l-.54 2.66h4.08l-2.27 9.85h4.08l2.36-9.87h4.1m-63.3-2.9c-4.8 0-9.7 3.13-9.7 8.27 0 3 3 4.8 5.8 4.8h1.7c3.7 0 7-2.3 8.2-5.6.2-.56.5-1.2.5-1.8v-1.4c0-3.08-3.83-4.3-6.4-4.3zm2.2 5.95c0 .1-.2.7-.2.8-.4 1.55-1 2.5-2.6 3.1-.3.1-.8.3-1.2.3h-1.2c-1.4 0-2.5-1.3-2.5-2.6 0-2.63 2.2-4.7 4.8-4.7 1.2 0 1.9.4 2.6 1.26.2.2.2.46.4.9v.9zm45-5.7h-5c-2.8 4.2-6 8.45-9.2 12.5h4.5l2.4-3.56h4.9l.6 3.57h4.4c0-.45-.3-1.3-.4-1.75-.5-2.34-2-8.75-2.1-10.8zm-5.7 6.2l2.4-3.5.7 3.5H129zm-27.3-6.24h-4.1l-2.92 12.5h10.1l.66-2.7h-6m165.04 2.7h4.1l2.94-12.5h-4.1m17.73 0l-6.1 9.3-1.18-9.36h-4.3c.14 3.2 1.5 6.4 1.8 9.6l.35 2.9h4.9c3.06-4.1 5.8-8.5 9-12.5h-4.46zm-26.6 0h-4.1l-3 12.5h10.2l.5-2.7h-6m32.5 2.7h10.8l.66-2.7h-6.7l.5-2.23h5.6l.55-2.7h-5.55l.56-2.24h6.6l.7-2.66h-10.8m-47.3-.25c-4.54 0-9.6 3-9.6 7.97 0 3.18 2.6 5.1 5.76 5.1h1.68c3.8 0 8.67-3.3 8.67-7.36v-1.4c0-3.1-3.83-4.3-6.4-4.3zM242.4 21.5h-1.13c-1.05 0-2.45-1.07-2.45-2.16v-.9c0-1.3 1.5-3.3 2.7-3.84.58-.26 1.38-.37 2.02-.37 1.08 0 2.1.4 2.86 1.9-.02.22.1.56.1.84 0 2.1-1.8 4.5-4.1 4.5z"/><path fill="#007AC2" d="M2.47 17.08s.4-14.32 16.76-14.52H31.5L28.77 14.7l-10.13.03c-3.37.02-4.02 2.8-4.02 2.8s-.18 2.92 3.05 3.25h9.73l-2.8 12.34-5.68.02C1.94 32.8 2.47 17.08 2.47 17.08zm54.32 0S56 2.76 39.7 2.56h-5.22L31.75 14.7l8.55.03c3.37.02 4 2.8 4 2.8s.2 2.92-3.02 3.25H30.36L25.63 41.3l11.56.02 1.9-8.2.9.02c17-.34 16.8-16.06 16.8-16.06z"/></svg>