<svg xmlns="http://www.w3.org/2000/svg" width="1000" height="351.146"><defs><clipPath id="a"><path d="M0 127.42V-.543h595.32V127.42" clip-rule="evenodd"/></clipPath><clipPath id="b"><path d="M0 127.42V-.543h595.32V127.42" clip-rule="evenodd"/></clipPath><clipPath id="c"><path d="M0 127.42V-.543h595.32V127.42" clip-rule="evenodd"/></clipPath><clipPath id="d"><path d="M0 127.42V-.543h595.32V127.42" clip-rule="evenodd"/></clipPath><clipPath id="e"><path d="M0 127.42V-.543h595.32V127.42" clip-rule="evenodd"/></clipPath><clipPath id="f"><path d="M0 127.42V-.543h595.32V127.42" clip-rule="evenodd"/></clipPath><clipPath id="g"><path d="M0 127.42V-.543h595.32V127.42" clip-rule="evenodd"/></clipPath><clipPath id="h"><path d="M0 127.42V-.543h595.32V127.42" clip-rule="evenodd"/></clipPath></defs><g fill="#0082a2" clip-path="url(#a)" transform="matrix(7.6178 0 0 -7.66066 -182.937 435.028)"><path d="M61.962 29.553c-.525 4.053-3.825 6.23-7.8 6.23-5.852 0-9.003-4.504-9.003-10.058 0-5.48 2.92-9.907 8.77-9.907 4.8 0 7.8 2.927 8.25 7.655h-2.55c-.23-3.152-2.1-5.478-5.48-5.478-4.5 0-6.45 3.602-6.45 7.955 0 3.978 1.95 7.656 6.45 7.656 2.62 0 4.8-1.35 5.32-4.053h2.474zm16.73-13.285h2.25v6.155c0 3.452 1.35 5.554 4.95 5.554v2.4c-2.4.076-3.9-.974-5.026-3.226h-.075v2.93h-2.1V16.27zm19.503 7.055c0-2.702-1.05-5.328-4.126-5.328-3.16 0-4.36 2.476-4.36 5.178 0 2.627 1.12 5.18 4.2 5.18 2.92 0 4.27-2.478 4.27-5.03zM87.543 11.015h2.25v7.13h.075c.975-1.65 3-2.177 4.426-2.177 4.2 0 6.306 3.302 6.306 7.205 0 3.828-2.105 7.205-6.38 7.205-1.876 0-3.602-.675-4.352-2.176h-.075v1.876h-2.25V11.015zm27.377 12.158c0-4.053 2.25-7.205 6.68-7.205 4.35 0 6.68 3.152 6.68 7.205s-2.33 7.205-6.68 7.205c-4.43 0-6.68-3.152-6.68-7.205zm2.33 0c0 3.378 1.95 5.18 4.35 5.18 2.32 0 4.28-1.802 4.28-5.18 0-3.302-1.96-5.178-4.28-5.178-2.4 0-4.35 1.876-4.35 5.178zm12.45-6.905h2.25v7.806c0 2.477 1.35 4.278 4.13 4.278 1.72 0 2.77-1.05 2.77-2.702v-9.382h2.25v9.082c0 2.927-1.12 5.028-4.72 5.028-1.95 0-3.53-.825-4.5-2.476v2.176h-2.18v-13.81zm23.03 4.428c-.37-1.8-1.65-2.7-3.52-2.7-3.01 0-4.36 2.1-4.28 4.502h10.28c.15 3.302-1.35 7.88-6.23 7.88-3.75 0-6.45-3.002-6.45-7.13.15-4.203 2.17-7.28 6.6-7.28 3.08 0 5.25 1.65 5.85 4.728h-2.25zm-7.8 3.828c.15 2.102 1.57 3.828 3.9 3.828 2.25 0 3.9-1.726 3.98-3.828h-7.88z"/></g><g fill="#0082a2" clip-path="url(#b)" transform="matrix(7.6178 0 0 -7.66066 -182.937 435.028)"><path d="M65.938 23.323c0 2.552 1.35 5.03 4.276 5.03 3 0 4.2-2.553 4.2-5.18 0-2.702-1.274-5.178-4.35-5.178-3.075 0-4.126 2.626-4.126 5.328zm10.652 6.755h-2.25v-1.876h-.075c-.75 1.5-2.476 2.176-4.35 2.176-4.277 0-6.377-3.377-6.377-7.205 0-3.903 2.1-7.205 6.3-7.205 1.426 0 3.452.526 4.427 2.177h.075v-1.802h2.25v13.735z"/></g><g fill="#1b2044" clip-path="url(#c)" transform="matrix(7.6178 0 0 -7.66066 -182.937 435.028)"><path d="M46.134 37.658h6.527c6.31 0 9.08 3.528 9.08 9.907 0 6.155-3.22 9.082-9.07 9.082h-6.53v-18.99zM48.61 54.47h4.276c4.65 0 6.376-2.702 6.376-7.205 0-7.055-4.65-7.505-6.45-7.505H48.61v14.71zm14.628-16.812h2.25v13.735h-2.25V37.658zm2.25 18.99h-2.25V53.87h2.25v2.777zm.9-18.99h2.7l3.827 5.704 3.825-5.704h2.926l-5.326 7.43 4.726 6.305h-2.7l-3.45-4.803-3.302 4.803h-2.85l4.725-6.53-5.11-7.205zm12.078 6.83c0-3.978 2.325-7.205 6.676-7.205 4.35 0 6.677 3.227 6.677 7.205 0 4.053-2.33 7.205-6.68 7.205s-6.68-3.152-6.68-7.205zm2.4 0c0 3.378 1.95 5.254 4.276 5.254 2.4 0 4.276-1.876 4.276-5.254 0-3.302-1.875-5.178-4.276-5.178-2.325 0-4.276 1.876-4.276 5.178zm12.003-6.83h2.32v7.73c0 2.478 1.27 4.354 4.05 4.354 1.72 0 2.77-1.126 2.77-2.777v-9.307h2.25v9.007c0 3.002-1.12 5.028-4.73 5.028-1.95 0-3.53-.75-4.43-2.476h-.076v2.176h-2.17V37.658zm12.75 4.278c.15-3.377 2.78-4.653 5.85-4.653 2.78 0 5.85 1.126 5.85 4.353 0 2.702-2.25 3.453-4.5 3.903-2.1.52-4.5.82-4.5 2.4 0 1.42 1.58 1.8 2.93 1.8 1.5 0 3.07-.6 3.22-2.33h2.25c-.22 3.3-2.62 4.28-5.62 4.28-2.4 0-5.18-1.13-5.18-3.9 0-2.63 2.25-3.38 4.5-3.91 2.25-.45 4.5-.75 4.5-2.55 0-1.73-1.87-2.03-3.3-2.03-1.87 0-3.6.6-3.67 2.62h-2.33z"/></g><g fill="#0082a2" clip-path="url(#d)" transform="matrix(7.6178 0 0 -7.66066 -182.937 435.028)"><path d="M102.02 16.268h2.25v7.806c0 2.477 1.35 4.278 4.05 4.278 1.73 0 2.85-1.05 2.85-2.702v-9.382h2.25v9.082c0 2.927-1.12 5.028-4.72 5.028-1.65 0-3.6-.675-4.35-2.326h-.08v7.28h-2.25V16.268z"/></g><g fill="#0082a2" clip-path="url(#e)" transform="matrix(7.6178 0 0 -7.66066 -182.937 435.028)"><path d="M34.507 54.77c1.425-1.35 2.7-2.85 3.826-4.578.225.15.375.225.6.376v6.154c-1.575-.45-3.076-1.126-4.426-1.95z"/></g><g fill="#1b2044" clip-path="url(#f)" transform="matrix(7.6178 0 0 -7.66066 -182.937 435.028)"><path d="M24.08 22.498v-6.23c1.5.526 3 1.126 4.426 1.952-1.5 1.35-2.776 2.852-3.826 4.578-.225-.15-.45-.225-.6-.3z"/></g><g fill="#1b2044" clip-path="url(#g)" transform="matrix(7.6178 0 0 -7.66066 -182.937 435.028)"><path d="M33.082 36.608l.075-.526c.075-3.227 1.425-6.23 3.75-8.406 1.35 2.777 2.026 5.855 2.026 8.932 0 9.306-6.076 17.412-14.853 20.114v-6.154c5.476-2.477 9.002-7.88 9.002-13.96z"/></g><g fill="#0082a2" clip-path="url(#h)" transform="matrix(7.6178 0 0 -7.66066 -182.937 435.028)"><path d="M26.105 45.39c-1.35-2.778-2.025-5.855-2.025-8.932 0-6.455 2.925-12.46 7.95-16.512l.076-.075c2.1-1.65 4.35-2.85 6.827-3.6v6.23c-.975.45-1.95.98-2.85 1.65-3.826 2.85-6.153 7.43-6.153 12.24l-.073.15v.08c0 3.38-1.35 6.53-3.75 8.78z"/></g></svg>