<svg xmlns="http://www.w3.org/2000/svg" width="400" height="124.03" viewBox="0 10.28 400 124.03"><path fill="#00539B" d="M327.98 134.3c34.25 0 62.02-27.75 62.02-62s-27.77-62.02-62.02-62.02H72.02C37.76 10.28 10 38.05 10 72.3s27.76 62 62.02 62h255.96z"/><path fill="#FFF" d="M327.03 126.88c30.12 0 54.53-24.4 54.53-54.53 0-30.12-24.4-54.54-54.53-54.54H72.73c-30.1 0-54.52 24.5-54.52 54.6s24.5 54.5 54.6 54.5h254.3z"/><path fill="#00539B" d="M327.3 115.38c23.82 0 43.1-19.3 43.1-43.1s-19.28-43.1-43.1-43.1H73.15c-23.8 0-43.1 19.3-43.1 43.1s19.3 43.1 43.1 43.1H327.3z"/><path fill="#FFF" d="M72.2 53.83h1.22c3.42 0 4.48 1.24 4.48 4.9v19.03c0 3.66-1.06 4.9-4.48 4.9H72.2V53.82zM54.44 42.8v8.97c1.83.77 1.94 2.24 2 4v24.58c-.05 1.7-.23 3.25-2 4v8.97H76.7c4.8 0 9.26-.3 12.86-3.72 3.83-3.6 4.07-7.42 4.07-12.37V58.3c0-4.82-.4-9.4-4.54-12.66-3.6-2.77-8.6-2.83-12.9-2.83H54.4zm62.48 26.47h-5.43v-1.4c0-1.48.2-3.78 2.7-3.78s2.7 2.3 2.7 3.7v1.4zM97.6 79.77c0 4.47.16 8.6 4.05 11.5 3.06 2.3 8.78 3.23 14.44 2.82 5.7-.5 11.4-2.2 14.4-4.8V80h-13.9v1.36c0 1.88-.2 4.06-2.6 4.06s-2.7-2.4-2.6-4.25v-3.4h19v-8.8c.22-9.06-3.1-13.6-16.8-13.54-13 .05-16.45 4.12-16.2 14.26v10zm36.17 13.55v-8.96c1.9-1.18 1.7-3.06 1.7-4.95V56.8c0-1.88.2-3.77-1.7-4.95v-9h19.15v8.98c-1.88 1.2-1.7 3.08-1.7 4.96v25.8h1.53c4 0 3.94-2.5 3.94-5.6v-8.2h13.8v24.5h-36.8zm54.28-23.7c0-2.05-.35-5.53 2.65-5.53s2.6 3.5 2.6 5.5v10.7c0 2 .16 5-2.66 5-2.77 0-2.6-3.1-2.6-5.1V69.6zm19.15-.1c0-4.7-.3-9.2-4.78-11.9-3.24-1.9-8.9-2.18-12.66-2.18-4.2 0-8.73.35-12.1 3-3.46 2.7-3.52 7.08-3.52 11.08v9.67c0 4.9 0 9.4 4.53 12.4 3.25 2.2 8.67 2.5 12.5 2.5 4.24 0 9.2-.4 12.56-3.3 3.35-2.9 3.47-7.6 3.47-11.7v-9.7zm18.62-11.02c3.77-2.55 7.07-3.2 10.02-3.07 2.88.1 5.42 1.06 6.83 2.47 2.54 2.4 2.83 5.13 2.83 8.3v13.92c0 1.82-.17 3.88 1.65 4.9v8.3h-14.78c-.83-3.78-.77-7.72-.77-11.55V70.93c0-.24.17-1.95-.42-3.3-.94-1.42-2.47-2.48-4.77-1.42v14c0 1.9-.1 3.9 1.8 4.9v8.3h-17.4v-8.3c1.9-1 1.7-2.7 1.7-4.6V69.1c0-2 .1-3.3-1.7-4.6v-8.3h15.1v2.3zm44.3 24.4c-.7.4-1.7.64-2.46.64-2.83 0-2.83-3.24-2.83-5.25v-8.2c0-2.2 0-4.6 2.77-4.6.9 0 1.82.3 2.53.7v16.7zm15.63-26.7H270.5v2.1c-2.66-2-5.9-2.87-9.2-2.87-8.3 0-10.37 5.06-10.37 13.13v13.97c0 8.14 4 11.56 11.02 11.56 2.64 0 5.7-.9 8.18-2.8v2.3c0 2.1.36 5.8-2.7 5.8-1.12 0-1.77-.6-2.18-1.4-.36-.9-.42-1.9-.42-2.8h-12.9v8.9c5.42 3 10.08 3.95 16.26 3.95 4.2 0 9.6-.54 12.7-3.65 3.2-3.1 3-8.8 3-12.94V69.1c0-1.9-.1-3.48 1.7-4.6v-8.3zm19.45 1.65c3.2-1.9 6.48-2.54 9.43-2.42 2.9.1 5.42 1.06 6.84 2.47 2.53 2.4 2.83 5.13 2.83 8.3v13.92c0 1.82-.18 3.88 1.65 4.9v8.3h-14.8c-.82-3.78-.76-7.72-.76-11.55V70.93c0-.24.1-1.95-.5-3.3-1-1.42-2.5-2.48-4.8-1.42v14c0 1.9-.2 3.9 1.7 4.9v8.3h-17.3v-8.3c1.8-1 1.7-2.7 1.7-4.6V56c0-1.87.1-3.88-1.8-4.88v-8.3H305v15.03zm39.72 22.27c0 1.88-.17 3.77 1.77 4.9v8.3h-17.4v-8.3c1.8-1.13 1.7-2.78 1.7-4.67V69.4c0-1.9.2-3.78-1.7-4.9v-8.3h15.6v23.9zM329.9 48c0-4 4.12-5.66 7.54-5.66 3.47 0 7.48 1.9 7.48 5.9 0 3.88-3.95 5.7-7.37 5.7-3.65 0-7.66-1.75-7.66-5.94zm-230.53.5h29.96v2.58H99.37v-2.6z"/></svg>