<svg xmlns="http://www.w3.org/2000/svg" width="300" height="190.805"><defs><clipPath id="a"><path d="M34.937 755.276h61.725v39.29H34.937v-39.29z"/></clipPath></defs><g transform="matrix(4.8635 0 0 -4.8635 -170.015 3864.226)" clip-path="url(#a)"><path d="M86.817 772.665c-.225-.204-.957-.597-1.71-.648.8 1.337 1.676 2.357 2.183 2.89.594.626.654.038.654.038.097-1.14-.76-1.976-1.127-2.28m1.35 3.644c-1.32.98-3.568-1.94-4.588-3.38-.13.75.41 1.69.41 1.69s.86 1.38.98 1.67c.12.28.2.87.06.93-.12.06-.35-.12-.35-.12-1.88-1.59-2.19-3.4-2.19-3.4-.21-.98-.02-1.67.26-2.16-1.07-2.15-1.66-4.01-1.54-5.13.08-.86.69-1.49 1.05-1.63.36-.17.45.28.45.28.35 2.17.93 3.96 1.55 5.35l.06-.02c1.89-.48 3.38 1.31 3.91 2.19.68 1.12.74 3.07-.09 3.71m-26.45 4.9c.39.57.94.83 1.59.87-.85-.56-1.46-1.28-1.78-1.75-.13.17-.1.45.18.87m.9-1.49c.66.91 2 1.99 2.85 2.11.49.05.64-.14.66-.35.02-.22-.08-.45-.08-.45-.8-1.51-2.49-1.53-3.45-1.32m1.54-1.12c1.46.44 2.92 1.82 2.96 2.96.06 1.14-1.22 1.18-1.22 1.18h-.04c-.23.7-1.53.65-1.53.65-2.71-.14-3.67-1.99-3.79-2.48-.13-.43-.08-1.05.42-1.55-.16-.41-.04-.59 0-.7.04-.14.27-.57.53-.55.18.02.32.14.57.54.53-.24 1.15-.37 2.09-.09m17.51-6.86c.1.35-.2.73-.49.81-.27.06-2.33-.26-2.57-.32-.26-.06-.14.18-.14.18s.2.65.33 1.01c.69.02 1.5.04 2.25.09.26.02.28.22.28.22s.04.3.04.59c-.02.3-.26.29-.26.29-.42.06-1.12.07-1.81.06.14.33.25.63.3.8 0 0 2.08.04 2.87.2.41.08.18.49.18.49-.46 1-1.04.96-1.04.96-1.63.1-4.01-.26-4.27-.38-.25-.1-.23-.29.08-.7.16-.21.37-.3.55-.36.08-.03.19-.05.33-.08-.12-.21-.31-.59-.5-.99h-.02c-.41-.03-.55-.15-.55-.15-.17-.18-.07-.61.01-.84.02-.06.04-.1.07-.13l-.02-.03c-.1-.25-.76-1.57-.27-2.43.53-.89 1.18-.87 1.18-.87 1.24-.13 3.32 1.11 3.44 1.54m-36 3.22s-.39.43.2.69c.52.22 1.67.48 3.63.58-.1-1.21-.19-2.55-.2-3.75-1.25.53-2.58 1.27-3.64 2.47m9.16 8.03s-6.14 3.39-11.32 1.77c0 0-.33.02-.63-.4-.3-.41-.57-.69-.42-1.02.14-.32.94-.49 1.65-.29 0 0 .33.2-.08.34-.39.14-.61.18-.61.18s-.2.04.02.14c.21.1 2.57.79 6.68-.42 4.11-1.19 9.62-4.7 9.35-8.18-.27-3.48-5.73-3.47-5.73-3.47s-1.12-.02-2.61.31c0 .7.07 2.78.12 4.27 2.11-.05 4.21-.5 4.37-1.02 0 0 .1-.25-.39-.47-.45-.18-.8-.33-.44-.51 0 0 .53-.26.88-.24.33.02 1.2.38 1.31 1.32.12.95-.95 1.83-2.6 2.18-1.26.27-1.93.36-3.07.35.02 1.04-.08 2.34-.3 2.64-.27.41-.57.96-.84.37-.22-.51-.43-1.63-.53-3.12-1.76-.23-3.71-.91-4.32-1.62-.66-.79-.05-1.47.01-1.53.04-.08 1.26-1.96 3.98-3.3.04-.49.12-1.04.3-1.34.4-.66 1.2-.23 1.3-.13.08.08.14.28.18.77 1.22-.36 3.46-.76 5.87-.11 3.65.99 4.22 3.21 4.37 4.53.14 1.34-.75 4.85-6.51 7.97m8.6-6.61c-.02.47-.18.69-.32.89-.12.21-.32.47-.67.19-.33-.28-.41-2.12-.49-3.6-.09-1.47-.04-2.4.14-2.65.18-.27.85-.39 1.18-.17.3.22.23 2.42.23 2.42s-.04 2.44-.06 2.91m7.48.66c-.47.55-3.1.53-3.1.53-.95-.06-3.17-.38-3.52-1.38-.33-.96-.07-1.3-.07-1.3.27-.51 2.16-.54 2.67-.58.53-.04 1.9-.25 2.36-.54.47-.31.14-.65.14-.65-.81-.85-3.46-.93-4.13-.5-.27.16-.33.36-.04.65.29.31 1.16-.18 1.06-.14-.1.06.42-.31 1.16-.35.75-.04 1.28.22 1.32.49.04.24-.63.51-.63.51-2.22.69-3.12.19-3.12.19-1.24-.73-.37-1.77-.37-1.77 1.91-2.17 5.01-.91 5.38-.6.35.28.51.61.56 1.48.04.85-.33 1.24-.33 1.24-.61.81-2.38.85-2.91.9-.49.02-1.5.2-1.75.27-.24.06-.08.24-.08.24.23.3 4.75.48 4.75.48.47.04.53.33.63.51.08.18.02.3.02.3m3.89 1.23s-.29.14-.37-.15c-.086-.29.015-.59.015-.59.65-2.47.77-3.92.77-3.92s.02-.43-.06-.45c-.06-.04-.12.02-.12.02-.085 0-.836 1.34-.836 1.34l-.14.27c-.77 1.443-1.34 1.914-1.34 1.914-.12.12-.426.45-.83.02-.41-.42-.756-1.83-.92-3.15-.146-1.324-.09-2.08.09-2.403.21-.33.61-.45.96-.19.37.267.35 2.017.435 2.91.08.9.16.736.16.736.08.02.47-.82.47-.82s1.01-2.24 1.685-2.59c.67-.35 1.24.16 1.467.65.23.49.64 2.12.15 3.95-.49 1.84-1.59 2.43-1.59 2.43m-11.44-10.3l-2.82.004c-.2 0-.35-.15-.35-.34 0-.19.15-.35.34-.35h.77c.147 0 .26-.12.26-.26v-2.955c0-.21.17-.37.37-.37s.37.16.38.37v2.95c0 .15.12.26.26.26h.77c.19 0 .34.15.34.34 0 .18-.15.34-.34.34m8.98-1.42c0-.43-.35-.71-.88-.71l-1.1.01v1.16c0 .14.12.26.27.26h.82c.55 0 .88-.25.88-.7v-.01zm-.82 1.4h-1.5c-.21 0-.38-.17-.38-.38l-.01-3.53c-.01-.21.16-.37.37-.37.2 0 .37.16.37.37v.87c0 .14.12.26.26.26h.68l1.03-1.32c.08-.12.19-.2.36-.2.18 0 .35.14.35.34 0 .12-.05.19-.12.29l-.8 1.04c.57.17.96.58.96 1.26v.01c0 .37-.12.68-.35.92-.27.26-.69.42-1.22.42m5.67-3.59l-2.13.01.01.88c0 .143.12.264.27.263h1.56c.18 0 .33.15.33.33 0 .18-.15.34-.33.34H75l.003.85c0 .14.12.26.262.26l1.836-.01c.18 0 .34.15.34.34 0 .18-.15.336-.33.336h-2.47c-.21 0-.37-.16-.38-.375v-3.49c0-.21.16-.37.38-.37h2.51c.18 0 .34.15.34.335 0 .18-.15.334-.33.334m-9.37 1.46c0-.82-.59-1.49-1.44-1.49s-1.44.68-1.44 1.51v.01c.01.83.59 1.5 1.44 1.5s1.45-.69 1.45-1.51v-.01zm-1.43 2.21c-1.31.01-2.23-.99-2.23-2.19v-.01c0-1.19.91-2.18 2.21-2.18 1.31 0 2.23 1 2.23 2.19v.01c0 1.2-.91 2.19-2.21 2.19M58.15 766c-.82.19-1.01.34-1.01.67v.01c0 .28.26.5.7.5.34 0 .65-.11.98-.32.06-.035.12-.055.2-.056.2 0 .35.15.36.346 0 .146-.08.25-.16.3-.39.26-.81.4-1.35.4-.84 0-1.45-.51-1.45-1.23v-.01c-.01-.79.5-1.06 1.41-1.28.79-.19.96-.35.96-.65v-.02c0-.32-.29-.53-.75-.53-.47 0-.84.158-1.19.44-.05.03-.12.06-.22.06-.2 0-.35-.15-.35-.34 0-.12.06-.222.14-.283.47-.356 1.02-.54 1.6-.54.89 0 1.52.47 1.52 1.266v.01c0 .706-.46 1.03-1.36 1.25"/><path d="M63.312 767.856l-2.82.004c-.195 0-.348-.157-.348-.344 0-.188.15-.347.345-.347h.77c.14 0 .26-.12.26-.27l-.01-2.96c0-.21.17-.37.37-.37.2 0 .37.16.38.37v2.95c0 .14.12.26.26.26h.77c.19 0 .34.15.34.34 0 .18-.15.34-.34.34m8.97-1.41c0-.43-.35-.71-.88-.71H70.3l.005 1.16c0 .14.12.26.262.26h.822c.55-.01.88-.25.88-.71v-.01zm-.82 1.39h-1.52c-.21 0-.38-.17-.38-.38l-.01-3.54c-.01-.2.16-.37.37-.37s.37.16.37.37v.88c0 .14.12.26.26.26h.68l1.03-1.32c.08-.12.19-.2.36-.2.18 0 .36.14.36.34 0 .11-.05.19-.12.28l-.81 1.02c.57.17.96.58.96 1.26v.01c0 .37-.13.69-.35.92-.27.27-.69.43-1.23.43m5.67-3.59h-2.13v.88c0 .14.12.26.27.26h1.56c.18 0 .34.14.34.33 0 .18-.15.34-.33.34l-1.83.01v.84c0 .14.12.26.26.26l1.83-.01c.18 0 .33.14.33.33s-.15.34-.33.34h-2.47c-.21 0-.37-.17-.37-.38v-3.5c0-.21.16-.38.37-.38h2.5c.18 0 .33.14.33.33 0 .18-.15.33-.34.33m-9.37 1.46c-.01-.83-.6-1.49-1.44-1.49s-1.45.68-1.44 1.51v.01c0 .82.59 1.5 1.43 1.5.84-.01 1.44-.69 1.44-1.52v-.01zm-1.43 2.21c-1.31 0-2.23-1-2.23-2.2v-.01c0-1.19.9-2.18 2.21-2.19 1.3 0 2.23 1 2.23 2.2v.01c0 1.19-.91 2.18-2.21 2.19M58.06 766c-.82.2-1.02.34-1.02.67v.015c0 .28.26.5.69.5.33 0 .65-.11.97-.32.06-.03.12-.05.2-.05.19 0 .35.15.35.34 0 .15-.08.25-.16.3-.39.26-.817.4-1.35.4-.84 0-1.45-.5-1.45-1.23v-.01c-.01-.78.503-1.05 1.41-1.27.79-.19.96-.35.96-.65v-.018c0-.767 2.69-.535-.76-.535-.46 0-.836.16-1.19.44-.05.04-.115.07-.22.07-.19 0-.35-.15-.35-.34 0-.12.06-.22.147-.284.47-.35 1.02-.53 1.59-.532.89 0 1.52.47 1.52 1.265v.01c0 .71-.46 1.03-1.36 1.25"/><path d="M65.77 756.978c-15.71.027-28.43 8.083-28.413 17.99.017 9.91 12.765 17.923 28.473 17.896 15.71-.027 28.428-8.083 28.414-17.993-.017-9.9-12.766-17.91-28.475-17.89m.06 37.56c-17.04.03-30.86-8.73-30.88-19.56-.02-10.83 13.77-19.64 30.81-19.66 17.03-.03 30.86 8.73 30.87 19.57.02 10.84-13.78 19.64-30.81 19.67"/><path d="M53.662 766.498l1.294.112c.024 0 .04.008.054.024.017.014.03.038.033.066 0 .042-.038.082-.083.085l-1.294.158c.107.154.332.49.332.49.025.03.018.077-.01.108-.03.04-.078.04-.11.02l-.5-.31c-.013.24-.107 1.3-.107 1.3 0 .05-.04.08-.09.08-.02.01-.04 0-.05-.02-.02-.02-.03-.03-.03-.05 0 0-.13-1.06-.15-1.29l-.46.3c-.03.03-.07.02-.11-.01-.03-.03-.03-.07-.01-.11l.29-.46-1.3-.11c-.02 0-.04-.01-.05-.03-.02-.01-.03-.03-.03-.06 0-.05.04-.09.09-.09l1.3-.15c-.1-.15-.3-.44-.3-.44-.02-.03-.02-.08.01-.11s.08-.04.12-.02l.46.28c.03-.23.12-1.3.12-1.3.01-.04.04-.08.09-.08.03 0 .05.01.06.03s.03.03.03.06l.16 1.3.48-.3c.03-.02.08-.02.11.01s.04.08.02.12l-.3.46m.78 2.3c.1 0 .18.08.18.17 0 .1-.08.18-.17.18-.1 0-.17-.08-.17-.17 0-.1.08-.18.17-.18m-2.83-1.27c.1 0 .18.08.18.18.01.1-.08.18-.17.18-.09 0-.17-.08-.17-.17 0-.1.08-.17.18-.17m-1.77-.81c.1 0 .18.07.18.17 0 .09-.07.17-.17.17-.09 0-.17-.08-.17-.17 0-.1.08-.18.17-.18m-.1-1.71c.1 0 .18.08.18.17 0 .1-.07.18-.17.18s-.17-.07-.17-.17c0-.09.07-.17.17-.17m-.42-1.42c-.1 0-.18-.08-.18-.18 0-.1.08-.18.17-.18.1 0 .18.08.18.17 0 .1-.08.18-.17.18m3.03-2.59c-.09 0-.17-.08-.17-.17 0-.1.08-.18.17-.18.1 0 .18.08.18.18 0 .09-.07.17-.17.17m-1.3 3.45c-.09 0-.17-.08-.17-.18 0-.09.08-.17.17-.17.1 0 .18.08.18.17 0 .1-.07.18-.17.18m0-1.25c-.09 0-.17-.07-.17-.17 0-.09.08-.17.18-.17.1 0 .17.07.17.17.01.1-.07.17-.17.17m.91 2.47c-.17 0-.3-.14-.3-.31 0-.17.14-.3.31-.3.17 0 .31.14.31.31 0 .17-.13.31-.3.31m3.12 2.42c-.17 0-.3-.13-.3-.3 0-.17.13-.31.3-.31.17 0 .3.14.31.31 0 .17-.14.31-.31.31m-4.37-3.16c.02 0 .03.02.04.04l.19.81.79.19c.02.01.03.02.03.04 0 .01-.02.03-.04.03l-.79.2-.19.81c-.01.02-.02.03-.04.03s-.03-.01-.04-.03l-.2-.81-.79-.19c-.02 0-.04-.02-.04-.04s.02-.03.04-.03l.79-.19.2-.81c0-.02.02-.03.04-.03m-.69-.67l-.09.37c0 .01-.01.016-.02.016-.002 0-.01 0-.012-.01l-.09-.37-.36-.09c-.01 0-.02-.01-.02-.02 0-.005.01-.014.01-.015l.37-.09.09-.37c0-.01.008-.01.01-.01.01 0 .02 0 .02.01l.09.37.36.09c.01.005.02.01.02.02s-.01.02-.02.02l-.36.09zm1.22-2.55l-.09.37c0 .01-.01.02-.012.02-.01 0-.01-.01-.02-.02l-.09-.37-.36-.09c-.01 0-.02-.006-.02-.016s.01-.01.02-.02l.36-.09.09-.37c.008-.01.01-.02.02-.02s.01.01.02.02v.01l.08.36.36.09c.01.006.01.01.01.02s-.01.015-.01.02l-.36.086zm3.5 4.14l-.08.37c-.003.01-.01.02-.02.02s-.01-.01-.02-.02l-.09-.37-.36-.08c-.01 0-.02-.01-.02-.014 0-.01.01-.02.02-.02l.36-.09.09-.36c.01-.01.01-.02.02-.02s.02.01.02.02l.09.37.36.09c.01 0 .02.01.02.02s-.01.02-.02.02l-.36.09z"/></g></svg>