<svg xmlns="http://www.w3.org/2000/svg" width="334" height="271"><path d="M0 0l.156 256.938 15.563-2.125V218.78c-.19-11.42 15.19-10.93 15.28 0 .09 10.945 0 34.157 0 34.157l15.25-1.875c-5.96-5.21-9.68-12.646-7.82-20.093 1.49-8.2 12.47-15.01 16.75-15.66C59.99 213.87 269.72 190 269.72 190l34.467 12.47c0-8.38 14.875-8.38 14.875 0v33.75L334 238.03V0l-38.97.063 17.533 177.28c.703 3.724-4.675 5.35-5.844 1.626-1.16-3.73-8.32-29.94-8.32-29.94l-31.28-10.81-32.41 30.18 25.68 16-24.94 4.09-15.28-7.44-11.88 9.41-25.88 3.62 22.84-22.35S182.173 159.81 171 153.1l-12.65 1.88c5.95 1.12 11.72 3.01 16 6.69 5.96 4.1 10.813 10.41 10.813 17.5 0 7.07-5.98 12.31-11.567 16.78l-54.75 6.69-3.34-1.5c-5.21-2.98-11.53-8.54-10.78-15.25 0-7.07 4.84-11.92 8.56-17.5-3.723-1.86-8.557-2.61-12.656-4.1v12.28l-25.53 2.594v8.407l25.157-2.345v12.57l-25.143 2.1-.03 7.97-15.814 1.5v-34.28l-5.56-3.343v-5.812l213-35.718 29.06 8.75-8.56-39.47-20.093-6.72-13.5 20.123v13.31l-9.69 1.84v-13.37l-8.09-7.28-11.19-3.44s3.6 1.343 4.85 4.84c1.24 3.404.004 8.93-3.345 11.905l11.28 8.437-13.344 2.47-10.59-6.062-.03 8-11.657 2.22V110.92l-5.88-2.932v22.438c0 6.255-5.31 7.062-5.31 7.062l-16.25 2.97s-5.17.657-5.97-5.065v-19.84l-4.12-1.69v8.06l-6.714 1.75v20.063l-8.53 1.47v-19.62l-6.816 1.53v-6.374l-5.5-1.095v27.78l-7.79 1.44-12.348-11.62v13.97l-8.563 1.47V128.9l-4.84-1.9v7.063l-10.565 2.593V140l10.563-2.188v6.782L92.75 147v3.125l10.438-2.22v5.657l-20.532 3.563v-18.28l-4.53-1.407c.91.39 2.233 1.19 2.843 2.53l-6.6 3.313s-3.46-4.86-7.94-1.5c-4.46 3.14-3.77 7.06-2.66 9.85 3.43 5.67 9.94 1.9 10.72-1.87l6.37 3.88s-1.78 4.11-2.97 4.35c-1.19.23-15.5 2.66-15.5 2.66-2.86.118-5.95-3.65-6.63-5.34-3.74-8.194 2.78-16.31 2.78-16.31l-4.19-2.47v-6.13l214.6-49.133 15.28 6.69-6.72-27.53-13.75-5.22v23.43l-7.095 1.188V65.16c0-7.446-6-7.497-6 .19v15.12l-7.81 1.468v-34.5l-40.937-17.22c5.21 4.088 7.83 9.32 9.315 14.907 5.21 20.48-6.475 40.746-22.72 51.03l-29.845 6.69s-19.23-1.53-26.402-11.532c-8.19-9.31-7.44-25.33-3.34-36.126L120 51.094c4.677 8.23 2.88 19.742-2.25 26.53l-21.22 25.97 25.845-6.313v13.25l-61.97 13.57v-6.72l42.47-48.78s4.853-7.2-2.97-8.56c-17.085-2.57-19.78 12.84-19.78 12.84l-19.72 3.16s7.04-27.87 28.314-33.5c16.01-6.33 28.31 4.82 41.34 10.03 4.47-7.44 9.66-14.52 16.75-20.84 19.55-14.53 48.72-7.44 48.72-7.44l47.37 18.97-.03-12.28 7.75-1.65 22.43 9.09L263.78.07H65.25L29.5 187.75c-2.327 1.442-5.366.767-5.22-1.844L29.438 0H0zm228.75 52.563v6.53l7-1.406v8.376l-7 1.656v18.15l-7.438 1.34V53.97l7.438-1.407zm90.5 129.25s2.6 9.48-6.938 11.343c-9.547 1.862-11.312-8-11.312-8l18.25-3.344zm-302.313 9.062l18.22 3.53s-1.024 9.77-10.594 8.032c-9.57-1.725-7.625-11.562-7.625-11.562z"/><path d="M277.54 57.785c-9.685-3.814-22.48-11.262-26.816-3.35V31.72l22.354 9.31 4.46 16.755M186.672 43.64c5.54 4.745 6.324 13.033 4.462 20.105-2.6 10.06-12.658 17.506-21.968 19.743-6.334 0-11.727 1.158-17.505-3.35-5.76-4.518-7.44-11.92-5.21-19.004 3.35-10.047 13.04-18.618 23.47-21.23 6.33-.737 11.22-1.02 16.76 3.736m64.05 56.98l-2.6 6.334-7.44-8.197 10.05 1.862M185 113.36l-.01 17.13c0 2.94-5.576 3.01-5.576-.055v-19.13L185 113.36m33.705-.465c.375 3.726-5.21 4.1-5.21 4.1v-5.585s4.098-1.11 5.21 1.488m-89.754 24.59l-14.15-14.53 14.15 4.11.01 10.42m98.65 15.87l-6.98 6.983-20.15-12.8 27.13 5.83m76.585 81.24l-161.84-15.94-31.66-3.35 74.497-7.82 81.183-8.93 37.77 12.24.03 23.795m29.82 11.61l-.04 24.79H.09l.08-8.47 62.85-9.6s-15.27-4.46-17.87-12.66c-1.862-5.21-.375-10.436 3.35-14.16 11.964-12.01 66.287-3.35 66.287-3.35l219.21 23.444m-188.66-55.765c11.296-1.91 19.652-8.176 18.675-14-.987-5.835-10.932-9.014-22.228-7.107-11.296 1.91-19.652 8.176-18.675 14 .98 5.824 10.93 9.003 22.22 7.107"/></svg>