<svg xmlns="http://www.w3.org/2000/svg" width="300" height="39.461"><path fill="#414749" d="M82.957 5.562h6.32l-.32 4.57h-6.32l.32-4.57m171.54 22.02c3.126 0 3.325-2.903 3.49-5.26-1.407 0-2.742-.07-3.69.386-1.017.494-1.78 1.34-1.865 2.57-.088 1.268.8 2.304 2.066 2.304zm2.905 1.2h-.07c-1.435 1.332-2.79 2.302-5.374 2.302-4.19 0-5.95-2.384-5.95-5.508 0-3.52 3.608-5.78 10.017-5.78h2.115c.108-1.548.647-4.102-2.008-4.102-1.884 0-2.342 1.79-2.38 2.652h-6.088c.14-2.305 1.135-3.845 2.987-4.654 1.9-.843 4.2-1.055 6.17-1.055 3.59 0 8 1.786 7.7 6.167l-.5 8.496c-.05.74-.06 1.513.04 3.624h-6.31l-.34-2.14m28.67-7.694l6.33-7.873H300l-6.817 7.485 6.46 10.238h-8.233l-5.34-9.85zm-7.38 9.85l1.78-25.383h6.69l-1.78 25.383h-6.69M170.21 15.85h.07c1.717-2.208 3.695-2.575 5.873-2.575l-.396 5.664c-.45-.04-.9-.04-1.36-.04-4.41 0-4.544 2.52-4.71 5.45l-.395 6.58h-6.865l.915-13.13c.113-1.59.15-2.64.11-4.59h6.542l.225 2.62m5.44 15.09l1.78-25.39h6.47l-1.78 25.38h-6.48m-46.86-8.6c-.1 2.16.44 5.21 2.86 5.21 3.08 0 3.84-3.07 3.95-5.52.1-2.17-.33-5.39-2.94-5.38-3.34.01-3.76 3.35-3.88 5.69zm-5.3-16.77h6.63l-.71 10.12h.12c1.34-1.59 3.2-2.91 5.59-2.91 5.42 0 7.51 4.77 7.22 9.07-.3 4.38-2.59 9.36-8.65 9.36-2.04 0-4.024-1.12-4.94-2.43h-.14l-.4 2.16h-6.52l1.78-25.366m32.48 14.35c.06-.95-.15-1.9-.63-2.64s-1.2-1.193-2.227-1.12c-2.33.11-2.95 1.76-3.27 3.77h6.12zm-6.44 3.34c-.198 2.442.36 4.412 2.86 4.412 1.87 0 3.044-1.24 3.044-2.397h6.2c-.14 2.15-1.64 3.82-3.4 4.81-1.62.985-3.47 1.16-5.46 1.16-7.22 0-10.01-2.995-9.563-9.71.37-5.59 4.88-8.9 10.2-8.814 7.11.113 9.4 4.297 8.72 10.54h-12.6M56.62 5.57h7.446L62.29 30.94h-7.443L56.63 5.56m15.68 0l-8.9 11.275 7.93 14.102h8.92l-8.89-14.47L80.72 5.56h-8.41m10.033 7.667h6.32l-1.24 17.705H81.1l1.24-17.705m14.323 0l-.002 2.392h.07c1.98-2.58 4.69-2.81 6.36-2.81 2.42 0 4.89 1.33 5.39 3.12 1.37-2.12 3.81-3.17 6.5-3.24 3.87 0 6.56 2.47 6.28 6.38l-.84 11.85h-6.8l.74-10.4c.09-1.69-.04-3.6-2.26-3.6-3.25 0-3.13 3.63-3.16 3.84l-.7 10.15h-6.82l.76-10.4c.03-1.73-.19-3.61-2.35-3.61-3.43 0-3.36 3.63-3.36 3.84l-.7 10.16h-7.02l1.22-17.7h6.72m95.83 26.23h-6.15l3.96-8.238-6.494-17.995h7.54l2.93 10.987 4.65-10.986h6.22l-12.66 26.23m12.863-22.67h8.564l-2.74 5.54h-8.565l2.74-5.54m22.33-11.9c5.24 0 10.59 2.283 10.36 8.64h-7.21c0-1.67-.97-3.567-3.413-3.567s-5.31 1.82-5.81 7.09c-.504 5.27.154 9.26 4.42 9.26 3.683 0 4.42-3.18 4.5-3.796h7.15c0 2.83-2.345 8.68-12.04 8.68-10.235 0-12.06-7.43-11.21-14.37.72-5.8 4.85-11.93 13.267-11.93M238.2 30.93l1.78-25.38h6.476l-1.78 25.38h-6.48m34.8-15.084h.07c1.712-2.21 3.69-2.575 5.91-2.575l-.4 5.67c-.49-.04-.95-.04-1.406-.04-4.41 0-4.55 2.527-4.71 5.45l-.4 6.59h-6.866l.92-13.124c.11-1.586.15-2.64.1-4.59h6.55l.223 2.62"/><path fill="#3c93cb" d="M21.218 35.207C10.416 35.207 1.7 27.722 1.7 18.452c0-9.272 8.717-16.757 19.52-16.757 10.8 0 19.516 7.485 19.516 16.757 0 9.27-8.716 16.755-19.516 16.755zM0 18.455c0 10.19 9.495 18.45 21.21 18.45s21.21-8.26 21.21-18.45S32.923.005 21.21.005C9.47.005 0 8.265 0 18.455"/><path fill="#3c93cb" d="M23.955 29.208V21.06c1.523 3.407 4.215 4.158 6.398 4.158h6.057v-3.65h-4.24c-2.185 0-2.87-1.622-2.87-2.554 0-2.258 1.832-3.976 4.56-6.39h-4.83c-2.09 1.37-4.133 3.54-5.07 5.976V7.32h-5.488V18.6c-.937-2.436-2.98-4.606-5.068-5.975H8.57c2.73 2.413 4.562 4.13 4.562 6.39 0 .93-.684 2.55-2.87 2.55H6.024v3.652h6.056c2.182 0 4.872-.75 6.397-4.157v8.148h5.478zm-7.238 1.754v-5.135c-.433.293-1.51 1.14-3.728 1.14H4.27v-7.16h5.38c1.347 0 1.43-.802 1.43-1.045 0-2.068-3.552-4.93-7.496-7.898l10.57-.02c.646.476 1.663 1.196 2.568 2.215V5.54h8.986v7.52c.905-1.02 1.92-1.74 2.567-2.216l10.57.02c-3.945 2.97-7.498 5.83-7.498 7.898 0 .243.084 1.045 1.43 1.045h5.378v7.16H29.44c-2.218 0-3.294-.847-3.728-1.138v5.13h-8.998"/></svg>