<svg xmlns="http://www.w3.org/2000/svg" width="348.35" height="147.78" viewBox="0 0 348.35 147.78"><path fill="#231F20" d="M347.13 99.04c-1.62-7.15-6.32-13.4-12.58-17.16-8.8-5.32-19-7.47-28.86-10-11.4-3.02-23.1-4.87-34.2-8.93 7-8.66 8.5-20.46 6.6-31.17-1.2-8.23-5.3-16.12-12.1-21.06 12.3-6.6 26.9-7.6 40.5-5.97 10.4 1.37 21.1 5.64 27.4 14.37 5.2 6.86 6.8 15.6 7.5 24 1.23-.05 2.5-.1 3.73-.1-.1-12.2-4.4-25.13-14.2-32.92C320.7 1.66 306.6-.3 293.5.04c-10.97.14-22.14 2.44-31.57 8.23-9.7-4.76-20.8-5.1-31.4-4.98-17.43 0-34.9 0-52.4-.1-.1 27.3.26 54.7-.14 82.1-10.5-27.5-21.6-54.7-32.3-82.1h-5.3c-11.2 27.8-22.7 55.4-33.7 83.2-.4-27.8-.1-55.5-.2-83.3h-4.1c.1 29.2 0 58.3 0 87.5-.1 2.5.3 5.1-.7 7.4-3.5 8.6-7.1 17.2-10.5 25.9C62.9 83.8 34.5 43.5 5.9 3.2L0 3.3c0 47.05.02 94.13 0 141.2h3.97C4 99.07 3.93 53.58 4 8.1c28.58 40.2 57 80.52 85.5 120.77-2.1 5.22-4.2 10.45-6.38 15.66 1.56 0 3.13.1 4.7.1 1.6-3.8 3.14-7.7 4.66-11.54 2.7 3.8 5.4 7.7 8.14 11.5h6.05c-.02-15.5.04-31-.03-46.4h71.5c-.06 15.5-.02 30.9-.04 46.4h4.08c.04-12.3-.12-24.5.07-36.8 4.83 12.2 9.76 24.5 14.62 36.7h4.58c-6.43-16.2-12.93-32.4-19.15-48.7-.35-5.8 0-11.7-.14-17.5 19.05 0 38.1-.1 57.15 0 8.7.4 18.3 1.7 24.9 7.8 6.3 5.7 7.8 14.6 8.1 22.7.3 10.4.2 21 1.9 31.3-7.9-2.9-15.2-7.9-19.8-15.15-5.3-8.1-6.7-18-7-27.53l-4 .1c0 7.2.8 14.55 3.3 21.35 3.4 9.5 10.6 17.5 19.6 22.1 12.7 6.5 27.5 7.5 41.4 6.23 12.8-1.54 26.2-6.5 34.2-17.06 6.8-8.8 7.7-20.7 5.3-31.2zm-244.48 40.72c-2.87-3.75-5.5-7.66-8.25-11.5 2.8-6.7 5.35-13.5 8.28-20.16-.06 10.55-.02 21.1-.03 31.66zm5.54-45.7c11.7-28.92 23-58.06 34.9-86.86 11 29 22.4 57.8 33.5 86.8h-68.5zm154.2-80.88c5.7 3.9 10 9.95 11.3 16.83 2.4 10.7.8 22.7-6.2 31.3-5.9-3-11.4-7.3-13.9-13.5-4.7-11.8-1.7-26.7 8.7-34.5zm-37.9 61.08h-42.4V7.36h52.3c8-.12 16.1.74 23.7 3.6-5.2 4.8-9 11.1-10.1 18.1-1.3 8.67-.7 18.28 4.6 25.62 3 4.26 7.3 7.3 11.7 9.85-4.7 3.8-10.2 6.6-16 8.06-7.8 2.1-16 1.6-23.9 1.6zM337 129.43c-7.66 8.74-19.36 12.6-30.6 13.9-9.3.78-18.87.54-27.94-1.93-2.44-12.35-1.6-24.98-2.53-37.46-.76-7.54-2.9-15.66-8.97-20.7-5.2-4.58-12.14-5.95-18.7-7.27 7.38-1.5 14.5-4.63 20.1-9.76 9.4 3.9 19.4 5.7 29.24 8.1 10.46 2.5 21.3 4.3 30.95 9.2 6.43 3.3 11.95 8.9 14.1 15.9 3.05 10.1 1.56 22.1-5.7 30.1z"/></svg>