<svg xmlns="http://www.w3.org/2000/svg" width="106.99" height="63.1" version="1"><path fill="#003e49" d="M5.68 22.76c3.74-.93 11.7-3.3 13.8-4.08-2-2.02-2.24-5.76-.76-8.36 1.48-2.6 4.56-6.53 12.14-8.6 7.58-2.06 12.4.5 14 2.43 1.58 1.92 2.3 5.66-2.4 9.52 4.48-.5 10.86 1.36 12.33 2.56-4.3-.45-8.5-.2-10.8.14-2.4.33-8.9 1.62-10 1.9-1 .24-1.2.07-1.3-.14-.2-.2 0-.55.3-.75.4-.2 3.2-1.98 5-3.95 2-2.18 4.2-7.34-.6-8.67C33 3.54 26.3 7.1 24 10.26c-2.38 3.14-1.9 5.34-1.3 6.38.6 1.03 1.4 1.82 2.97 2.15 1.56.3 1.84.3 1.85.7 0 .4-.2.5-1.08.8-.87.2-5.44 1.5-10.33 2.2-4.9.6-9.8.4-10.6.2"/><path fill="#00a19a" d="M.96 34.96c6.7-2.02 18.7-6.55 23.73-8.9-.7 6.7-.1 19.18.1 22.07-3.1-.76-4.8-12.35-4.9-16.15-6.8 2.2-17.8 4.1-19.1 2.98M33 23.14c5.04-1.9 17.28-4.26 23.7-3.15-5.94 2.6-15.7 5.2-19.93 6-1.46 5.6-6.53 15.3-8.8 17.8 1.3-6.6 4.42-18.6 5.05-20.8"/><path fill="#003e49" d="M48.5 46.78c-3.2 0-5.52-1.7-5.52-5.75v-2.5c0-4.04 2.32-5.74 5.5-5.74 3.2 0 5.53 1.7 5.53 5.7V41c0 4.05-2.3 5.75-5.5 5.75m2.8-8.24c0-2.4-.9-3.5-2.8-3.5s-2.8 1.1-2.8 3.6v2.5c0 2.4.9 3.5 2.8 3.5s2.8-1.1 2.8-3.5v-2.5zm17.3 8.1h-1.9c-.1 0-.3-.1-.3-.3v-8.8l-.1.2-1.8 3.5c-.1.2-.3.3-.6.3h-2c-.2 0-.5-.1-.6-.3l-1.9-3.5s0-.1-.1-.1 0 .1 0 .2v8.5c0 .2-.1.4-.3.4h-2c-.13 0-.3-.1-.3-.3V33.7c0-.4.36-.75.78-.75H59c.3 0 .6.18.72.44l2.9 5.6c.1.2.1.3.2.3s.1-.1.2-.3l2.92-5.6c.15-.3.4-.5.7-.5h1.6c.44 0 .8.3.8.7v12.7c0 .2-.16.3-.34.3m11.4-.1c-.6.1-1.4.22-3.7.22-2.5 0-4.4-.66-4.4-3.8v-6.4c0-3.13 2-3.78 4.5-3.78 2.33 0 3.1.1 3.7.2.3 0 .4.1.4.4v1.13c0 .2-.2.37-.4.37h-4c-1.13 0-1.54.4-1.54 1.6v2h5.25c.2 0 .4.18.4.38v1.4c0 .2-.2.4-.4.4h-5.3V43c0 1.22.4 1.6 1.6 1.6H80c.2 0 .38.15.38.35v1.18c0 .26-.1.35-.4.4M92 46.46c-.96.2-2.22.32-4.2.32-2.1 0-5.2-1.3-5.2-5.66v-2.65c0-4.37 2.94-5.68 5.24-5.68 1.86 0 3.53.2 4.16.3.26 0 .37.1.37.4v1.2c0 .2-.07.4-.38.4h-.1c-.9-.1-2.3-.2-4.1-.2-1.3 0-2.5.8-2.5 3.4V41c0 2.6 1.3 3.46 2.5 3.46.7 0 1.3 0 1.9-.05v-4.7c0-.2.1-.3.3-.3h2c.2 0 .3.2.3.4V46c0 .23-.1.38-.4.43m13.6.2h-2.1c-.2 0-.37-.15-.4-.3l-.9-3.5h-4.5l-.9 3.5c-.07.15-.2.3-.4.3h-2c-.2 0-.35-.13-.35-.3v-.1l3.2-11.56c.45-1.7 1.84-1.88 2.7-1.88.8 0 2.2.1 2.66 1.8l3.18 11.5v.1c0 .1-.1.3-.3.3m-5.2-11.4c-.04-.2-.1-.3-.3-.3-.2 0-.24 0-.3.3l-1.4 5.4h3.4l-1.4-5.5z"/><path fill="#00a19a" d="M47.4 57.74c-.4 0-1.03-.05-1.4-.06v4.07c0 .17-.12.3-.3.3h-1.55c-.17 0-.3-.13-.3-.3V51.02c0-.32.18-.43.5-.47.8-.13 1.9-.2 3.05-.2 2.4 0 4.5.84 4.5 3.6v.14c0 2.7-2.1 3.6-4.5 3.6m2.33-3.8c0-1.3-.78-1.8-2.33-1.8H46v3.7h1.4c1.68 0 2.33-.6 2.33-1.9v-.2zM62.06 62H60.5c-.16 0-.3-.14-.3-.3v-4.8h-4.43v4.8c0 .16-.14.3-.3.3H53.9c-.16 0-.3-.14-.3-.3v-11c0-.17.14-.3.3-.3h1.56c.17 0 .3.13.3.3V55h4.44v-4.3c0-.17.14-.3.3-.3h1.56c.17 0 .3.13.3.3v11c0 .16-.13.3-.3.3m10.98 0h-1.66c-.14 0-.26-.13-.3-.27l-.7-2.98h-3.6l-.72 2.95c-.03.13-.15.26-.3.26H64.1c-.13 0-.26-.1-.26-.27l.02-.1 2.56-9.8c.38-1.5 1.5-1.6 2.18-1.6.67 0 1.8.1 2.16 1.6l2.56 9.8h.02c0 .1-.13.2-.28.2m-4.22-9.7c-.04-.2-.1-.26-.24-.26-.16 0-.2.1-.25.27L67.22 57h2.75l-1.13-4.62zM83.02 62h-1.9c-.18 0-.24-.15-.32-.3l-2.24-4.17h-.22c-.4 0-1.03-.04-1.4-.06v4.22c0 .1-.1.3-.3.3H75.1c-.18 0-.32-.2-.32-.3V51c0-.33.2-.44.5-.48.8-.13 1.92-.2 3.06-.2 2.4 0 4.5.85 4.5 3.52V54c0 1.66-.84 2.7-2.12 3.2l2.45 4.55c.03.04.03.1.03.12 0 .1-.06.2-.18.2m-2.34-8.2c0-1.17-.78-1.67-2.34-1.67-.33 0-1.1.03-1.4.06v3.5c.26.03 1.13.06 1.4.06 1.6 0 2.34-.44 2.34-1.8v-.15zm14.04 8.2h-1.58c-.14 0-.25-.17-.25-.3V54.5c0-.1-.1-.18-.1-.18l-.1.1-1.5 2.97c-.1.1-.3.2-.5.2h-1.5c-.2 0-.4-.1-.5-.3l-1.6-3-.1-.1s-.1 0-.1.1v7.2c0 .16-.1.3-.3.3h-1.5c-.14 0-.26-.06-.26-.2V51.1c0-.35.3-.63.6-.63h1.3c.24 0 .46.16.57.37l2.36 4.78c.1.14.1.22.2.22s.1-.08.15-.22l2.34-4.78c.1-.2.34-.37.6-.37h1.27c.37 0 .6.28.6.62v10.7c0 .1-.1.2-.22.2m10.9 0H104c-.14 0-.27-.2-.3-.3l-.72-3h-3.6l-.7 2.9c-.03.1-.16.2-.3.2h-1.65c-.16 0-.28-.1-.28-.3v-.08l2.57-9.8c.37-1.46 1.5-1.6 2.17-1.6.6 0 1.7.14 2.1 1.6l2.5 9.8v.04c0 .15-.2.26-.3.26m-4.2-9.65c-.1-.2-.1-.25-.3-.25-.2 0-.2.05-.3.24l-1 4.8h2.7l-1.1-4.64z"/></svg>