<svg xmlns="http://www.w3.org/2000/svg" viewBox="0 0 200.197 162.78"><path d="M181.49 105.552l1.172-4.417-3.59 2.83-3.796-2.485 1.242 4.35-3.313 2.623 4.417-.07 1.588 4.005 1.52-4.142 4.557-.207-3.798-2.49zm-4.902 14.498l1.933-4.073-3.93 2.07-3.59-2.898.69 4.41-3.73 1.93 4.56.69.83 4.55 2-4.15 4.49.62-3.24-3.18zm11.114-28.512l-4.28-1.726.275-4.557-2.898 3.52-4.22-1.725 2.28 3.797-2.9 3.52 4.41-1.104 2.41 3.935.41-4.556 4.49-1.104zm-.345-16.154l-4.487-.966-.415-4.556-2.347 3.935-4.487-1.105 3.04 3.452-2.41 3.935 4.21-1.73 3.11 3.45-.41-4.63 4.21-1.8zm-9.665-20.502l-1.59 4.28-4.486-.138 3.59 2.83-1.588 4.35 3.866-2.692 3.66 2.76-1.313-4.348 3.73-2.554-4.62-.07-1.24-4.418zm-8.352-10.08l-4.557.76 4.142 2.07-.69 4.557 3.176-3.25 4.15 1.93-2.07-4.01 3.11-3.32-4.48.76-2.21-3.94-.55 4.42zm-6.007-7.938l4.35 1.173-2.83-3.52 2.692-3.867-4.35 1.587-2.83-3.59.206 4.488-4.35 1.657 4.42 1.173.07 4.556 2.63-3.65zM148.146 18.57l1.174 4.28-3.797 2.485 4.558.208 1.18 4.487 2.01-4.142h4.21l-3.1-2.76 1.11-4.35-3.8 2.553-3.52-2.76zm-10.216-1.588l2.07 4.142.76-4.487 4.625-.62-4.004-2.21.69-4.418-3.24 3.1-4.14-1.8 1.87 4.07-3.1 2.83 4.49-.62zm-12.358-9.388l-.208-4.556-2.553 3.797-4.35-1.036 2.56 3.45-2.21 3.66 4.15-1.45 2.97 3.52-.41-4.28 4.49-2-4.41-1.11zM105.138 6.49l-1.52 4.348 3.936-2.278 3.522 3.106-1.105-4.487 4.01-2.35-4.69-.42L108.18 0l-1.59 4.14-4.56-.345 3.11 2.692zm-16.913 4.97l3.383-2.9 3.935 2.278-1.795-4.28L97.06 3.52l-4.486.414L90.64-.14l-.827 4.42-4.556.553 3.866 2.208-.898 4.42zm-9.182-1.864l2.76-3.728-4.417 1.38-2.624-3.796v4.763l-4.418 1.173 4.28 1.45-.07 4.487 2.762-3.52 4.418 1.45-2.69-3.66zm-11.735 8.698l-3.313-3.176 1.933-4.142-4.21 2.14L58.61 9.94l.76 4.488-3.934 2.14 4.418.69.76 4.418 2.07-4.073 4.624.69zm-16.568 7.73l4.694-.413L51.5 23.2l.96-4.418-3.59 2.97-3.796-2.418 1.795 4.21-3.39 3.038 4.48-.345 1.72 4.142 1.03-4.35zM40.523 33.55l.345-4.556-2.97 3.59-4.21-1.727 2.416 3.866-2.9 3.452 4.42-1.104 2.415 3.87.27-4.55 4.55-.96-4.35-1.86zm120.6 93.68c-.76.758-1.104 1.656-1.104 2.76 0 1.036.34 2.003 1.1 2.693.69.76 1.65 1.104 2.69 1.104 1.03 0 2-.346 2.76-1.104.69-.69 1.03-1.657 1.03-2.692 0-1.1-.35-2-1.04-2.76-.76-.69-1.73-1.03-2.76-1.1-1.04.07-2 .42-2.69 1.11zm-.552 2.76c.07-.967.35-1.727.97-2.348.56-.62 1.32-.897 2.28-.966.97.07 1.73.346 2.35.966.55.62.83 1.38.9 2.348-.07.896-.34 1.656-.89 2.277-.62.553-1.38.897-2.35.897-.96 0-1.72-.345-2.28-.897-.62-.62-.89-1.38-.96-2.277z"/><path d="M164.16 130.335c.347 0 .554.14.554.483v.828l.138.414h.897v-.207c-.14 0-.14-.138-.14-.345l-.07-.897-.14-.41-.28-.2.34-.27.2-.41c.07-.34.07-.62-.07-.83l-.35-.48-.62-.13h-2.35v4.21h.83v-1.72h1.03zm.208-1.795c.346 0 .483.138.483.482l-.13.415-.34.207h-1.24v-1.104h1.25zm9.112 33.964l-2.76-5.452-2.83 5.452h1.725l1.104-2.14 1.17 2.14h1.59zM30.79 40.937l-2.28 3.935-4.417-.76L27.2 47.29l-2.14 4.072 4.072-1.933 3.038 3.38-.483-4.49 4.21-2-4.486-.97-.62-4.42zm-5.04 21.676l3.66-2.76-4.558.137-1.52-4.418-1.38 4.418-4.556.07 3.728 2.553-1.243 4.35 3.59-2.693 3.66 2.624-1.38-4.28zM22.643 77.11l3.106-3.52-4.42.758-2.42-3.59-.49 4.42L14 76.213l4.21 1.795-.415 4.487 2.967-3.314 4.14 1.8-2.277-3.86zm-8.975 15.256l4.418.967.483 4.557 2.34-3.797 4.35.897-2.97-3.452 2.35-4.004-4.21 1.864-3.11-3.383.48 4.487-4.15 1.864zm2.97 16.084l4.486.277 1.242 4.35 1.588-4.28 4.556.276-3.59-2.9 1.796-4.28-3.935 2.555-3.52-2.9 1.18 4.42-3.79 2.483zm-12.08 54.054h1.586l-2.83-5.452-2.762 5.452h1.726l1.035-2.14 1.244 2.14zm25.127-42.524l.897-4.557-3.245 3.176-4.142-2.21 1.933 4.21-3.176 3.1 4.487-.62 2 4 .76-4.35 4.55-.62-4.07-2.14zm47.495 37.9c-.484-.483-1.105-.76-1.934-.83-.83.07-1.45.347-1.933.83-.553.552-.76 1.172-.83 1.933.07.828.277 1.52.83 2 .483.484 1.104.762 1.933.762s1.45-.276 1.933-.76c.55-.483.82-1.174.82-2.002 0-.76-.28-1.38-.83-1.933zm-2.83 1.104c.275-.276.55-.346.896-.414.414.068.69.137.897.414.276.206.345.483.345.828 0 .414-.07.69-.345.897-.207.27-.483.41-.897.41-.345-.07-.62-.14-.897-.42-.28-.21-.35-.49-.35-.9 0-.35.07-.63.34-.83zm-37.348 3.52v-5.246h-1.52v5.246h1.52zm8.422 0h1.726l1.174-2.14 1.173 2.14h1.588l-2.76-5.452-2.9 5.452zm-19.33-5.246H24.44l-1.243 2.14-1.104-2.14h-1.655l2.76 5.454 2.9-5.454zm66.273 3.176l.897 2.07h1.726l-2.554-5.452-1.312 2.69-1.312-2.69-2.554 5.452h1.726l.966-2.07 1.174 2.347 1.243-2.34zm44.043-66.548l.138.345 2.21 3.32c.413.69.62 1.38.76 1.87l-.07 1.11.346.62 11.528 13.81-.07-.27-.067-.27-5.592-8.77c-.208-.34-.345-.69-.415-1.03l-.068-1.17-.346-.96-2.692-3.38-5.178-4.97c-.346-.2-.484-.34-.484-.2zm47.98 65.65l-3.108-2.346v5.313h1.52v-2.07l3.106 2.21v-5.386h-1.52v2.28zm-24.3.828c.274-.276.48-.69.48-1.242 0-.62-.206-1.035-.62-1.38-.345-.346-.896-.484-1.45-.484h-2.14v5.316h1.588v-1.727h.896c.485 0 .9-.137 1.245-.483zm-1.313-.828l-.622.138h-.207v-1.242h.207l.554.07c.2.137.27.275.34.482 0 .345-.07.484-.28.552zm-13.67-2.486l-1.31 2.692-1.38-2.69-2.487 5.452h1.727l.897-2.07 1.242 2.347 1.174-2.34.897 2.07h1.726l-2.485-5.45zm50.463.208h-1.725l1.933 3.59v1.656h1.59v-1.656l1.862-3.59h-1.726l-.897 1.795-1.036-1.795zM83.047 86.153l-1.45 2.21c-.622.828-1.173 1.45-1.726 1.933-.69.483-1.24.828-1.51 1.174l-.83 1.035-5.52 8.008c-.48.828-.69 1.38-.69 1.726 0 .27.07.48.21.62.14.14.14.34.14.69-.07.2-.41.69-1.03 1.38l-.96 2.97-1.31 2.55c-.14.55-.27 1.1-.34 1.59-.14.55-.34 1.17-.69 1.86l-2.55 4.69c-.27.41-.34.89-.2 1.31l1.66-2.35 1.25-.97.76-.76.69-.55.69-1.11c.21-.62.55-1.11.97-1.66l1.1-1.31c0-.21.14-.35.28-.42l.42-.69.83-1.66c.48-.69.83-1.11 1.24-1.38l1.65-1.04 5.18-9.05c-.14-.83-.21-1.59-.14-2.42l.35-2.35c.21-1.11.56-2.21 1.11-3.18l1.18-2.42c.35-.69.42-1.17.14-1.38l-.82.9zM65.79 95.128c.482-.69.62-1.104.482-1.174-.07-.138-.345 0-.897.415l-3.797 3.38c-.967.89-1.864 1.86-2.692 2.83l-14.083 19.47 7.87-8.98c2.07-2.35 3.452-4.01 4.28-4.76l.69-.42.552-.21.69-.42 6.905-10.14zm-4.557 63.856c.207-.276.552-.346.897-.414l.552.068v-1.52l-.552-.068c-.83.07-1.52.346-2.002.83-.553.55-.76 1.17-.76 1.932 0 .828.208 1.52.76 2 .483.484 1.173.762 2.002.762h.552v-1.52l-.552.07c-.415 0-.69-.138-.897-.415-.276-.21-.345-.49-.414-.9.06-.35.13-.62.41-.83zm71.035.83c0-.76-.274-1.38-.827-1.934-.48-.483-1.1-.76-1.93-.83-.82.07-1.45.347-1.93.83-.55.552-.76 1.172-.83 1.933.07.828.28 1.52.83 2 .49.484 1.11.762 1.94.762.83 0 1.45-.276 1.94-.76.55-.484.83-1.174.83-2.002zm-1.518 0c0 .413-.07.69-.346.896-.208.276-.483.414-.898.414-.345-.07-.62-.137-.897-.414-.28-.207-.35-.483-.35-.897 0-.345.07-.622.34-.828.27-.276.55-.346.89-.414.41.07.69.14.9.42.27.21.34.49.34.83zm-14.773-2.694l-.553-.07c-.828.07-1.45.347-2.002.83-.483.552-.76 1.172-.76 1.933 0 .828.275 1.52.76 2 .552.484 1.174.762 2.002.762h.553v-1.52l-.553.07c-.415 0-.69-.138-.967-.415-.206-.207-.345-.483-.345-.897 0-.345.14-.622.345-.828.276-.276.622-.346.967-.414l.553.07v-1.52zm20.226-47.288c.76.62 1.657 1.52 2.555 2.762l5.108 6.35 2.898 4.074c.345.414.553.69.828.76.207-.07.07-.69-.345-1.588l-4.28-8.077c-.897-1.52-1.656-2.97-2.278-4.35-.28-.482-.49-.76-.69-.828l-.49-.483c-.62-.69-1.04-1.38-1.38-2-.28-.622-.56-1.175-.9-1.658l-4.28-3.658-1.94-2.07-1.04-.83-.76-1.035-.07-2.27-.28-.69-1.18-1.59-9.67-10.7-.97-.83c.07.21.14.42.28.62l.27.62 2.14 3.39.48 1.04v.76l.07.9.97 1.8 1.1 1.38 1.38 2.49c.34.76.69 1.52.83 2.28l.69.83.89 2c.34.9.83 1.94 1.45 2.97l3.72 5.11.76.97 2 .56.07.14c.48 0 1.1.35 2 .9zm-32.446-36.38l1.727 5.592c.138.69.138 1.104 0 1.242.07.415 0 .76-.275 1.036l-.77.897c-.35.34-.55.69-.69 1.17 0 .48.14 1.03.62 1.72l.13.48.83 2.41 1.59 6.83 1.38 3.52c.27.41.48.69.62.62 0 .07.2.2.69.27l1.45.41c.55.14.89.41 1.03.76.21 0 .41.41.69 1.24l.96 2.76c.34 1.03.69 1.93 1.1 2.76l4.48 11.04.89 2.76 1.52 3.72c.27.48.62.97 1.03 1.45-.07.14.14.28.41.28l1.66-.14-1.11-2.56-.97-3.66-.48-1.18-.21-.9c-.07-.21-.07-.35 0-.48l.83-.55-.07-1.59-.48-1.93-.42-.97-.76-.83-1.04-2-2.49-6.63c-.21-.97-.28-1.59-.14-1.86-.14-.21-.07-.42.07-.56l.62-.49c.28-.07.35-.35.35-.69.21-.07.07-.55-.35-1.45l-1.66-3.59-6.63-11.94-.14-.48-5.93-10.36c-.42-.49-.55-.55-.55-.14.07.34.14 1.03.41 1.93z"/><path d="M170.03 66.34c-2.072-7.178-5.108-13.874-9.25-20.02-4.073-6.074-9.045-11.39-14.773-15.945-5.73-4.557-12.22-8.215-19.26-10.908-7.11-2.76-14.635-4.28-22.644-4.694-8.077-.345-15.74.415-23.058 2.417-7.317 2.002-14.083 4.97-20.296 9.043-6.29 4.003-11.74 8.905-16.43 14.565-4.7 5.73-8.43 12.012-11.26 19.054-2.76 7.042-4.42 14.566-4.83 22.643 0 4.28.34 8.353.96 12.22.55 3.865 1.38 7.316 2.27 10.562.96 3.175 1.86 5.937 2.76 8.283l3.31 7.387 29.61-34.86 8.42-9.114c.62-.276 1.24-.345 1.86-.345l1.72.07c.55-.07 1.03-.346 1.45-1.036l15.2-12.426c1.79-1.45 3.31-2.416 4.35-2.968l2.14-.276c.62 0 1.31.07 2.07.414.96.69 2.07 1.52 3.1 2.623l3.52 3.24 3.04 2.07c.55.2 1.03.34 1.45.34l1.1.82 1.38 1.72c.62.83 1.65 1.93 3.03 3.24 1.38 1.38 3.38 3.17 5.94 5.24.62.76 1.1 1.24 1.38 1.45.27.14.62.27.82.27l1.1.48.83.69c.27.2.55.27.89.41l1.65.34c.41.13 1.1.55 1.93 1.38l3.1 3.59c1.24 1.38 2.56 3.1 3.94 4.97l5.66 8.21 14.77 19.6 5.94-15.61c.9-2.83 1.73-5.66 2.35-8.49.69-2.83 1.1-5.39 1.17-7.73.42-8.08-.41-15.67-2.48-22.99zm-33.343-20.778h2.348l-.483 1.38 1.863-1.103 1.656-.63h.63c.35 0 .69.14.97.34.21.27.28.55.21.96l-2.48 5.11-.48.83-.2.41c-.07.27-.07.48 0 .69l.07.2h.62c.35-.07.9-.28 1.38-.76.62-.42 1.11-1.18 1.66-2.28l2.14-4.35h-1.45l.35-1.04h1.73l1.8-3.93h2.42l-1.72 3.93h1.73l-.41 1.04h-2l-3.24 7.38c-.27.55-.34 1.11-.21 1.38.07.35.28.49.41.49h.69c.35-.07.83-.35 1.38-.76.62-.42 1.18-1.11 1.87-2.14l.97.07-.48.69-1.1 1.45c-1.31 1.31-2.55 1.93-3.73 1.72l-.69-.28-1.1-.83c-.41-.48-.55-1.04-.48-1.8l-.62.42-1.59.83-2 .55h-.35c-.2-.07-.41-.21-.55-.35-.14-.14-.21-.35-.27-.62 0-.21.07-.55.21-.97l2.56-5.18c.27-.69.41-1.18.27-1.45h-.34l-.55.21c-.42.06-.83.41-1.45.89-.62.55-1.17 1.38-1.8 2.62l-2.35 4.76H132l1.104-2-.482.55-1.38 1.03c-.62.34-1.31.48-2.07.55l-.345-.07-.62-.55c-.21-.28-.278-.69-.278-1.25l-.56.41-1.31.83-1.59.62-.9-.07c-.28-.21-.56-.41-.69-.69-.14-.35-.14-.76.07-1.31l2-4.9-.62.14-1.31.13-.21.76-.56 1.44-.42.69-1.18 1.59-1.31 1.18-1.66 1.03c-.55.27-1.17.41-1.86.48-.69 0-1.32-.21-1.66-.62-.42-.35-.62-.83-.76-1.18l-.14-.69-1.73 1.65c-.55.34-1.04.62-1.59.62l-.97-.07c-.35-.14-.56-.28-.76-.55-.28-.34-.35-.76-.21-1.38l2.97-6.63-.21-.34h-.42c-.21 0-.48.13-.9.48-.48.34-.9 1.03-1.45 1.93l-2.83 6.14h-2.69l3.45-7.87.07-.21-.35-.34-.48.21-1.1.76c-.49.41-.9 1.03-1.38 1.93l-2.42 5.52h-2.4l.76-1.73-2.01 1.52c-.55.34-1.11.55-1.66.48l-.28-.07c-.21 0-.42-.14-.62-.28-.35-.28-.49-.83-.42-1.59l-.55.485-1.31.893c-.56.34-1.18.48-1.87.55l-.63-.14c-.42-.07-.69-.42-.9-.83-.55-1.04.14-2.83 1.93-5.25l-1.1.48-.83-.21c-.35-.21-.48-.76-.41-1.52h-.14l-1.52 2.14-2.62 5.04h-2.1l1.11-2.34-1.8 1.52-1.31.89c-.42.274-.76.343-1.11.343-.35-.07-.62-.2-.83-.41-.21-.41-.35-.76-.28-1.17l.07-.55-.69.62-1.66 1.1c-.69.34-1.25.48-1.8.41l-.488-.27c-.277-.14-.484-.486-.69-.97-.208-.55-.277-1.174-.14-1.727.137-.62.344-1.17.55-1.51l.346-.69c1.38-1.73 2.63-2.97 3.8-3.73 1.18-.69 2.14-1.107 2.9-1.31l1.8-.21 1.11.204.42.21-2.97 6.97v.42c0 .276.14.415.35.48.35.07.76-.27 1.31-.83l1.59-1.79.97-1.45 1.87-3.87h2.21l-.83 1.8.49-.35 2-1.657.28-.14.56-.28c.276 0 .41.07.55.345.14.27-.07 1.03-.69 2.14l-.274.41v.34h.203l.48-.14 1.1-.76c.62-.48 1.45-.89 2.35-1.31.97-.48 1.86-.69 2.76-.83l1.59.21.76.21-2.49 5.52-.55 1.73-.07.14.07.34.35.07h.35l.97-.48c.42-.34.83-.9 1.31-1.66l2.766-5.8h2.28l-.76 1.59.76-.62c.48-.28.96-.55 1.52-.76.55-.34 1.1-.41 1.52-.41.41.07.76.21 1.03.42l.344.76v.4l.48-.35c.277-.14.76-.41 1.24-.62.556-.21 1.24-.417 1.936-.48h.35l.55.21c.27.21.34.49.34.9l-3.11 7.18v.28c0 .14.14.21.28.28.28 0 .62-.2 1.11-.76.55-.48.96-1.1 1.31-1.79l.83-2.07c.27-.55.62-1.11.96-1.66.55-.69 1.24-1.38 2.07-1.93.896-.62 1.93-.96 3.17-1.1l.76.14c.487.07.9.345 1.38.76.487.62.69 1.31.558 2.28h.62c.34-.14.83-.28 1.31-.69.48-.348.96-1.04 1.31-2l2.28.064-3.11 7.6v.07h-.07v.554c0 .14.14.28.42.14l1.25-.69c.48-.414.96-.897 1.45-1.657l2.83-6.007h2.413l-3.25 7.25-.14.55c-.066.21 0 .41.14.48l.484-.07c.274-.07.69-.487 1.31-1.11.62-.62 1.31-1.65 2.07-3.1l2.21-4.07zm-82.98-6.144c-1.035 1.035-1.793 2.14-2.415 3.175-.552 1.036-.897 1.933-1.173 2.692l-.28 1.104c-.35 1.79-.14 3.1.69 4.07.34.41.76.76 1.24.96l1.24.34.62.07c1.1-.14 1.79-.49 2.27-.83.48-.42.69-.76.83-1.04l.07-.62-.21-.97c.06-.49.2-.83.48-1.11.21-.21.41-.35.76-.35.69 0 1.17.07 1.52.48l.34.55v.62c.07.34-.14.76-.49 1.38-.35.55-1.04 1.1-1.93 1.65-1.04.48-2.42.83-4.14.89h-.07l-1.93-.42-1.32-.62c-1.8-1.11-2.76-2.83-3.04-5.25-.07-.21-.07-.63 0-1.32.13-.69.48-1.52.89-2.49.27-.69.83-1.45 1.65-2.34.76-.9 1.86-1.79 3.24-2.55 2.9-1.73 6.76-2.69 11.46-2.97 2.14 0 3.93.28 5.38.62 1.45.41 2.62.96 3.52 1.52.9.55 1.59 1.24 2.07 1.86.69.82 1.1 1.72 1.38 2.48.21.83.28 1.38.14 1.79-.14 1.52-.83 2.83-2 3.93-.97.83-2.21 1.59-3.73 2.21l-4.35 1.1-.76.14-1.18 3.25-2.42 4.14c-.42.48-1.04 1.17-1.87 1.86-1.03.82-2.07 1.38-3.31 1.93-1.17.48-2.41.89-3.45 1.1l-2.69.34c-.97.07-2-.07-3.25-.49-.97-.34-1.87-.89-2.56-1.58-.76-.69-1.18-1.52-1.38-2.697-.14-.82.13-1.58.55-2.21.48-.69.96-1.03 1.52-1.17l.83-.07.76.35c.41.35.55.9.55 1.59l-.21.62-1.04 1.45c-.14.35-.14.69-.14 1.17l.21.41.48.76c.13.21.48.48 1.03.69l2.35.34c1.24-.14 2.28-.34 3.31-.83.9-.41 1.72-.89 2.41-1.52l1.45-1.45.49-.76h.07c.27-.27.62-.89 1.03-1.65l4.42-10.22c.83-1.52 1.72-2.76 2.42-3.52.76-.83 1.38-1.38 1.93-1.655.62-.34 1.03-.48 1.38-.62l.48.07v.2c-.62.415-1.17 1.036-1.59 1.934-.48.898-.83 1.865-1.18 2.97l-1.24 4.42 1.04-.07 1.17-.414c1.59-.83 2.76-1.93 3.59-3.45.413-.83.69-1.52.83-2.14l.28-1.52-.21-1.24c-.14-.69-.48-1.38-.97-2.14-.557-.76-1.38-1.52-2.628-2.14-1.17-.55-2.83-.9-4.97-.96-2.41.14-4.48.62-6.21 1.31-1.72.83-3.03 1.73-4.14 2.83z"/><path d="M74.418 53.225v.622c0 .138.276.345.69.345.345 0 .69-.07 1.036-.415l.967-1.104.42-.552c1.04-1.58 1.87-2.83 2.28-3.79l.69-1.45-.48-.07c-.27-.07-.76.14-1.31.49-.55.28-1.38 1.04-2.28 2.07-.76 1.04-1.31 1.87-1.58 2.49-.27.69-.41 1.11-.41 1.38zm22.23-6.49l-.277-.07c-.2 0-.55.14-1.17.415-.48.345-1.24 1.036-2.14 2.14l-1.03 1.52-.55.965-.48 1.52.07.62c.07.07.28.14.69.277l1.11-.69.9-1.104 2.28-4.004.55-1.312.07-.277zm23.816 2.97c.414-.968.552-1.658.552-2.07l-.138-1.038-.207-.345c-.48-.07-.96.07-1.38.414-.41.414-.83.897-1.17 1.45l-.96 1.588-.34.69c-.62 1.657-1.03 2.76-1.17 3.452-.14.62-.06 1.036.07 1.104l.21.138c.42.07.83-.07 1.25-.414l.97-1.036.41-.552c.9-1.38 1.52-2.554 1.94-3.382zm79.733 99.27v-2.76H0v2.76h200.197z"/></svg>