<svg xmlns="http://www.w3.org/2000/svg" viewBox="-463.835 301.995 236.087 300"><path d="M-346.006 335.012c-79.57.165-82.928 99.42-82.91 117.663.118 55.307 22.64 116.438 83.353 116.303 60.715-.125 82.976-61.71 82.874-117.018-.03-18.216-3.72-117.09-83.31-116.948"/><path fill="#F60" d="M-345.563 565.664c-57.68.12-73.236-61.213-73.337-113.755-.034-17.34-2.948-114 72.656-114.16 75.59-.15 73.525 97.04 73.542 114.37.102 52.52-15.175 113.42-72.86 113.54"/><path d="M-307.54 425.433c-6.778-10.783-16.27-23.52-17.343-36.636-.663-8.236-.17-17.45-5.724-24.234-1.6-1.98-3.88-3.813-6.148-5.003-2.406-1.237-5.52-2.05-8.246-2.05-2.59 0-5.16.404-7.63 1.14-2.92.887-5.81 1.93-8.83 2.36-3.51.477-6.34.31-9.76-.453-2.03-.453-2.59-.618-4.64-1.067-1.11-.236-4.19-1.123-5.15-.17-2.3 2.31 2.59 5.096 4.04 6.144 3.18 2.31 4.53 3.07 7.56 5.714 4.11 3.575 7.38 7.806 8.64 13.138.35 1.556.47 3.1.49 4.67.3 22.997-38.06 45.55-37.53 86.26.18 14.38 7.86 16.763 7.76 8.757-.12-9.473 3.25-19.713 6.73-28.495.82-2.026 3.39-2.644 2.81.878-.92 5.572-3.19 15.217-2.98 30.953.05 3.78.27 7.61.82 11.35.44 3.05 1.09 6.05 1.99 8.98.73 2.45 1.69 4.85 2.89 7.12.95 1.78 2.06 3.49 3.35 5.04 1.294 1.52 2.673 2.64 4.224 3.85.9.71 1.91 1.35 2.33 2.48.65 1.66-1.466 2.33-2.57 2.83-1.23.55-2.3 1.16-3.46 1.71-1.67.81-3.3 1.66-4.92 2.57-.99.57-2.1.9-3.05 1.55-.956.64-1.435 1.64.032 1.88.68.12 1.412-.08 2.094-.1 1.155-.05 2.38-.22 3.51.21 1.494.59 1.41 2.04 1.48 3.45.064 1.49 1.123 2 2.45 1.62 1.567-.44 2.657-1.62 3.87-2.65.865-.74 1.82-1.5 2.857-2.03 2.063-1.03 4.534-.69 6.766-.578 1.222.076 2.98.6 3.982-.424 1.02-1.003.29-2.784-.15-3.91-.44-1.06-.97-2.113-1.5-3.163-.24-.48-.58-.88-.8-1.38-.866-2 6.12-3.524 7.14-3.785 3.374-.91 6.92-1.718 10.43-2.03 3.3-.288 6.965-.288 10.1 1.03 1.325.544 2.44 1.5 3.34 2.614.493.64 1.65 2.525.61 3.285-1.606 1.17-3.25 2.19-4.84 3.43-.99.766-1.94 1.577-2.78 2.53-.627.714-.797 1.95.48 1.88 1.7-.077 3.386-.167 5.08-.19 1.21 0 2.5.164 3.52.85 1.676 1.147 2.05 3.553 3.905 4.48.53.263 1.16.263 1.72.093 1.246-.38 1.8-1.65 2.45-2.65.61-.9 1.23-1.78 2.2-2.304.595-.34 1.294-.473 1.974-.473 1.25 0 2.48.022 3.73.164.97.12 2.3.57 3.166-.1 1.64-1.26-2.676-4.1-3.527-4.62-1.98-1.235-4.77-2.524-5.4-5.05-.715-2.972.766-6.045 1.99-8.67 1.32-2.76 3.105-5.31 4.126-8.214.94-2.662 1.65-5.44 2.05-8.26 2.153-15.4-1.4-31.753-5.91-46.47-.537-1.76-1.235-3.5-1.746-5.26-.764-2.76 1.914-3.426 3.286-.713 1.313 2.596 9.94 19.14 12.455 31.47 1.58 7.838 7.495 8.14 7.326-5.784-.22-20.166-7.854-34.757-17.17-49.614"/><path fill="#FFF" d="M-314.642 486.195c1.038 10.167 2.16 27.708-10.24 28.28-3.286.165-7.358-2.138-13.44-1.713-10.34.688-13.408 4.64-21.857 3.143-4.81-.877-8.39-3.596-10.42-8.287-2.3-5.31-2.52-11.358-2.88-17.064-.39-6.39-.39-12.81 0-19.22.28-4.617.77-9.215 1.38-13.81 1.01-7.62 2.63-15.14 4.36-22.617 1.53-6.614 3.12-13.207 5.96-19.4 2.08-4.523 5.2-8.857 9.78-11.166 5.01-2.49 12.05-2.68 16.98-.17 11.17 5.72 10.87 19.05 11.24 29.89.28 8.33 1.31 16.9 2.81 25.09 1.67 9.12 5.36 17.81 6.34 27.05m-18.06-111.68c2.28 2.69 2.15 13.71-1.58 17.57-2.2 2.24-5.9 2.53-8.82 2.93-3.25.48-6.39 1.19-9.57 1.98-3.03.75-2.83-2.47.1-4.76 4.36-3.42 15.32-4.95 17.94-17.71.1-.48.65-1.53 1.95 0m-15.88 2.91c3.05 1.98 7.43.69 9.748-2.88s1.72-8.09-1.35-10.07c-3.06-1.99-7.42-.71-9.74 2.86-2.333 3.58-1.72 8.1 1.346 10.1"/><path d="M-345.716 370.438c1.16-1.667 3.168-2.284 4.513-1.36 1.35.907 1.5 3.007.363 4.697-1.146 1.663-3.17 2.28-4.52 1.38-1.327-.93-1.496-3.025-.356-4.717"/></svg>