<svg xmlns="http://www.w3.org/2000/svg" width="1024" height="398" version="1" viewBox="0 0 167.421 65.084"><path fill="#4395d1" d="M80.47 0c-1.996.306-3.91.885-5.69 1.688 0 0 2.076 4.002 3.126 6.687 1.522 3.887 1.906 7.563 1.906 7.563 1-.528 2.316-.934 3.5-1.032 0 0 .045-3.74-.78-7.594C81.564 2.81 80.468 0 80.468 0zM87 0s-1.098 2.81-2.063 7.313c-.826 3.855-.75 7.593-.75 7.593 1.187.098 2.472.504 3.47 1.03 0 .002.384-3.674 1.906-7.56 1.05-2.686 3.124-6.688 3.124-6.688C90.912.884 88.995.306 87 0zM70.437 4.313c-1.602 1.236-3.046 2.66-4.25 4.28 0 0 3.354 1.468 5.813 3.845 3.362 3.255 4.563 6.53 4.563 6.53.62-.998 1.46-1.867 2.437-2.53 0 0-1.26-3.947-3.28-6.844-2.025-2.898-5.282-5.28-5.282-5.28zm26.626 0s-3.288 2.383-5.313 5.28c-2.025 2.898-3.28 6.845-3.28 6.845.975.663 1.815 1.532 2.436 2.53 0 0 1.196-3.275 4.563-6.53 2.45-2.377 5.81-3.844 5.81-3.844-1.2-1.62-2.62-3.045-4.22-4.28zM63.906 12.47c-.834 1.806-1.412 3.744-1.718 5.78 0 0 2.992-.324 7.28 1.312 3.526 1.346 5.844 3.562 5.844 3.562.027-1.086.312-2.18.72-3.125 0 0-1.137-2.13-4.47-4.41-3.578-2.46-7.656-3.13-7.656-3.13zm39.657 0s-4.077.67-7.657 3.123C92.576 17.878 91.438 20 91.436 20c.41.945.695 2.04.72 3.125 0 0 2.315-2.216 5.844-3.563 4.29-1.635 7.28-1.312 7.28-1.312-.306-2.035-.882-3.973-1.718-5.78z"/><path fill="#034ea2" d="M65.906 21.625c-2.544-.01-3.97.47-3.97.47.055 2.056.41 4.03 1.002 5.905 0 0 2.787-1.4 6.187-1.563 4.286-.206 7.22.938 7.22.938-.533-.96-.854-2.05-.97-3.188 0 0-3.424-1.923-6.563-2.343-1.085-.146-2.058-.215-2.906-.22zm35.656 0c-.848.004-1.82.073-2.906.22-3.137.42-6.53 2.343-6.53 2.343-.12 1.138-.467 2.228-1 3.187 0 0 2.932-1.144 7.218-.938 3.4.164 6.187 1.563 6.187 1.563.6-1.876.95-3.85 1-5.906 0 0-1.42-.48-3.96-.47zM72.656 28.28c-.758.04-1.53.137-2.25.282-4.367.882-6.28 2.407-6.28 2.407.885 1.82 2.003 3.5 3.343 5 0 0 1.79-1.71 4.9-3.19 4.2-2 8.47-1.6 8.47-1.6-1.51-.56-2.83-1.51-3.78-2.75 0 0-2.13-.28-4.41-.16zm20 0c-1.3.04-2.25.157-2.25.157-.96 1.24-2.245 2.19-3.75 2.75 0 0 4.235-.408 8.438 1.594C98.2 34.26 100 35.97 100 35.97c1.344-1.498 2.487-3.18 3.375-5 0 0-1.945-1.526-6.313-2.407-1.442-.29-3.105-.322-4.406-.282zm-8.906 3.282c-8.89 0-14.094 6.532-14.094 6.532 1.577 1.33 3.34 2.43 5.25 3.28 0 0 2.71-5.312 8.844-5.312 6.134 0 8.813 5.313 8.813 5.313 1.912-.85 3.677-1.95 5.25-3.28 0 0-5.173-6.532-14.063-6.532zM0 47.407v1.625h2.22v14.126H0v1.594h6.156v-1.594H3.97v-5.25h3.28c1.627 0 2.947-.217 4.188-1.406 1.092-1.044 1.656-2.403 1.656-3.906 0-1.58-.707-3.117-1.97-4.063-1.19-.873-2.598-1.124-4.03-1.124H0zm77.344 0v1.5h2.125v6.032c-1.02-1.99-3.08-3.16-5.29-3.16-3.55 0-6.5 3.05-6.5 6.59 0 1.26.43 2.64 1.09 3.69 1.11 1.77 3.45 3.03 5.47 3.03 2.2 0 4.12-1.14 5.22-3.03v2.68h3.75v-1.5h-2.15V47.4h-3.72zm13.875 0v1.625h2.21v14.126h-2.22v1.594h6.03v-1.594h-2.06V49.03h3.4c1.31 0 2.41.025 3.43.97.87.8 1.31 1.944 1.31 3.156 0 1.41-.73 2.715-1.94 3.47-1.14.702-2.41.655-3.72.655H97l5.375 7.47h3.373v-1.59h-2.31l-3.623-4.75c2.96 0 5.25-2.4 5.25-5.34 0-1.7-.66-3.26-1.97-4.37-1.33-1.14-2.73-1.28-4.4-1.28h-7.5zm18.15 0v2.5h1.59v-2.5h-1.6zm52.19 0v1.5h2.12v6.032c-1.02-1.99-3.08-3.16-5.28-3.16-3.54 0-6.53 3.05-6.53 6.59 0 1.26.47 2.64 1.12 3.69 1.11 1.77 3.45 3.03 5.47 3.03 2.2 0 4.12-1.14 5.21-3.03v2.68h3.72v-1.5h-2.13V47.4h-3.72zM3.97 49.03h3.09c1.118 0 1.984.11 2.907.814.847.676 1.374 1.72 1.374 2.812 0 1.116-.44 2.117-1.31 2.844-.87.727-1.84.813-2.93.813H3.97V49.03zm15.905 2.75c-3.688 0-6.563 3.105-6.563 6.72 0 3.64 2.993 6.594 6.657 6.594 2.62 0 4.99-1.528 6.06-3.906h-1.69c-.93 1.602-2.59 2.468-4.44 2.468-2.62 0-4.86-2.07-5-4.687h11.66v-.5c0-3.77-2.9-6.69-6.69-6.69zm25.75 0c-1.746 0-3.48.863-4.28 2.44V52h-3.75v1.5h2.155v9.75h-2.156v1.5h5.875v-1.5h-2.13v-5.313c0-1.188.02-2.278.84-3.25.73-.85 1.88-1.312 3-1.312 1.21 0 2.63.343 3.31 1.53.58.998.62 2.11.62 3.25v5.095h-2.15v1.5h5.87v-1.5h-2.12v-5.688c0-1.553-.41-2.71-.72-3.343-.83-1.68-2.95-2.44-4.38-2.44zm14.094 0C56 51.78 53 54.756 53 58.47c0 3.64 2.964 6.624 6.654 6.624 3.737 0 6.688-3.036 6.688-6.75 0-3.592-3.01-6.563-6.625-6.563zm59.62 0c-1.85 0-3.45.796-4.66 2.032-1.17 1.19-1.88 2.867-1.88 4.688 0 3.57 2.98 6.594 6.59 6.594 2.79 0 5.37-1.698 6.31-4.344h-1.78c-.75 1.697-2.56 2.72-4.38 2.72-2.87 0-5.13-2.162-5.13-5 0-2.817 2.18-5.095 5-5.095 1.77 0 3.45.964 4.37 2.47h1.5V52h-1.5v1.813c-1.165-1.31-2.67-2.032-4.47-2.032zm13.65 0c-2.31 0-4.49 1.157-5.53 3-.54.947-1.07 1.81-1.07 3.657-.05 1.408.4 2.613 1.03 3.657 1.12 1.846 3.23 3 5.56 3 2.21 0 4.1-1.083 5.22-3v2.656h3.68v-1.5h-2.09V53.5h2.09V52h-3.68v2.78c-1.167-1.94-2.91-3-5.22-3zM27.43 52v1.5h2.16v9.75h-2.156v1.5h5.875v-1.5h-2.12v-5.125c0-2.718 1.25-4.384 4.06-4.625V52c-1.82.072-3.48.82-4.07 2.594V52h-3.75zm79.817 0v1.5h2.12v9.75h-2.19v1.5h5.905v-1.5h-2.125V52h-3.72zm36.37 0v1.5h2.152v9.75h-2.16v1.5h5.87v-1.5h-2.13v-5.125c0-2.718 1.243-4.384 4.06-4.625V52c-1.826.072-3.48.82-4.067 2.594V52h-3.75zM19.84 53.25c2.596 0 4.853 1.81 5.22 4.406H14.905c.29-2.402 2.486-4.406 4.938-4.406zm54.594.063c2.79 0 5.093 2.246 5.093 5.062 0 2.864-2.23 5.188-5.093 5.188-2.79 0-5.156-2.28-5.156-5.094 0-2.84 2.294-5.16 5.157-5.16zm84.187 0c2.79 0 5.1 2.246 5.1 5.062 0 2.864-2.23 5.188-5.09 5.188-2.79 0-5.12-2.28-5.12-5.094 0-2.84 2.26-5.16 5.13-5.16zm-99.47.062c.18-.017.36 0 .54 0 2.82 0 5.03 2.295 5.03 5.063 0 2.79-2.25 5.062-5.06 5.062-2.84 0-5.06-2.326-5.06-5.094 0-2.615 2-4.773 4.57-5.03zm73.47 0c.18-.017.36 0 .53 0 2.79 0 5.07 2.24 5.07 5.03 0 2.84-2.24 5.126-5.12 5.126-2.79 0-5.09-2.31-5.09-5.06 0-2.64 2.05-4.83 4.63-5.09z"/></svg>