<svg xmlns="http://www.w3.org/2000/svg" width="78" height="131"><path d="M13.94 105.6h1.65v4.3H14c0-.76-1.1-2.9-5.6-3.08-4.56-.2-5.03 2.14-3.47 2.63 2 .64 5.93.5 8.4 1.32 3.2 1.08 4.12 4.67 1.3 6.57-2.53 1.73-6.96 1.52-10.12.4-.5-.2-1.5-.73-1.4-.04v.4H1.2v-4.74h1.7c.03.28-.2 1.33 1.7 2.42 2.2 1.27 6.24 1.32 7.84.4.96-.52 1.1-2.27-.62-2.5-1.86-.25-4.8-.44-6.98-.94-1.55-.38-2.74-.83-3.45-1.78-.6-.74-1.5-3.6 1.6-5.06 3.9-1.8 9.2-.55 10.2.28.4.32.8.22.6-.6m19.2 6.27c0-3.26-2.2-5.1-5.1-5.1-2.9 0-5.1 1.84-5.1 5.1 0 3.25 2.3 5.18 5.1 5.1 2.8-.1 5.1-1.87 5.1-5.1m-5-6.97c4.3 0 8.9 2.14 8.8 7.06-.1 4.92-4.7 6.83-8.8 6.83-4.2 0-9.1-1.9-9.2-6.83-.1-4.92 5-7.06 9.2-7.06m46.7 2.87c-.4.36-4.7 5.6-4.7 5.6v2.82c0 .3 0 .3.3.3H72v1.6h-8v-1.6h2c.35-.02.38-.1.38-.3v-2.84l-4.8-5.47c-.17-.24-.6-.66-1.4-.66H59v-1.63h8.2v1.63h-.82c-.2 0-.45.38-.1.74.33.34 2.8 3.38 2.8 3.38l2.77-3.4c.15-.23.1-.72-.23-.72H70.6v-1.63h6.73v1.63h-1.56c-.5 0-.84.42-.95.55m-31.34 7.95c0 .82.4.78.77.76h1.6v1.6h-7.1v-1.54h1.57c.63-.04.73-.38.76-.76v-7.6c0-.5.02-.92-.84-.95h-1.5l-.04-1.6h6.02l8.13 7.8v-5.2c0-.9-.42-.9-.77-.9h-1.52v-1.6h6.9v1.6H55.8c-.4 0-.58.4-.6.8v10.1h-2.24l-9.5-8.6v6.3zM4.2 125.98h2.38c.98-.03 1.55-.27 1.55-1.17 0-.8-.57-1.1-1.4-1.1H4.18v2.3zm-3.17 4.34v-1h.85c.34 0 .4-.13.4-.42v-4.8c0-.3-.07-.45-.4-.45h-.8v-1h6.3c2.16 0 2.85.5 2.85 2.1S9.27 127 6.85 127H4.2v1.9c0 .3.07.42.4.42h.85l-.02 1h-4.4zm13.33-1.42c0 .3.07.42.4.42h.85v1h-4.4v-1h.9c.4 0 .4-.13.4-.42v-4.82c0-.28-.1-.47-.4-.47h-.8v-1h4.4v1h-.8c-.3 0-.4.2-.4.5v4.8zm10.94-.96c-.14 1.2-1.46 2.76-3.85 2.76-2.25 0-5.06-.98-5.1-4.15-.05-3.1 2.64-4.4 4.85-4.35 1.32.02 2.5.48 2.8.8.18.2.43.22.34-.37h.86v2.63h-.8c-.08-1.38-1.64-2.26-3.3-2.04-1.74.22-2.62 1.6-2.62 3.32 0 1.9 1.52 3.2 3.06 3.2 1-.02 2.58-.32 2.9-1.8h.87zm1.22-2.4v-2.9h8.86v2.9h-.9c.03-2.06-.17-1.85-.86-1.93H31.9v5.4c0 .3.07.5.4.5h.85v1h-4.4v-.9h.84c.3 0 .4-.2.4-.5v-5.3h-1.7c-.8.1-.9 0-.9 2h-.9zm14.8 5.13c-1.77 0-3.65-.43-3.65-2.8v-3.78c0-.3-.07-.5-.4-.5h-.85v-1h4.4v1h-.86c-.32 0-.4.2-.4.4v3.9c0 .2-.1 1.8 1.76 1.8 2.1 0 2.3-1 2.3-1.8V124c0-.26-.08-.46-.42-.46h-.84v-1h3.73v1h-.9c-.2 0-.4.22-.4.8v3.53c0 2.3-1.8 2.73-3.6 2.73m8.9-4.7h2.4c.9 0 1.4-.42 1.4-1.15 0-.7-.6-1.16-1.3-1.16h-2.5v2.4zm4 .64c.7.17 1.3.34 1.3 1.27v1.1c0 .3 0 .6.4.6.3 0 .3-.4.3-.8v-.5h.8v.6c0 1.4-.4 1.8-1.5 1.8-1 0-2-.3-2-1.8v-.8c0-.52-.5-.8-1.3-.8H50v1.9c0 .3.1.4.4.4h.87v1.03H47v-1.03h.83c.34 0 .4-.15.4-.4v-5c0-.3-.07-.5-.4-.5h-.8v-.97h6.17c2.1 0 2.83.7 2.82 2.17 0 1.3-1.04 1.7-1.9 1.8m6.98 2.8l3.97.1c.74 0 .87-.4.87-1.9h.86v3H58v-1h.86c.3 0 .4-.13.4-.4v-4.8c0-.3-.1-.5-.4-.5H58v-1h8.9v2.9h-.87c0-1.48-.13-1.9-.88-1.97H61.2v2.3l1.84-.07c.23 0 .4-.1.4-.5v-.75h.8v3.6h-.8v-.8c0-.4-.16-.5-.4-.5H61.2v2.4zm14.4-6.6h.88v2.7h-.8c0-.5-.6-1.9-2.93-2-2.4 0-2.76 1.3-1.85 1.7 1 .5 3.12.3 4.4.8 1.7.7 2.17 2.8.7 4-1.35 1.1-3.66.9-5.3.2-.32-.1-.8-.4-.77 0v.3h-1v-2.9h.9c0 .2-.1.8.87 1.5 1.5 1 2.93 1.1 4.13.3.55-.34.8-1.4-.34-1.54-1-.16-2.5-.27-3.7-.57-.9-.2-1.5-.5-1.9-1.1-.3-.5-.9-2.17.9-3.08 2-1.1 4.3-.47 5.3.15.2.2.4.18.3-.4M2.7 98.5l-1.6.7V36.8l1.6-.7v62.35zm7.38-3.55l-1.58.7V33.28l1.57-.7v62.36zM24.54 42.8c-1.7 9.14-2.03 9.6-2.3 14.1-.2 3.52.35 6.05.94 9.1.52 2.63 1.13 5.44 1.13 5.44v16.8l1.9-.92.1-16.6s1.6-8.9 1.9-14c.3-6.1-1.8-12.7-1.8-14.2L26.5 25l-1.7.8V43m-8.2-13.24s.03 26.6 0 27.07c0 .66-1.2 2.4-1.5 3.43-.3 1.15-.8 2.5 1.05 3.85.6.5.4 1.8.48 2.7.1.9 0 25.4 0 25.4l1.75-.7V64c0-.82 2.57-3.15 1.68-5.64-.3-.82-1.4-1.8-1.4-1.95-.13-1.2-.3-27.6-.3-27.6l-1.7.7zm16 7.06c-1.9 10.6-2.6 14.3-2.3 19.4.3 5.22.7 7.84 1.67 13.4.4 2.85.5 4.6.5 4.6l.08 10.27 1.8-.9s0-8.6.05-9.1l.2-2.2c.3-3.7 1.47-11.4 1.87-17.66.5-8.1-1.16-15.7-1.5-19.4-.2-2.1-.3-4.8-.2-14.4l-1.85.85s.3 10.5-.3 15m8.7-17.1c-1 8-2.8 17.7-3 29.6-.2 13 2.4 28.7 2.4 28.7l.3 2.5 2.04-1.1.3-3.9c1.58-14.5 1.9-16.1 2.07-28.07.18-9.97-1.5-20.7-2.24-28.35-.1-1.1-.1-2.2-.1-2.2l-1.88.8v1.9m7.4-1.7C47 33.1 46.9 42 46.8 45.54 46.7 57.3 48.7 74 48.7 74l.23 2.45 3.45-1.7.2-3.7s.83-8.7 1.1-27.34c.12-9.8-1.65-26.4-1.82-28.6l-.2-2.4-2.73 1.2-.3 3.9m8-3.7c-1.43 14.8-1.3 24.5-1.35 28.1-.15 11.78 1.6 28.3 1.6 28.3l.2 2.26 3.83-1.9.3-3.6s1-8.6 1.2-27.2c.1-9.6-1.5-26.46-1.5-28.23l-.3-3.16-3.7 1.6s0 1.75-.3 3.9m8.4-3.8C63.7 26.4 63.6 34.54 63.6 38c-.1 11.9 1.58 28.3 1.58 28.3l.2 2.24 4.2-2 .2-3.7s.7-7.87.9-26.37c.2-11.1-1.5-28.14-1.6-28.7-.1-1.1-.2-3.3-.2-3.3L65.2 6s-.15 1.88-.3 4.14m8.05-3.28c-1.12 15.98-1.26 22.8-1.24 27.73.1 12.8 1.5 27.5 1.5 27.5l.2 2.5 3.6-1.7V.3l-3.7 1.9-.3 4.68"/></svg>