<svg xmlns="http://www.w3.org/2000/svg" width="200" height="53.29" viewBox="0 -.98 200 53.29"><g stroke="#fff"><path fill="#0054a4" stroke-width=".08" stroke-miterlimit="11.47" d="M15.27 43.14c-4 0-7.24 2.3-8.8 3.9 0 0-3.8 3.78-6.4 5.1-.1.05-.1.18.05.18h23.3c4.6 0 6.77-1.56 9.5-4 0 0 3.98-3.7 6.7-4.9.28-.1.22-.28 0-.28H15.28zm40 0c-4 0-7.22 2.3-8.8 3.9 0 0-3.8 3.78-6.37 5.1-.12.05-.1.18.04.18h23.34c4.6 0 6.77-1.56 9.5-4 0 0 3.94-3.7 6.67-4.9.27-.1.25-.28.04-.28H55.2zm40.08 0c-4 0-7.24 2.3-8.8 3.9 0 0-3.8 3.78-6.4 5.1-.1.05-.1.18.06.18h23.4c4.6 0 6.7-1.56 9.5-4 0 0 4-3.7 6.7-4.9.3-.1.3-.28.1-.28H95.4zm40.02 0c-4 0-7.2 2.3-8.76 3.9 0 0-3.8 3.78-6.4 5.1-.1.05-.1.18.1.18h23.4c4.6 0 6.8-1.56 9.5-4 0 0 4-3.7 6.7-4.9.3-.1.2-.28 0-.28h-24.4zm40.06 0c-4 0-7.24 2.3-8.8 3.9 0 0-3.8 3.78-6.4 5.1-.1.05-.1.18.06.18h23.3c4.6 0 6.7-1.56 9.5-4 0 0 3.9-3.7 6.6-4.9.2-.1.2-.28 0-.28h-24.4z"/><path fill="#f02e25" stroke-width=".03" stroke-miterlimit="3.86" d="M96.8-1.16c-8.52 0-16.82 2.52-16.82 11 0 14.65 25.57 6.9 25.57 15.88 0 2.92-4.53 4.1-8.2 4.1-6.58 0-11.1-.98-16.86-4.43v7.3c4.2 1.4 10.1 2.1 16.4 2.1 8.8 0 17.1-2.3 17.1-11 0-15.3-25.6-8.5-25.6-16 0-3 4.1-4.07 7.7-4.07 6 0 12.5 1.8 16.1 5.1V1.1c-4.6-1.44-10.8-2.3-15.5-2.3zm45.18.1c-15.36 0-25.53 7.37-25.53 18.62 0 10.33 9.34 17.24 23.3 17.24 4.52 0 8.55-.6 13.27-1.73v-8.7c-3.33 3.52-7.3 4.93-11.55 4.93-8.25 0-13.88-5.14-13.88-12.53 0-7.3 5.8-12.63 14-12.63 4.4 0 8 1.62 10.9 4.43v-8.7c-3-.63-6.8-.94-10.6-.94zm35.82 0c-13.23 0-22.6 7.6-22.6 18.34 0 10.53 8.4 17.52 20.93 17.52 13.3 0 22.45-7.43 22.45-18.2 0-10.6-8.32-17.67-20.78-17.67zM1.38 0v8.25c2.88-2.23 8.9-3.08 15.47-3.13v22.5c0 3.28-.3 4.2-1.68 5.92h13c-1.46-1.7-1.68-2.64-1.68-5.92V4.94C32.2 5 39 6 41.8 8.24V0H1.32zm43.98 0C46.72 1.7 47 2.7 47 5.96v21.66c0 3.28-.25 4.26-1.55 5.92h31.4V25.4c-4.3 3.06-12.5 3.07-15.84 3.02h-4.5v-9.37h3.4c2.3 0 6.4.27 8.8.98v-6.98c-2.32.75-6.5.97-8.73.97h-3.4v-8.9H61c4.1 0 11.2.85 13.85 3.08V0h-29.5zm131.56 4c6.93 0 11.5 5.74 11.5 12.82 0 7.07-4.57 12.8-11.5 12.8-7.04 0-11.55-5.73-11.55-12.8 0-7.08 4.5-12.8 11.55-12.8z"/></g></svg>