<svg xmlns="http://www.w3.org/2000/svg" width="320.55" height="632.83" version="1.2" baseProfile="tiny" viewBox="0 0 320.55 632.83"><path fill="#001C58" d="M92.2 423.37c-1.7-.43-3.2-1.5-4.33-3.08-5.78 8.9-8.22 16.8-6.1 24 8.9 30 35.4 52.2 67.13 55.1-30.33-9.2-52.77-40.8-56.7-76.2M86 405.6c-1.92-1.36-3.56-2.63-4.72-3.75-2.03 7.48-2.97 15.38-2.64 23.52.07 1.6.2 3.23.35 4.84 1.1-4.8 3.4-9.8 6.8-14.9-.7-3-.6-6.4.2-9.7zm1.48-4.6c.8-1.8 1.8-3.5 3-4.9.96-1.13 2-2.03 3.07-2.7 2.9-13.45 8.92-25.43 17.73-34.5-13.16 9.37-23.24 22.7-28.54 38.18.7.95 2.57 2.4 4.74 3.93zm113.8 69.07c-6.56-.78-15.34-2.5-19.18-3.8-4.28-1.5-8.1-5.1-10.18-9.6-.87-1.9-1.65-4.38-1.78-7.4-.07-1.8.1-3.77.63-5.92-24.08-7.35-49.58-17.54-67.34-27.03-.62 1.14-1.34 2.2-2.14 3.15-1.4 1.58-2.9 2.72-4.4 3.38 1.6 14.8 6.8 29.27 14.9 41.88 10.8 16.72 25.6 28.2 41.5 31.8 5.6 1.27 13 2.86 19.6 1.4 24.5-5.43 44.5-22.38 54.2-44.68-1.2.2-2.4.3-3.8.36-5.6 16.4-17.4 17-22.2 16.4zM233.72 419c-.35-8.6-2.1-16.83-5-24.46-3.57-9.37-15.52-16-31.25-19.57-29.1-6.56-67.3 4.3-91.62 24.76.94 3.7.66 8.16-.6 12.22 17.53 9.42 43 19.6 67.04 26.93 5.6-13 16.4-15.46 24.9-13.35 6 1.5 9.9 2.3 12.8 2.86l3.1.6c4 .9 7.5 3.6 9.6 7.3 1.5 2.6 2.8 6.8 1.9 12.5 2.9-.2 4.3-.7 4.7-1.1 3.1-9 4.7-18.8 4.3-28.9zm-13.8 29.9c.98-4.8-.07-8.14-1.23-10.18-1.5-2.58-3.9-4.43-6.7-5.07l-3-.63c-2.7-.55-6.8-1.4-13-2.92-8.3-2.05-15.4 1.7-19.3 10.14 4 1.16 8 2.24 11.8 3.22.6-3 .7-5.08.7-5.12.1-1.3 1.2-2.3 2.5-2.2 1.3.07 2.3 1.18 2.2 2.5 0 .16-.2 2.55-.9 5.95l2.3.5 2.2.5c.7-3.4 1.1-6.2 1.1-6.2.2-1.3 1.4-2.2 2.7-2 1.3.2 2.2 1.4 2 2.7-.1.2-.5 3-1.2 6.4 1.5.3 3 .6 4.5.8.5-2.9.6-5.2.6-5.2 0-1.3 1.1-2.3 2.4-2.3s2.3 1.1 2.2 2.4c0 .2-.2 2.6-.7 5.6 3.2.4 6 .6 8.3.8zm-43.72 5.76c1.84 4 5.05 6.3 7.45 7.1 3.1 1.1 11.33 2.8 18.16 3.56 7.5.82 13.4-3.35 16.7-11.77-2.5-.15-5.2-.44-7.9-.83-.5 1.7-1.2 3.4-2 4.9-.6 1.12-2.1 1.5-3.2.87-1.1-.7-1.5-2.1-.8-3.3.6-1 1-2.2 1.4-3.3-1.4-.3-2.9-.5-4.4-.8-.5 1.9-1 3.8-1.6 5.2-.5 1.2-1.9 1.7-3.1 1.2-1.2-.5-1.7-1.9-1.2-3.1.5-1.2 1-2.7 1.4-4.3-.8-.2-1.5-.3-2.3-.5l-2.4-.6c-.4 1.3-.9 2.8-1.5 4.2-.5 1.2-1.9 1.7-3.1 1.2-1.2-.5-1.7-1.9-1.2-3.1.5-1.2 1-2.4 1.3-3.5-4-1-8.1-2.2-12.2-3.4-1 4.3-.1 7.7.9 9.9zm-77.75-58.8c-1.05-.2-3.12-.2-5.2 2.07-3.28 3.55-4.82 8.4-4.6 14.32.08 1.5.3 2.36.72 3.6.77 2.14 2.6 3.56 3.95 3.8 1.6.3 3.4-.63 5.1-2.63 3.67-4.35 5.25-12.36 3.45-17.46-.75-2.12-1.96-3.44-3.42-3.7z"/><path fill="#FFF" d="M122.56 8.08c-30.4 0-37.6 15.6-37.6 15.6s35.07-2.55 35.07 32.1c0 15.6-8.5 26.16-17.47 37.34-10.43 13-22.25 27.7-22.25 52.4 0 40.9 26.3 60.08 49.5 77 20.2 14.74 39.3 28.66 39.3 54.88 0 26.37-11.5 46.8-16.8 52.08-8.8 8.85-16.8 10.46-23.2 11.76-6.6 1.32-12.8 2.6-14.1 12.05-24.3 14.6-39.1 40.6-39.1 68.9 0 1.1.1 2.2.1 3.3.9 21.4 10.1 41.3 25.9 55.8 15.8 14.5 36.4 22.1 57.8 21.2 21.5-.9 41.3-10.1 55.9-25.9 14.6-15.8 22.1-36.3 21.3-57.8-1.3-32.8-22.1-61.2-53-72.4h.1l-.4-.2-.7-.3c-3.9-1.4-8.3-2.9-8.3-12.9 0-9.8 4.4-10.6 13.2-12.2 5.2-1 11.6-2.1 17.9-6 11.2-6.8 13.2-15 11.2-17.1-2.7-2.8-5.8 3.1-17 6.4-4 1.2-8.1 1.9-10.8 1.9-2.3 0-4-.2-5.2-.4 5.9-11.1 12.5-20.1 12.6-20.2l1.4-2-1.7-1.7c-2.3-2.3-3.6-7.1-3.6-13.4 0-7.9 2-18.2 6.7-29.4 5.5-13.2 27.2-56.4 77.1-56.4h2.8V180c0-17.8-1.6-34.2-4.8-48.7l-.6-2.85s-4.8 1.4-8.9 2.27c-.5.1-4.2 1.03-4.4.23-.2-.7 2.8-2.13 3.8-2.64 3.8-1.9 8.5-3.9 8.5-3.9l-.6-2.3c-3.6-12.4-7.1-18.3-7.3-18.6l-1.1-1.9-2.1.7c-41.6 13.1-50.4 40.7-55.8 57.1-2.6 8-4.2 12.6-7.1 12.6-8.6 0-15.7-7.1-18-9.4-25.9-25.9-23.9-44.5-20.9-72.8 1-9.9 2.2-21.3 2.2-34.2-.6-32.4-13-47.6-39.5-47.6"/><path fill="#001C58" d="M171.83 277.4c0 26.26-11.2 47.6-17.67 54.08-20.05 20.05-36.6 5.45-36.77 25.57-9.1 8.24-15.7 20.76-18.9 35.07.2.02.4.05.6.1 1.8.33 3.5 1.4 4.7 3.1 25.4-20.75 64.7-31.66 94.6-24.9 9.5 2.17 17.6 5.7 23.7 11.07-9.2-14.9-23.3-26.4-39.9-32.4-4-1.4-11-3.1-11-15.9 0-23.9 26.1-5.3 43.4-31.4.8-1.3-.4-2.4-1.4-1.4-5.2 5.2-18 8.8-24.8 8.8-6.8 0-9.4-1.6-9.4-1.6 6.4-12.8 14.3-23.6 14.3-23.6-16-16 10.9-104 82.2-104 0-20.4-2.2-36.4-4.8-48.2-1.7.4-15.1 3.6-15.7.7-.6-2.5 9.9-7.9 13.5-9.7-3.5-12.2-7-17.9-7-17.9-61.1 19.2-48.8 69.8-63.7 69.8-9.7 0-17.3-7.6-20-10.3-36.5-36.5-19.5-60.6-19.5-109.1 0-32.7-12.7-44.9-36.1-44.9C99.1 10.9 90.7 21 90.7 21s32.1 1.05 32.1 34.74c0 35.28-39.7 45-39.7 89.76 0 74.5 88.7 73.1 88.7 131.87M129.5 55.75c0-4.33-.47-8.23-1.3-11.76 0 0 6.97-.4 6.97-8.9 0-7-4.67-11.8-5.92-11.8-1.02 0-1.27 1.1-3.45 1.1-5.34 0-5.73-6.8-5.73-6.8l2.44-.1c15.3 0 29.4 4.6 29.4 38.2 0 12.4-1.1 23.4-2.2 33.2-1 9.6-2 18.5-1.7 27.3 0 0-26.6-3.2-26.6-23.2 0-13 8.1-16.2 8.1-37.4zM92.2 423.38c-1.7-.44-3.2-1.5-4.33-3.1-5.78 8.93-8.22 16.9-6.1 24.06 8.9 30.03 35.4 52.2 67.13 55.17-30.33-9.2-52.77-40.8-56.7-76.1zM86 405.6c-1.92-1.36-3.56-2.63-4.72-3.75-2.03 7.48-2.97 15.38-2.64 23.52.07 1.64.2 3.27.35 4.88 1.1-4.8 3.4-9.84 6.8-14.96-.7-3-.6-6.5.2-9.7zm1.48-4.58c.8-1.82 1.8-3.5 3-4.92.96-1.13 2-2.03 3.07-2.7 2.9-13.45 8.92-25.43 17.73-34.5-13.16 9.37-23.24 22.7-28.54 38.18.7.96 2.57 2.42 4.74 3.94zm113.8 69.05c-6.56-.74-15.34-2.48-19.18-3.8-4.28-1.48-8.1-5.06-10.18-9.58-.87-1.9-1.65-4.4-1.78-7.4-.07-1.8.1-3.8.63-6-24.08-7.4-49.58-17.6-67.34-27.1-.62 1.1-1.34 2.2-2.14 3.1-1.4 1.6-2.9 2.7-4.4 3.4 1.6 14.7 6.8 29.2 14.9 41.8 10.8 16.7 25.6 28.2 41.5 31.8 5.6 1.2 13 2.8 19.6 1.4 24.5-5.5 44.5-22.4 54.2-44.7-1.2.2-2.4.3-3.8.3-5.6 16.3-17.4 16.9-22.2 16.4zm27.44-75.5c-3.57-9.36-15.52-16-31.25-19.56-29.1-6.5-67.3 4.3-91.62 24.8.94 3.7.66 8.2-.6 12.3 17.53 9.4 43 19.6 67.04 27 5.6-13 16.4-15.4 24.9-13.3 6 1.5 9.9 2.3 12.8 2.9l3.1.7c4 .9 7.5 3.6 9.6 7.3 1.5 2.7 2.8 6.8 1.9 12.5 2.9-.1 4.3-.6 4.7-1 3.1-9 4.7-18.7 4.2-28.8-.4-8.6-2.1-16.8-5-24.4zM176.2 454.7c1.84 3.98 5.05 6.28 7.45 7.1 3.1 1.08 11.33 2.8 18.16 3.56 7.5.82 13.4-3.35 16.7-11.77-2.5-.2-5.2-.5-7.9-.9-.5 1.7-1.2 3.4-2 4.9-.6 1.1-2.1 1.5-3.2.8s-1.5-2.1-.8-3.2c.6-1 1-2.2 1.4-3.3-1.4-.3-2.9-.5-4.4-.8-.5 1.9-1 3.8-1.6 5.2-.5 1.2-1.9 1.7-3.1 1.2-1.2-.6-1.7-1.9-1.2-3.1.5-1.2 1-2.7 1.4-4.3l-2.3-.5-2.4-.6c-.4 1.3-.9 2.8-1.5 4.2-.5 1.2-1.9 1.8-3.1 1.2-1.2-.5-1.7-1.9-1.2-3.1.5-1.2 1-2.4 1.3-3.5-4-1.1-8.1-2.2-12.2-3.4-1 4.3-.1 7.7.9 9.9zm43.73-5.77c.97-4.8-.08-8.13-1.24-10.17-1.5-2.58-3.9-4.43-6.7-5.07l-3-.7c-2.7-.6-6.8-1.4-13-2.9-8.3-2.1-15.4 1.7-19.3 10.1 4 1.2 8 2.2 11.8 3.2.6-3 .7-5.1.7-5.1.1-1.3 1.2-2.3 2.5-2.2 1.3 0 2.3 1.1 2.2 2.4 0 .1-.2 2.5-.9 5.9l2.3.5 2.2.5c.7-3.4 1.1-6.2 1.1-6.2.2-1.3 1.4-2.2 2.7-2 1.3.2 2.2 1.4 2 2.7-.1.2-.5 3-1.2 6.4 1.5.3 3 .6 4.5.8.5-2.9.6-5.1.6-5.2 0-1.3 1.1-2.3 2.4-2.3s2.3 1.1 2.2 2.4c0 .2-.2 2.6-.7 5.6 3.2.4 6 .6 8.3.8zm-121.48-53c-1.05-.2-3.12-.2-5.2 2.07-3.28 3.56-4.82 8.4-4.6 14.33.08 1.52.3 2.37.72 3.6.77 2.15 2.6 3.57 3.95 3.82 1.6.3 3.4-.64 5.1-2.64 3.67-4.3 5.25-12.3 3.45-17.4-.75-2.1-1.96-3.4-3.42-3.7zm-61.05 94.2c5.96 3.93 12.27 7.46 12.27 7.46l-2.2 5.7c-.83-3.5-4.27-5.4-8.7-8.1l-14.53 21c-1.77 2.5-5.22 8-5.5 10.2 0 0-2.4-1.5-4.56-3.2-2.27-1.7-4.44-3.3-4.44-3.3 2.17-.5 5.9-6.1 8.16-9.1l14.13-20.2c-5.3-4.1-7.36-4.9-11.1-5.1l5.03-3.8s4.83 3.8 11.45 8.2M267.5 561l.5.5c-.4 0-.7.2-1.2.45l1.3 2.44c.3.4.6 1.1.9 1.2l-.6.3-.5.2c0-.4-.1-.6-.42-1.3l-1.32-2.6c-.44.2-.93.4-1.06.8l-.1-.7 1.35-.7 1.4-.7M47 542c-10.1-4.8-11.44-15.92-6.47-26.32 5-10.48 14.5-16.36 24.52-11.56 10.07 4.8 11.48 15.9 6.5 26.33-5 10.42-14.48 16.35-24.58 11.55m16.6-34.8c-6.42-3.08-11.5 4.2-15.3 12.2-3.8 8-6.3 16.57.16 19.65 6.4 3.14 11.5-4.2 15.33-12.2 3.83-8.02 6.3-16.55-.15-19.63zm28.5 7.74c6.8 1.92 12.4 3.2 12.4 3.2l-.54 6.1c-1.82-2.63-2.66-3.27-8.5-4.76l-7.1 23.8c-.56 2.15-3.4 10.37-2.5 11.9 0 0-1.95-.4-5.1-1.3-3.57-1-5.24-1.64-5.24-1.64 1.8-1.2 4.1-8.23 4.8-11.1l7.1-23.9c-6-2-7.4-2.14-10.3-.8l3.5-5.2s3.9 1.6 11.5 3.7m28.1 6.33c6.7 1 13 1.6 13 1.6l.2 6.1c-2.5-2.3-3.4-3-10.1-3.8l-3.8 24.4c-.3 2.2-1.7 10.7-.6 12.1l-5.5-.7c-3.2-.5-5.2-.9-5.2-.9 1.5-1.3 2.8-9.3 3.1-11.5l3.9-24.7c-5.7-1.2-6.9-.7-9.7.9l2.5-5.8s5.3 1.2 12 2.22m24.9 23.2l-.5 16.3c8.6.1 14.4-.4 17.1-4.2l-1.3 7.5s-4.8.1-11.8 0c-7.7-.1-13.7-.6-13.7-.6 1.3-1.3 1.6-9.3 1.6-11.5l.7-16.1c0-4.3.4-11.2-1-12.7 6.2.4 5.4.4 11.1.6 7.5.3 11.8.1 11.8.1l.9 6.1c-2.9-2.4-7.3-2.7-14.5-2.8l-.4 13.7h11c1 0 1.1.5 1.1 1.6 0 1 0 1.6-1.1 1.6h-11m47.9 5c.7 6 1.3 10.3 2.6 11-.4.6-1.4 1.4-2.9 1.6-1.8.2-3.1-.6-4.3-2l-19.4-22 .8 14.2c.3 2.2.5 10.7 1.9 11.8l-6.5.3c1.1-1.4.8-9.5.6-11.7l-.9-16.1c-.3-2.3-.7-11.1-2.1-12.3l6-.2 20 23.7-1.6-13.7c-.25-2.3-1.46-10.4-2.8-11.5l3.14-.4 3.25-.5c-1.1 1.4.2 9.7.4 11.9l1.9 16m36.6-8.5c.7 2.7 2.1 9.9 4.1 11.3 0 0-3.1.8-5 1.4-1.7.5-5.4 1.5-5.4 1.5.9-1.5-1-10.1-1.6-12.2l-1.8-7.5-12.4 3 1.4 7.5c.4 2.4 1.7 10.7 3.4 11.7 0 0-1.7.4-5.3 1.1-3 .6-5.1 1-5.1 1 .9-1.6-.3-9.2-.7-11.6l-3-16c-.5-3-1.9-10.5-3.6-11.4l5.2-1c3.54-.7 5.3-1.2 5.3-1.2-.9 1.8.64 9 1.1 11.5l.93 5.1 12.1-3-1.3-5.2c-.7-2.7-2.2-9.3-3.9-10.5l5.05-1.5c3.4-.9 4.8-1.5 4.8-1.5-.64 1.8 1.2 8.3 2 11.6l3.76 15.7m22.6-9.5l-12.1 4.7.4 6.7c.26 2.3.27 4.3.77 5.5.2.6.64 1 1.04 1.2l-3.34 1.1-3.2 1c.7-1.3.9-3 .8-5.1l-1.3-31.3c-.1-1.1-.23-2.2-.6-3.1-.33-.8-.9-1.25-1.3-1.6 1.4-.9 3.1-1.85 4.85-2.6 2.8-1.16 3.94-1.1 6 1.25l17.7 22c3.2 4.2 6.05 7 7.9 7.6 0 0-1.8.9-5.23 2.4-3.4 1.5-5.67 2.36-5.67 2.36.2-.7.2-1.5-.2-2.6-.5-1.25-2.3-3.3-3.4-4.9l-3.5-4.4m-2.2-2.6l-10.7-15 .78 18.7 9.96-3.8zm52.78-8.8l-4.24 2.9c-.2-2.4-4.8-8.3-6.2-10.1L281.6 499l8.4 26.8c-.4.5-1 1.3-1.5 1.7-1.7 1.3-3.3 1-4.8-.1L264 511.1l7 12.9c1.7 3.25 4.96 10 7.16 10.64l-3.1 1.54-2.8 1.3c.4-1.9-2.8-7.45-4.7-11.03l-7.7-14.5c-2.35-4.37-4.93-8.8-7.14-9.7l4.67-2.3c2-1 3.8-2 3.8-2l22.4 19-8.7-26.85 3.4-2.3c2.2-1.47 4.2-2.95 4.2-2.95.1 2.4 4.8 8.5 6.5 10.7l9.6 12.3c2 2.5 5.8 8.2 8.5 8.82 0 0-2.2 1.7-4.6 3.36m-30 39.97l1.1 1.4c.3.4.6.88.9 1.03l-.6.4c-.3.17-.5.32-.5.32-.1-.4-.6-1-.7-1.2l-1.2-1.53.9 3.02c-.1.05-.1.13-.2.2-.3.17-.5.06-.6-.07l-2.3-1.84.9 1.45c.2.36.6 1.05.9 1.2l-.4.22-.4.2c0-.37-.5-1.1-.6-1.35l-1-1.65c-.3-.37-.6-.92-.9-1l.6-.34c.2-.1.4-.24.5-.3l2.5 2.1-1-3 .4-.27.5-.4c0 .3.4 1 .6 1.3M74.4 569c2.1.77 4.8 1.7 4.8 1.7-2.3 1.63-4.3 8.1-5.7 11.6l-5.2 14.4c-1.4 3.9-3.8 9.57-3 11.6l-5.2-1.8c-2-.7-3.1-1.1-5.2-2 2.5-.65 4.9-9.1 5.7-11.22l2.3-6.7-12.4-5.2-3.6 7.67c-1.2 2.67-4 8.7-3.3 10.6 0 0-2.2-.9-5.4-2.38-3.8-1.75-4.6-2.2-4.6-2.2 2.6-1.3 4.2-5.6 6.3-9.96l6.5-14.3c2.2-4.9 4.2-9.2 4-12 0 0 1.2.7 4.3 2.2 2.5 1.2 3.8 1.7 5.2 2.3-2 .8-4.85 8.1-6.3 11.3l-1.9 4 12.1 5 2-4.6c.87-2.3 3.9-9.4 3.2-11.8 0 0 2.5.9 5.2 1.9m14 46.6c-10.8-2.8-14.22-13.3-11.35-24.2 2.87-11 11.06-18.3 21.83-15.5 10.75 2.9 14.26 13.3 11.4 24.3-2.9 10.9-11.04 18.3-21.85 15.5m9.6-36.5c-6.9-1.8-10.5 6.1-12.7 14.5-2.2 8.4-3 17.1 3.9 19 6.9 1.8 10.5-6.2 12.7-14.6 2.2-8.4 3-17-3.9-18.8zm19.6 40.4s.7-.7 1.1-2.2c.67-2.2 1.1-6.3 1.6-9.4l3.03-23.5c-6.48-.8-8.1-.4-10.95 1.3l2.7-6c2 .4 6.5.9 11.9 1.6 3.7.4 14.4 1.4 14.4 1.4l.4 6c-2.4-2.8-4.8-3-10.2-3.5l-3 23.5c-.2 2.2-1.4 9.8-.2 12-1.3-.1-3.42-.4-5.22-.5-1.84-.2-4.3-.6-5.4-.8m51.4-8.1c.1 7.1-5.63 12.2-14.5 12.1-6.9-.1-10.42-2.9-11.8-4l1.4-6.7c2.2 4.3 5.7 7.4 9.7 7.4 4.17.1 7.4-2.4 7.5-6.5.1-3-1.6-4.8-8.5-8.4-6.6-3.4-9.1-6.8-9.1-11.9 0-6.9 6.05-10.5 13.1-10.5 5.26 0 8.9 1.6 11.18 2.8l-1.4 6.1c-3.1-4.2-6-5.8-9.4-5.8-3.4 0-5.8 1.8-5.8 5.3.03 3.8 4.2 5.9 9.9 9 6.5 3.7 7.93 7.3 8 11.2m32.1-21.5c.2.8.4 1.8.5 2.6 0 .7.1 1.7 0 2.6-.2 2.3-1.3 4.94-3.1 6.8-2.7 2.9-6.3 4.3-11 4.5-1.86.1-2.3-.4-2.4-1.75v-.3s-.07-.5.33-.5h.4c1.3-.1 3.4-.6 5.1-2.6 1.6-2.1 2.1-4.82 1.8-7.8-.3-3.1-1.2-5.3-3.3-6.9-1.8-1.4-3.9-1.8-6.1-1.6l-1.8.2s-.6.08-.5.6l2.3 24.3c.2 2.1.8 9.67 2.52 11.2 0 0-2 .2-5.77.5-2.85.28-5.1.3-5.1.3.77-1.83.65-4.6.46-7.8l-1.8-19.1c-.2-2.2-.6-9.7-2.4-11.54 0 0 4.8-.7 13.7-1.5 4.64-.4 8.45.2 11.74 2.4 2.13 1.5 3.6 3.6 4.2 5.7m36.4 7.9c1.9 8.4-2 15.6-10.8 17.8-6.1 1.6-15-.7-17.5-11.5l-3-12.7c-.8-3.6-2.1-9.9-4.1-11.5 0 0 2.3-.3 5.94-1 3.6-.7 5.3-1.1 5.3-1.1-1 1.5 0 7.4 1 11.75l3.8 16.2c.7 2.9 1.7 5 3.4 6.2 1.2.84 2.84 1.1 4.6.8 1.5-.3 3.2-1.2 4-2.8.9-1.7.9-4.1.2-7.05l-4.3-16.2c-1.2-4.46-2.55-10.04-4-11 0 0 1.75-.45 5.1-1.4 2.5-.74 4-1.2 5.1-1.56-1 2.4 1.4 9.9 1.9 12l3.43 13m39.3-3.3c.83.3 1.8.5 2.5.2-.1.5-.6 1.6-1.4 2.4-3.6 3.6-6.9 3-8 2.6-6.1-2.4-16.3-11.4-16.76-12.4 0 0-.1-.3.16-.4l.4-.16c1.6-.7 3.4-2.5 4.1-4.2 1.12-2.5.92-4.74-.2-7.5-1.2-2.84-3.3-4.65-4.98-5.13-2.4-.73-4.24-.2-5.35.3 0 0-1.5.5-1.9 1 0 0-.3.2.03 1.2l7.7 22c1.2 3.3 3.3 9.6 5.1 10.7 0 0-2.1.8-5.2 1.9s-5.1 1.7-5.1 1.7c.6-2.4-1.8-9.1-2.4-11l-5-14.8c-1.3-3.6-3.6-10-5.4-11 0 0 3.6-1 11.8-4.4 4.33-1.8 8.6-2.6 12.4-1.5 2.3.7 3.9 1.85 5.1 3.7.5.7.8 1.4 1.15 2.14.3.7.5 1.5.68 2.2.4 2.3.1 4.7-1.2 6.9 0 0-1.2 2.3-3.7 4.1 0 0 8.08 6.8 15.5 9.6"/></svg>