<!DOCTYPE svg PUBLIC "-//W3C//DTD SVG 1.1//EN" "http://www.w3.org/Graphics/SVG/1.1/DTD/svg11.dtd" [
	<!ENTITY ns_flows "http://ns.adobe.com/Flows/1.0/">
]><svg xmlns="http://www.w3.org/2000/svg" width="409" height="172" viewBox="-.1 -1 409 172"><path fill="#DB2128" d="M372.6 154.4c-1 .8-2.2 1.5-3.6 2-2.2 1.3-4.7 2.4-7 2.4-1.5 0-2.6-.4-3.5-1l-1-1c0-.4-.3-.6-.5-.8-.6-.8-1-2-1.7-3.3-3.6 3.6-10 6.5-19.3 6.5-8 0-14-2-18.6-6.2-4.3-4-6.8-10-6.8-18.2V88.2c0-2 .4-3.3 1.8-4.4 1.5-1 4.3-1.5 7.8-1.5s6.3.4 7.7 1.5c1 1 1.2 2.4 1.2 4.4v44.5c0 6.6 2.7 10 10.6 10 8 0 12.4-4.8 12.4-11.2V88.2c0-2 .4-3.3 1.8-4.4 1.5-1 4.2-1.5 7.8-1.5 3.6 0 6.4.4 8 1.5 1.2 1 1.6 2.4 1.6 4.4V140c0 1.7.2 3.2.6 4.4l1 2.6c.7 1.3 1.2 2.6 1.2 4.2 0 1.4-1 2.5-1.8 3.2zm-85.3-54V152c0 2-.4 3.5-1.8 4.5-1.5 1-4.3 1.5-7.7 1.5-3.6 0-6.4-.4-8-1.5-1.3-1-1.7-2.4-1.7-4.4v-50l-8.2 1c-8 .6-8.2-6-8.2-10 0-7.3 2.8-10 7.7-10h38c3.8 0 6.6 1 7.7 6.6 1 6 .6 10-6 10.6l-11 .8zM407 156.7c-1.5 1-4.3 1.5-7.8 1.5s-6.3-.4-7.8-1.5c-1.4-1-1.8-2.4-1.8-4.4v-64c0-2 .4-3.4 1.8-4.5 1.5-1 4.3-1.5 7.8-1.5s6.3.4 7.8 1.5c1.4 1 1.8 2.4 1.8 4.4v64c0 2-.4 3.4-2 4.5zM10 47.4h50.7c5 0 8.7 1.6 10 8.6 1.8 7.8 1 13.3-7.7 14l-16 1c11.8 74 80 98 117.3 18.4 6-13 8.2-15.5 15-14 9 2.4 10.3 7 6 20.4-32.2 98-140.3 107.8-161.5-23l-13 .8C.5 74.4 0 65.6 0 60.6 0 51 3.6 47.4 10 47.4zM194 0c10.3 0 18.7 8.4 18.7 18.8 0 10.3-8.4 18.7-18.8 18.7s-19-8.5-19-18.7C175 8.4 183.2 0 194 0z"/></svg>