<svg xmlns="http://www.w3.org/2000/svg" width="270.875" height="161.363" viewBox="0 0 270.875 161.363"><path fill="#010101" d="M11.045 91.262C3.923 91.262.135 86.7.092 78.07L0 58.182c0-.22.166-.4.38-.43l6.207-.595c.117-.012.233.024.326.117.086.067.14.178.14.307l.094 19.64c.018 4.32 1.657 6.52 4.887 6.52.25 0 .51-.01.786-.05 3.782-.36 5.69-2.93 5.673-7.65L18.4 56.4c0-.228.166-.4.387-.425l6.226-.606c.13-.02.246.02.338.1.09.08.14.2.14.32l.09 19.87c.03 5.34-1.59 14.44-12.71 15.52-.63.05-1.24.08-1.82.08m21.19-2.84c-.1 0-.21-.05-.29-.13-.08-.07-.13-.19-.13-.31l-.16-32.79c0-.24.18-.42.4-.43l6.62-.46c.15-.02.29.05.37.16l14.02 18.51-.09-19.27c0-.23.17-.41.4-.43l5.36-.38c.12 0 .24.04.32.12.09.08.14.19.14.31l.16 32.79c.01.23-.17.42-.39.43l-5.49.38c-.14 0-.29-.05-.37-.15L37.93 66.72l.1 20.903c0 .23-.17.408-.392.42l-5.36.38h-.03zm34.94-2.26c-.1 0-.21-.05-.29-.12-.08-.08-.14-.19-.14-.3l-.18-32.7c0-.23.17-.43.4-.43l7.12-.35c.13-.01.24.03.32.11.09.06.14.18.14.3l.16 32.7c0 .22-.19.41-.42.43l-7.08.35h-.02zm26.25-1.11c-.17 0-.32-.11-.39-.26L79.1 52.52c-.05-.13-.04-.29.04-.405.073-.114.195-.19.343-.19l8.14-.244c.21.01.34.11.41.26l9.07 21.08 9.38-21.64c.06-.14.206-.25.366-.25l6.43-.18c.16 0 .28.07.36.19.09.13.09.27.03.41l-14.3 33.1c-.06.16-.22.25-.38.25l-5.56.17h-.01zm25.22-.62c-.23 0-.43-.19-.43-.42l-.19-32.7c0-.11.05-.22.13-.31.09-.08.19-.13.3-.13l26.21-.02c.24 0 .43.18.43.41l.03 6.37c0 .11-.04.23-.12.3-.08.08-.19.12-.3.12l-18.25.02.03 5.66 12.26-.02c.24 0 .42.2.42.43l.03 6.41c0 .12-.04.23-.12.31-.08.08-.19.12-.3.12l-12.26.02.02 6.13H145c.235 0 .426.2.426.44l.03 6.4c0 .12-.043.23-.124.3-.08.09-.19.13-.3.13l-26.37.03h-.003zm42.4-19.16l5.82.18h.76c2.14 0 3.4-.3 4.07-.99.55-.55.79-1.4.79-2.78-.02-1.55-.31-2.97-3.85-3.06l-7.6-.23.03 6.88zm20.74 20.15h-.02l-8.47-.26c-.14 0-.27-.08-.35-.22l-7.17-12.34-4.65-.14.06 11.89c0 .12-.04.23-.13.31-.07.08-.18.11-.31.13l-7.14-.22c-.23-.01-.41-.19-.41-.43l-.15-32.79c0-.12.05-.23.14-.31.07-.08.19-.13.31-.13l17.99.54c5.97.19 9.41 3.99 9.44 10.44.03 6.22-3.3 8.81-6.32 9.89l7.57 12.98c.08.14.08.3 0 .43-.07.13-.2.21-.36.21m18.62 1.91c-.45 0-.9-.01-1.37-.04-5.07-.27-10.36-3.44-11.85-4.41-.13-.07-.2-.21-.2-.35l-.03-7.57c0-.15.09-.3.24-.38.13-.06.31-.06.43.03 4.59 3.06 8.97 5.04 11.45 5.18 2.35.12 3.9-.23 4.68-1.01.38-.38.56-.87.56-1.49 0-.74-.75-1.46-2.38-2.26-.96-.49-2.09-.96-3.3-1.46-5.11-2.1-12.11-4.97-12.14-12.71-.01-2.58.8-4.72 2.42-6.36 2.09-2.09 5.44-3.16 9.2-2.96 4.42.25 9.69 2.5 12.16 3.97.13.07.21.22.21.37l.04 7.32c0 .16-.09.31-.23.37-.14.08-.3.07-.44-.01-1.52-1-6.84-4.26-11.74-4.53-1.73-.09-2.6.37-2.97.75-.37.36-.42.74-.42.93 0 .79.79 1.6 2.4 2.46.96.52 2.2 1.04 3.5 1.59 5.03 2.12 11.93 5.02 11.96 11.98.02 3.1-.88 5.58-2.68 7.38-2.09 2.1-5.27 3.17-9.45 3.17m26.23-13.2l5.93.43-2.91-8.02-3.01 7.59zm18.5 15.28l-.03-.01-7.05-.51c-.17-.02-.31-.11-.37-.28l-2.38-6.6-11.48-.84-2.43 6.21c-.07.18-.23.28-.42.27l-5.91-.43c-.13-.02-.27-.09-.34-.19-.07-.13-.08-.27-.03-.39l12.67-32.14c.07-.18.24-.29.43-.28l4.94.37c.16.01.31.12.37.28L245.6 88.8c.06.12.03.28-.05.39-.08.11-.22.17-.35.17m25.31 2.34h-.04l-20.33-1.87c-.22-.02-.38-.21-.38-.43l-.2-33.17c0-.13.05-.24.14-.32.1-.08.2-.11.33-.11l6.15.57c.22.02.39.21.39.43l.12 26.28 13.833 1.27c.21.02.38.2.39.43l.02 6.5c.01.13-.04.23-.13.32-.08.07-.18.11-.285.11m-220.62 64.4l.77 1.6h-1.57l.8-1.6zm-.45-2.02l-3.027 6.06h1.46l.6-1.21h2.76l.57 1.21h1.73l-2.9-6.06h-1.2zm18.52 6.23c-1.7 0-3.41-.99-3.41-3.19 0-2.22 1.71-3.2 3.41-3.2 1.1 0 2.09.44 2.27.53l.16.07v1.41l-.4-.21c-.17-.087-1.06-.535-2.04-.535-1.393 0-1.762 1.22-1.762 1.94s.37 1.92 1.77 1.92c1.07 0 1.543-.25 1.924-.44l.55-.28v1.46l-.27.1c-.503.2-1.135.43-2.203.43m10.33-5.13c-1.41 0-1.78 1.22-1.78 1.94s.373 1.92 1.78 1.92c1.41 0 1.78-1.2 1.78-1.92s-.37-1.94-1.78-1.94m0 5.13c-1.696 0-3.416-.984-3.416-3.19 0-2.214 1.72-3.2 3.42-3.2s3.42.99 3.42 3.2c0 2.2-1.72 3.19-3.41 3.19m9.63-.164v-3.04l1.52 3.04h.88l1.44-3.03v3.02h1.57v-6.06h-1.46l-1.8 3.78-1.9-3.77H86.6v6.05m15.02.16c-1.7 0-3.405-.99-3.405-3.19 0-2.22 1.705-3.21 3.405-3.21 1.104 0 2.086.43 2.27.53l.153.08v1.41l-.388-.21c-.166-.09-1.068-.53-2.038-.53-1.407 0-1.775 1.22-1.775 1.94s.367 1.92 1.773 1.92c1.075 0 1.548-.25 1.92-.44l.547-.28v1.46l-.27.1c-.503.2-1.13.43-2.197.43m9.836-4.21l.78 1.6h-1.56l.8-1.6zm-.45-2.01l-3.03 6.06h1.48l.59-1.21h2.76l.58 1.21h1.73l-2.9-6.06H111zm10.77 6.22c-.83 0-1.8-.3-2.4-.61l-.15-.07v-1.46l.38.22c.6.32 1.57.65 2.15.65.78 0 1.18-.19 1.18-.55 0-.29-.72-.51-1.49-.75l-.09-.03c-1.16-.35-2.23-.85-2.23-2.05 0-1.05.96-1.73 2.45-1.73.89 0 1.99.32 2.45.54l.14.07v1.4l-.39-.2c-.32-.17-1.33-.55-2.21-.55-.48 0-.79.16-.79.39 0 .33.49.51 1.31.76.2.05.41.12.62.2.62.21 1.9.64 1.9 1.78 0 .75-.38 2-2.85 2m10.7-5h2.08v-1.22h-5.71v1.22h2.07v4.84h1.57m16.49.16c-1.68 0-3.4-.99-3.4-3.19 0-2.22 1.72-3.2 3.4-3.2 1.11 0 2.1.44 2.29.53l.14.07v1.41l-.39-.21c-.16-.09-1.06-.54-2.04-.54-1.39 0-1.77 1.22-1.77 1.94s.38 1.92 1.78 1.92c1.08 0 1.56-.25 1.94-.44l.54-.28v1.46l-.26.1c-.5.2-1.13.43-2.2.43m10.33-5.13c-1.4 0-1.77 1.22-1.77 1.94s.36 1.92 1.76 1.92c1.42 0 1.79-1.2 1.79-1.92s-.37-1.94-1.79-1.94m0 5.13c-1.69 0-3.4-.98-3.4-3.19s1.71-3.2 3.4-3.2c1.71 0 3.42.98 3.42 3.2 0 2.2-1.71 3.19-3.42 3.19m9.6-.16v-3.04l1.51 3.04h.88l1.44-3.03v3.03h1.58v-6.06h-1.48l-1.79 3.79-1.91-3.78h-1.52v6.05m13.44-2.93h1.15c1.05 0 1.29-.2 1.29-1.07 0-.36-.1-.84-.97-.84H181v1.9zm0 2.92h-1.56v-6.06h3.29c1.62 0 2.41.68 2.41 2.07 0 2.04-1.43 2.3-2.68 2.3H181v1.69zm11.49-4.04l.77 1.6h-1.56l.8-1.6zm-.46-2.01l-3.03 6.06h1.47l.6-1.21h2.77l.57 1.21h1.73l-2.9-6.06h-1.2zm9.78 6.06v-4l3.52 4h1.3v-6.06h-1.28v3.7l-3.27-3.7h-1.56v6.06m13.17 0h1.59v-2.2l2.83-3.86h-1.56l-1.86 2.48-1.8-2.48H211l2.74 3.84M150.06 4.53c-3.45-.84-7.24-.203-7.133-.055-.37-.123-1.075-.375-1.474-.29-.06.007-.09.02-.13.038.07.037.16.074.24.104-.24.09-.347-.03-.55-.076.13.18.104.15-.006.34.007.03.02.05.038.08.552.13 1.092.35 1.873.26v-.04c-.164-.16-.544-.19-.74-.35h-.074V4.5c.51.092.94.32 1.29.552.048-.043.097-.073.16-.104-.137.208-.277.264-.204.48-.834-.13-1.45-.43-1.773.49.09.08.182.154.273.233-.066.03-.134.05-.2.07l-.045.23c.33.31.52.47.94.63.017.16.04.33.066.49.1.09.1.07.24.05.18.17.06.3.15.41.23.3 1.1.73 1.29.99.07.08.02.25.16.35.31.21.67.33.94.57.1.06.03.01 0 .11.62.29 1.56.27 2.08.58.1.11.05.04.04.19l1.61.45c.03 0 .08-.02.11-.03.04-.14.03-.14-.03-.27.32-.18.4-.53.63-.77-.11-.2-.15-.22-.11-.5.44-.06.58-.3.95-.38-.04-.21-.02-.26-.19-.35.11-.08.08-.04.24.01.04-.03.07-.08.12-.11l-.35-.31h-.07V8.5c.21.06.43.1.67.06.03-.014.06-.02.09-.044-.06-.05-.1-.12-.16-.19.02-.02.03-.02.03-.03.31.16.49.173.95.18.03-.104.06-.196.08-.3.06-.007.13-.02.2-.025-.07.09-.14.19-.2.29.01.03.03.06.03.08.92.21 1.56-.15 2.43-.29V8c1.05-.3 2.55.34 3.57.26.31-.013-3.75-2.61-8-3.654M103.6 91.02c.468.77.898 1.834 1.5 2.46 1.27 1.302 3.35 2.01 4.15 3.68.387.38.76.753 1.14 1.12-.016.18-.04.35-.065.523.07.526.31 1.26.223 1.828-.03.25-.122.57-.103.86.042.16.085.34.122.52-.09.53-.313 1.08-.326 1.73-.16.07-.06.03-.28 0 0 .19-.02.38-.03.57h.19c-.04.35-.09.71-.13 1.05.04.35.09.71.12 1.05-.05.14-.27.2-.31.41.03.13.06.28.09.4-.06.72-.2 1.34-.4 1.75-.21.44.01.86-.38 1.12.08.55.25.85.22 1.45-.15.05-.08.04-.27.04-.08 1.32.57 2.04.16 3.01.07.03.22.41.16.56-.31.87-.71 1.7-.79 2.72-.04-.02-.07-.05-.12-.08l.01.53c-.11-.04-.23-.09-.35-.12-.01.01-.02.02-.03.04.08.73.43 1.51.72 2.12-.03.83-.52 1.09.11 2.02v.16c-.07-.04-.13-.08-.2-.13-.13.39.08.79-.03 1.23.14.17.29.21.52.29.03-.02.07-.03.11-.04.09-.42.04-.92-.17-1.23.03-.03.06-.04.08-.07.09.04.19.07.27.11h.04c-.02-.17.07-.14-.07-.15.03-.05.05-.1.08-.16.06.09.14.16.2.25l-.13.16c.2.12.3.57.06.66.07.06.13.11.2.16-.11.68.01 1.14.01 1.86h-.07c-.05-.22-.21-.81-.12-.87-.15-.2-.3-.33-.56-.44-.12.18-.19.45-.22.72.1.1.2.21.31.32l-.03.55h-.27v.04c.05.06.08.15.12.23l-.3.24v.16c.09.05.19.1.27.15.06-.05.11-.1.16-.16.18.16.54.21.7.4-.05-.02-.1-.03-.15-.04.06.12.05.07.12.15-.03.14-.07.26-.11.39-.14-.08-.16-.13-.39-.15v.05c.04.04.07.08.12.11-.07.05-.13.09-.19.13.21.38.26.97.52 1.3.18.09.36.19.55.29-.11-.04-.21-.07-.32-.09v.04c.05.16.08.32.12.48.07.02.14.06.2.08.05-.12.1-.23.16-.36.03.1.07.18.11.27h-.16c-.02.01-.03.03-.04.04.15.23.18.34.2.67.15-.05.31-.09.47-.15.1.1.08.11.23.16l-.08.16c-.13-.04-.26-.08-.39-.11-.02.02-.02.05-.03.07.14.25.35.4.59.55-.02-.05-.05-.11-.08-.16.23.18.44.37.66.55v.04c-.21-.09-.41-.18-.62-.27.27.33.48.44.78.51-.01.1.01.01-.04.11.3.31 1.56 1.14 1.91 1.05-.02.16.01.04-.04.17.37.35 1.56.8 2.15.94v-.04c-.09-.09-.19-.18-.28-.27.43.14.7.02.98.27v-.16c.18.03.36.06.54.08h.04c.01-.01.03-.05.04-.07v-.11c-1.07-.13-1.41-1.06-2.27-1.3.04-.05.09-.1.12-.15-.24-.26-.56-.24-.78-.51-.03-.02-.05-.03-.08-.03.04-.03.08-.05.12-.07.2.07.39.15.58.22v-.03c-.31-.4-.81-.67-.87-1.34.02-.02.03-.05.05-.08.18-.04.36-.06.54-.12.15-.11.1-.33.07-.62.25-.17.78-.28.97-.5.06-.09.06-.35.03-.6-.64-.42-1.58-.55-1.37-1.5.3-.23.7-.31 1.09-.15h.17c-.05-.15 0-.09-.12-.16.07-.17.11-.14.27-.19.03-.25-.05-.46-.12-.68.16-.24.3-.35.7-.36-.09-.19-.33-.22-.47-.35l-.08-.05c.1-.04.18-.09.27-.12.21.14.27.23.4.44.1.02.21.03.32.03.03-.03.07-.06.11-.11 0-.24-.02-.35-.12-.47-.03-.03-.05-.07-.08-.11-.15.01-.29.02-.43.04.07.05.13.1.19.15v.04c-.08-.02-.18-.05-.27-.08-.12-.1-.12-.2-.39-.28-.13-.24-.14-.7-.24-1 .3-.36.97.38 1.38.48.31-.02.62-.03.93-.03l.2-.45c-.05.03-.1.05-.15.08-.06-.05-.11-.1-.16-.16.18-.27.45-.57.3-.95.05.03.11.05.16.09h.04c-.02-.08-.05-.16-.08-.24.57.23 3.07.59 3.75.19.16-.08.75-.81.97-.98v-.56c-.33-.11-.49-.13-.51-.56.11-.08.21-.18.31-.28-.16-.69-.87-.77-1.18-1.31.06-.06.11-.13.16-.19.04-.02.08-.03.12-.05.11.17.22.22.28.45.24.05.49.1.74.164.22.14.49.61.79.67.23.05.41-.11.67 0 .18.09.31.31.62.27.79-.09.93-.464 1.4-.79.28-.12.55-.24.82-.356.2-.26.41-.53.62-.79l1.56-.68c.62-.41.94-1.15 1.51-1.59.72-.56 1.63-.66 1.91-1.67-.06-.01-.11-.02-.17-.04.11-.39.13-.9.35-1.44.17-.42 2.92-1.816 3.63-1.61.16.12.31.25.47.356.03-.08.07-.17.08-.26-.05-.02-.1-.03-.16-.06v-.1c.35-.09.71-.62 1.06-.5.12-.13.13-.08 0-.21v-.11c.74-.008 2.14.29 2.83.62.07-.106.06-.106.2-.15-.04-.62.71-.38 1.17-.6.3-.225.33-.955.78-1.18.74-.364.7-.6 1.22-.94.23-.14.44-.13.58-.35.53-.85.18-1.23 1.26-1.62.18-.59.32-1.05.65-1.47.18-.19.35-.39.51-.59.19-.52.07-.96.27-1.43.22-.52.67-.85.71-1.51.48-.25.9-.17 1.37-.5.67-.58 1.33-1.17 2-1.75.24-.05.47-.09.71-.14.3-.24.6-.47.9-.71 1.08-.7 1.97-1.31 2.39-2.68.01-.27.03-.53.04-.8.12-.5.7-3.73.69-3.73-30.29-.06-52.75.31-52.75.31m26.9-84.56c.49.07 1.14.14 1.68.38.55.24.68.59 1.27.69-.13.09-.2.03-.39-.01.14.236.29.365.63.41-.05.03-.1.05-.16.08.16.14.25.25.47.34h.16c-.05-.16-.02-.12-.15-.2 1.13.36 2.17 1.16 3.47 1.36.06-.17-.02-.08.16-.11v-.03c-.38-.51-1.28-1.06-1.9-1.32-.02-.04-.02-.1-.04-.144.25.13.49.25.74.39v-.2c.71.41 1.52.91 2.22 1.32.07-.01.14-.03.2-.03h.07c0-.01.01-.03.01-.04-.25-.17-.38-.14-.54-.4.11.05.21.08.32.12.01.01.03.01.05.01 0-.14-.03-.17-.12-.3.01-.03.03-.06.05-.08.09.06.06.04.11.14.24-.01.17-.04.28-.17.06.16.07.16.19.24h.04c-.03-.05-.06-.1-.08-.15h.28v-.08c-.23-.14-.43-.3-.74-.39-.02-.02-.03-.05-.05-.07.08 0 .16-.01.24-.02v-.04c-.22-.19-.91-.74-1.41-.66.02-.23-.11-.53-.38-.6h.32c.02-.03.02-.05.04-.08-.05-.05-.11-.1-.16-.15.51.04.96.45 1.41.47-.16.51.848.66 1.198.93.26-.04.24-.12.43-.15l-.11-.08c.05-.12.02-.07.12-.14.2.08.39.15.58.05v.15c.1.01.18.01.27.01l-.12-.16c.12-.06.01-.02.15.01.05-.01.088-.02.12-.03-.05-.08-.093-.16-.16-.23.36.084.5.072.79.01-.1-.324-.54-.46-.93-.434-.06-.1.02-.05.11-.1-.13-.002-.26-.02-.39-.02-.132-.06-.24-.3-.66-.31.08-.08.01-.05.16-.08-.13-.13-.5-.32-.74-.31l-.08-.07c.05-.03.11-.05.16-.07-.41-.09-.51-.2-.78-.06-.24-.19-.21-.3-.62-.35.03-.04.06-.073.08-.11-.31-.08-.62-.16-.93-.234v-.04c.07-.02.15-.03.24-.03.01-.14.02-.1-.04-.216.29.075.57.155.86.22.03-.02.05-.04.08-.065-.17-.17-.43-.27-.7-.27.01-.03.03-.06.04-.11.144.05.29.08.43.11.02 0 .03-.02.04-.02v-.11c-.35-.26-.43-.27-.97-.24.12-.16.16-.12.39-.14 0-.01 0-.02.01-.04-.41-.29-1-.15-1.41-.38-.01 0-.36-.42-.42-.45-.29-.16-1.29-.37-1.48-.38.03-.04.06-.07.09-.11-.38-.17-.75-.29-1.17-.48h.32v-.03c-.19-.29-1.96.45-2.3.89-.12-.07.73.66.49.61-.024.04-.06.08-.08.11h-.08c.11.2.93.15 1.13.16.01.03.02.05.04.08-.15.07-.193-.05-.4-.01h-.07c.11.28.36.21.62.12.04.1.07.2.12.3-.18-.07-.27-.07-.51-.08.08.27.56.32.89.35.01-.05.03-.11.04-.15-.13-.02-.263-.05-.39-.07.02-.08.03-.15.05-.23.23.08.34.22.66.27.06.19.13.4.18.59-.62.08-1.23.15-1.85.21l-.04.07c.12.13.26.25.38.38v.04c-.43-.13-.895-.02-1.294-.09-.85-.14-1.5-.59-2.35-.08.02.04.04.06.04.11.25.44.99.27 1.48.34m-25.8 27.53c.28.24 1.115-.24 1.52-.24.18.24.553 1.18.773 1.22.32.74-.577 1.11-.485 1.68.02.02.04.03.07.04.16-.14.13-.13.09-.31.02-.03.05-.03.07-.04.07.2-.02.16.19.18-.15.11-.3.22-.44.33-.07.16.03.54.07.88.06.03.12.06.19.08.02-.05.04-.12.07-.17.01.03.02.05.04.08-.16.19-.17.27-.29.47.1.02.06 0 .16-.05.08.14.12.22.07.43.01.6.64.6.35 1.23.21.32.91.11 1.08.13 0-.49.62-.99.83-1.47.27-.61.01-1.44.01-2.19l.24-.09c-.09-.54-.19-1.11-.27-1.67.19-2.12 1.9-2.64 3.6-3.15.79-.24.49-.93 1.97-.63.37-.7 1.6-.57 2.32-.74.02-.03.03-.06.04-.08-.15-.11-.12-.05-.2-.23v-.04c.2-.13.79-.23 1.03-.22.08-.12.14-.22.2-.31-.12-.21-.41-.3-.71-.32v-.05c.25.05.5.08.75.12v.31c.03-.02.11-.82.14-1.24-.09-.03-.17-.06-.24-.08-.12-.08-.03-.03-.04-.19-.01-.16.28-.56.4-.73-.12-.1-.02-.73 0-.92.19-.16.37-.33.56-.5-.45.63-.22.63-.37 1.37.12.03.23.07.35.12-.23.19-.46.28-.6.57-.02.02-.03.04-.04.07.07.06.04.05.2.08.22-.47 1.14-.79 1.55-1.46-.25-.26-.15-.41-.23-.76.18.16.25.3.55.38l-.16.19v.03c.61.09 1.43-.7 1.71-1.13-.05-.15 0-.07-.12-.16-.01-.03-.02-.04-.04-.08.71-.08 1.72.13 2.49.04-.07-.08-.14-.15-.2-.24-.6.09-1.13-.15-1.71-.02.7-.55 2.83.22 3.77-.13.1.25.32.23.79.25.05-.08.1-.16.16-.24-.04-.06-.08-.13-.12-.19-.1.21-.02.22-.24.22-.11-.01-.22-.03-.32-.04-.06-.24.03-.55-.39-.63v-.07c.19-.05.38-.09.57-.14-.06-.09-.11-.15-.16-.23.27-.34.82-.51 1.07-.75.62.12 1.02.11 1.62-.23.09.11.08.08.08.22.76-.05 1.49.01 2.29-.21-.04-.08-.08-.15-.11-.23.09-.01.49.14.62.17.6.12 1.76 0 2.27-.17l.06.08c-.18.05-.37.09-.55.13l-.04.08c.21.04.42.09.62.14-.76.11-1.51.24-2.26.35l-.04.07.27-.06c-.06.02-.11.04-.16.07-.19.24-.25.25-.25.65h.23c.16.22.06.35.35.36.55.02 1.06-.34 1.68-.37.08-.17 0-.19.19-.26.04.03.06.07.09.11.05-.04.11-.1.16-.15.05.25.17.25.4.32.33-.35 2.43.09 3.05-.08h.08c-.125-.13-.23-.17-.48-.17.1-.07.13-.04.2-.16.49.17 1.01.07 1.66.08v-.12c.04-.23-.32-.42-.58-.44v-.04l.32-.38c-.1-.13-.08-.06-.08-.22-.08-.03-.16-.04-.24-.06-.4.2-1.29.4-1.32.96-.27.04-.41.02-.43-.29-.91.1-1.27-.36-2.02-.45-.05-.07-.11-.14-.16-.2h.16c.02-.03.02-.06.04-.08-.24-.09-.48-.19-.71-.29-.12-.08-.25-.45-.35-.63l.2-.14c-.1-.1-.21-.12-.43-.13v-.07c.42-.06.61-.28 1-.43.03-.06.06-.1.08-.15v-.04c-.41.12-.75.05-1.34.04-.08-.28-.28-.39-.59-.44l-.04-.08c.54.06.73.28 1.19.34l1.23-.15v-.11c.13-.09.01-.09-.04-.24.06.02.11.04.16.05v-.04c-.96-1.3-4.35-.84-5.81-.58-.58.11-.99.65-1.79.65.34-.32 2.42-1.1 3.07-1.31 0 0 1.3.1 1.38.08.12-.13.24-.26.36-.38.54-.28 1.32-.17 2.02.01.92.25 1.77.35 2.67.66.57.19 2.27.88 2.85.78.45-.06.86-.21 1.27-.38.96-.39 2.87.6 3.53-.12.05-.13.03-.01-.05-.19.03.01.05.03.08.04.12-.19 0-.82.13-1.03-.23-.09-.45-.18-.67-.26.01-.11 0-.02.04-.15-.41-.03-.44-.13-.71-.12-.08-.44-.49-.62-.98-.68v-.04l1.03.12c-.19-.26-.62-.29-.67-.56-.33-.07-.61-.02-.87-.19-.14-.09-.11-.1-.11-.23-.17-.112-.6-.08-.75-.21-.18-.15-.21-.29-.48-.4-.044-.162-.094-.06.05-.18-.03-.08-.73-.58-1.02-.64.11-.11.06-.07.2-.08.03-.09.02-.31.04-.6-.09-.04-.18-.09-.28-.12-.03-.02.08-.21.08-.46-.35-.14-.745-.28-.7-.7h-.2c-.23-.37-1.13-1.51-1.113-1.88-.97.26-2.2 1.8-3.52.75-.22.01-.37-.32-.78-.4-.02-.11-.03-.22-.04-.33-.08-.02-.18-.04-.27-.05.12-.32.24-.37.21-.79.146-.05.294-.1.435-.18-.04-.05-.07-.12-.11-.18l-.36.14c-.26-.29-.83-.41-1.3-.54 0-.03-.02-.06-.03-.075.08-.07.06-.06.2-.075-.3-.27-.93-.74-1.31-.87-.33 0-.65.01-.98.02-.82-.28-1.58-.6-2.42-.57l-.24.22c-.01.05-.03.09-.04.145.07.1.06.1.19.145-.16.22-.38.31-.72.37.32.37.1.4.27.64-.12.13-1.06.5-1.43.51-.04.07-.08.14-.12.22.51.17.93.54.95 1.16-.41.91-1.37 1.06-2.5 1.25-.41.02-.81.03-1.22.04H123c.03.17-.02.4.22.48-.216.4-.646.88-.36 1.34-.2.16-.49.37-.75.37 0 .11 0 .23-.01.34-.05 0-.1.02-.15.04-.01-.15-.08-.13-.15-.32-.32.04-.5.17-.7.31-.14-.08-.26-.13-.39-.19-.13-.62-.53-.99-.795-1.56.2-.19.37-.33.525-.57-.01-.1-.027-.19-.04-.29.226-.23.472-.33.643-.64-.803-.06-3.142-.78-3.61-1.23-.164-.15-.2-.51-.45-.69-.36-.17-.72-.33-1.08-.5l-1.212.03h-.08c.29-.29.47-.72.7-1.07-.2-.1-.48-.11-.81-.1 0-.05 0-.11.01-.18.77-.89 3.23-1.8 4.28-1.73-.05-.05-.11-.11-.15-.17.38.04.8.08 1.21.03.14-.19.12-.19-.02-.37h-.08c.61.19 2.67.16 3.61-.32.13-.08.05-.03 0-.14.42-.09.83-.18 1.23-.27h.08s.01-.02.01-.04c-.08-.06-.12-.08-.27-.09-.01-.02-.03-.05-.03-.07.27.02.54.04.81.07 0 .21.58.57.84.65.09-.08.02-.01.05-.1.01-.02.03-.03.04-.04-.11.01-.05 0-.17.04-.06-.15-.09-.16-.26-.29v-.05l.39.18-.03-.32c.15.11.31.22.46.32v-.1c.67-.17 1.3-.15 1.81-.29-.09-.12-.2-.22-.3-.33.03-.03-3.65-2.05-7.94-1.99-2.77.06-12.72 3.46-20.58 7.43-6.01 3.04-10.63 6.83-10.91 7.1-2.4 2.09-4.7 4.64-5.91 7.77-.14.15-.27.31-.41.48-.11.2-.79 2-.8 2.08l.34.03c-.07.53.25.53.11 1.2-.21.94-.87 2.08-1.18 3.11-.05.22-.27.74-.21 1.01.07.35.2.83.07 1.28-.16.25-.3.51-.45.77-.18 0-.25.05-.45-.01-.01 0-.02.016-.03.016-.05.53.14.84.11 1.3.11-.004.08 0 .18-.06.32.81.17 1.71-.44 2.297.18.77.58 1.2.44 2.38v.04l.08.026c.7-.73.52-.64.59-1.58-.02-.09-.05-.18-.07-.26-.06.06-.12.14-.18.21-.01.01-.03.02-.04.02-.1-.62.52-2.12.64-2.76.08-.41-.15-1.14-.04-1.63.27-1.16.4-3.67 1.36-4.41.05.082.1.17.15.25.05-.027.09-.058.15-.1.21.69-.64 1.7-.53 2.604-.21.16-.31.27-.44.5.03.027.07.06.11.1.07-.07.15-.16.22-.22 0 .228-.12.96.1 1.19.07.09 0 .04.12.02.03.026.05.04.07.076-.12.26-.23.4-.22.8.08.07.04.07.19.086l-.11.48c.06-.01.13-.02.19-.02 0 .52-.2.68-.45 1.04.06.47.27.59.48.94-.15.16-.15.26-.19.5.37.5.85 3.95.14 4.46-.17.25-.18.2-.08.43-.12.18-.2.16-.37.22-.55 1.32.63 1.67.66 2.75.08.04.16.118.26.18 0 0 4.36-.15 6.95-.21.1-.01-.19-.1-.32-.2-.11-.1-.62-2.75-.53-3.117.1-.14.18-.28.27-.43-.39-.82.2-1.68.53-2.43.26-.648.54-1.298.8-1.95.25-.316.73-.23.88-.78.09-.38-.08-.715.12-1.19.17-.43.64-.56.6-1.1.25.03.69-.17.73-.38.04-.06.08-.13.12-.207.01.16.01.1-.04.24.19-.09.12-.12.23-.1.06-.07.11-.14.16-.21-.04-.054-.08-.12-.11-.17.68.06 1.18-.203 1.76-.54.36.09.23-.17.2-.37.09-.1.18-.14.32-.22 0 .02.01.04.03.05-.05.05-.11.11-.15.16.04.02.09.04.14.07.17.13.79-.2 1.15-.16.36.04 1.14.34 1.42.49h.12v-.15c-.09-.01-.18-.02-.27-.023-.01-.04-.03-.07-.04-.12l.32-.09c.03.14.25.37.37.52-.02.01-.05.03-.07.04-.02.04-.05.09-.07.13.12.08.25.19.38.28.19-.07.36-.15.55-.22.02.09.04.18.07.26.27-.07.3-.22.47-.37.16.16.29.4.5.51.04.02.08.05.12.07h.05l.15-.21c-.13-.11-.26-.24-.37-.36-.03-.02-.06-.05-.09-.07.11-.14.2-.18.43-.22.06-.132.04-.132.04-.35-.11.06-.22.12-.32.18h-.03c-.02-.04-.05-.062-.08-.112.61-.38 1.32-.29 1.94-.17.04-.11.08-.19.12-.29.05-.02.08-.05.13-.09-.01.17-.01.35-.01.51.88.1 1.53-.24 2.18.45.16.17.16.46.23.53"/><path fill="#010101" d="M131.438 4.42c-.178.062-.344.123-.516.178-.02.067-.03.13-.043.19v.037c.27.142 1.11.32 1.48.117.08-.073.16-.14.23-.22v-.117c-.37-.086-.65-.185-1.16-.185m2.07.123c.06.08 0 .03.11.08-.04-.03-.08-.05-.11-.08m-6.42 1.547c-.19-.098-.45-.16-.7-.135.04-.098.08-.203.12-.295-.31-.196-.92-.374-1.12-.663-.14-.135.02-.32-.22-.43-.03.037-.05.074-.08.11-.71-.073-1.53.29-1.75.768-.36-.006-.7-.006-.89.147.2.153.74.104 1.01.11l-.17.11-.12.222c.57.104 1.49-.062 1.88-.3.22.06.43.122.65.184-.07.018-.13.043-.2.074.37.313 1.01.32 1.72.295-.05-.068-.1-.123-.16-.197"/><path fill="#010101" d="M125.126 4.9c-.043-.038-.08-.075-.123-.118-.024.08-.05.153-.08.215.092-.03.184-.062.276-.098h-.08zm10.424 1.295c.142-.086.105.012.08-.14-.49-.02-.404-.228-.778-.308-.086.056-.185.098-.276.14.067.167.067.186-.006.327.51-.02.67.018 1.136.104-.05-.037-.106-.074-.155-.123m3.34-.315l-.03.063h.08l-.03-.062m-3.09.29c.07.08 0 .02.12.08-.04-.02-.08-.05-.11-.07m-11.3.16c-.21.07-.43.13-.63.18.01.09.01.18.03.26.6-.06 1.14-.02 1.66-.18.01-.01.02-.04.04-.08-.35-.06-.72-.12-1.08-.17m4.43.04v.11c.08.01.18.01.28.01v-.04c-.09-.03-.18-.05-.27-.08m5.71.62c-.1-.22-.39-.35-.65-.42 0 .09.02.18.02.26h-.35c.01.03.03.05.04.08.39.05.71.1 1.01.2l-.09-.13m-6.39-.4c-.01.04-.03.05-.04.08.09.08.18.15.27.22.12.02.24.02.36.04.01-.02.03-.02.04-.03 0-.03 0-.08.01-.12-.21-.06-.41-.13-.62-.18m1.26.12c-.12-.03-.26-.05-.38-.08.07.16.18.2.31.29h.15c.01-.02.03-.04.04-.08-.03-.05-.06-.1-.11-.15m-2.83.33c-.13.05-.26.09-.39.14-.03.06-.05.11-.08.16.05.05.08.12.11.19.3.04.45-.12.72-.19.04-.05.09-.1.12-.16-.13-.07-.22-.13-.47-.13m5.96.22c-.01.03-.01.05-.01.08.05-.01.09-.03.13-.04v-.04h-.12m-1.81.29c.08.11.18.13.31.17h.15c-.09-.09-.29-.15-.46-.18m19.39.88c.06.08 0 .02.12.08-.08-.08 0-.03-.13-.08m-23.37-.27c.03.03.05.04.07.08h.24V8.2c-.1-.01-.2-.03-.31-.03m38.41 2.95c-.3.09-.44-.11-.7-.27-.07.008-.14.02-.21.026.05.03.09.08.13.12-.44.09-.96-.2-1.41-.31-.02.02-.02.04-.04.04.02.05.05.12.08.17-.19-.15-.34-.29-.62-.343v.04c.09.07.16.15.24.24v.04c-.21-.07-.17-.1-.31.03-.45-.375-.81-.85-1.56-.94.07.06.13.13.2.205-.11-.04-.21-.1-.33-.13-.1.076-.2.16-.31.26-.02.02-.03.04-.04.07.52.12 1.03.255 1.54.38-.25.18-.52.11-.95.03-.01.01-.02.035-.03.05l.03.07c.72.17 1 .37 1.5.616l.04.09c-.12-.04-.26-.065-.38-.096-.02.01-.03.02-.05.04.03.043.06.11.08.16 1.06.28 3.67 1.58 4.57.55v-.04c-.46-.3-1.14-.75-1.44-1.09m-31.41-1.83v.09c.03-.04.05-.06.08-.09h-.08zm3.66.213c.07.11.04.09.19.13V9.6c-.08-.06-.05-.05-.19-.08m.9.18c-.11-.04-.22-.06-.32-.09-.05.136 0 .118-.27.105v.037c.11.13.3.26.51.32l.19-.157-.11-.22m-3.07.23c-.07-.022-.13-.03-.19-.04-.04.02-.09.04-.12.08l-.08.1c.14.1.35.07.56.04.01-.02.02-.05.03-.07l-.19-.12m60.98 33.76c-.19-.39-.38-.79-.57-1.21.04.07.07.12.11.18.03.01.05.02.08.04v-.08c.05-.19-.18-.44-.31-.61.03-.01.07-.014.08-.02.08.087.18.18.28.28.01 0 .03.017.04.017l-.193-.49c.15.14.28.28.43.42-.19-.43-.71-1.31-1.16-1.5.06-.16 0-.09.15-.054-.13-.51-.89-.96-.96-1.7h.037c.07.41.37.3.54.48h.05c-.16-.22-.32-.44-.46-.67.075-.06.15-.12.23-.18.19-.126.325.29.58.29.03.17.04.18.07.36.04-.47-.01-1.08-.08-1.25-.2-.23-.35-.57-.52-.87-.6-.99-1.02-1.8-1.46-2.93-.11-.28-3.69-5.86-8.25-10.13-4.71-4.4-10.4-7.49-10.32-7.51-.12.14-.21.253-.41.315.024.24-.02.24.08.4-.12.043-.2.1-.345.17.14.21.34.35.47.52.03.14.06.27.083.4.36.54 1.1.81 1.39 1.467.2.04.18-.01.31-.1.06.146.12.31.17.48.2.244 1.22.83 1.61.59.18-.1.2-.38.11-.605.07-.044.15-.075.23-.11-.03-.06-.05-.12-.07-.18v-.04c1.1.52 1.64 1.89 2.8 2.356.05.14.11.28.16.41-.17.06-.21.19-.3.32.21.29.47.51.82.67-.1.15-.07.07-.27.02 0 .02 0 .03.006.04.08.14.16.2.31.28.08.01.15.01.22.01v-.3c-.105-.11-.23-.34-.425-.43 0-.13-.03-.04.07-.13-.08-.1-.17-.19-.23-.27.21.11.33.27.43.49.143.01.3.03.463.03.02.01.02.01.04.01v-.11c-.11-.12-.21-.25-.32-.38.06-.1.05-.04.04-.17.14.01.29.04.42.06-.05-.1-.1-.2-.16-.3.08.07 1.65 1.47 1.57 1.52-.21.11-.16.21-.11.44l-.19.06c-.26.31-.34.02-.65 0-.13-.14-.07-.06-.04-.19-.12-.1-.24-.22-.35-.31 0 .07.01.15.01.22-.08-.01-.15-.03-.23-.05.05.23-.05.14-.12.43-.05-.01-.13-.03-.18-.04-.08-.09-.12-.29-.13-.38-.08-.09-.05-.08-.19-.12.03.05.05.11.09.16-.32.01-.563-.25-.78-.44-.09-.02 0-.02.03-.07-.1-.09-.16-.13-.354-.16 0-.03-.02-.05-.03-.07l.03-.08.79.47c-.154-.34-.53-.86-.94-.74-.1-.11-.14-.4-.25-.56.05.04.1.05.16.08l.03-.18c-.364-.42-.87-.64-1.08-1.22-.08.03-.143.07-.22.11.03.09.06.21.08.32h-.16c-.05.04-.13.07-.18.1.13.698 1.55 1.76 1.47 2.08.09.02.186.04.27.06.16.27.33.42.52.72-.15.06-.1-.02-.08.22-.24-.08-.283-.11-.584-.11v.19c-.18.02-.37.04-.54.05-.03.06-.067.12-.08.18.05.1.1.18.15.27.16.07.12.07.28.02.092.21.18.25.16.44-.11.14-.03.08-.2.03h-.04c.04.278.03.327.16.49-.1-.02-.2-.04-.305-.05-.13-.39-.27-.78-.4-1.17-.02-.02-.06-.03-.09-.04h-.02c.12.52.56 1.35.24 1.64-.2.19-.6.23-.77.46.115.245.21.48.32.72-.125.12-.205.17-.43.21-.1.13-.19.25 0 .37-.03.04-.07.08-.11.12-.48.1-1.02-.32-1.37-.45-.01.01-.025.03-.04.04.225.32.52.51.636.93.05.03.09.08.12.11v.04c-.31-.04-.49-.09-.71.08-.15-.12-.31-.23-.47-.36-.25.14-.68.08-.9.31h-.07c.07.33.31.29.51.46-.08.01-.16.03-.24.04.42.38 1.04.28 1.62.5.02 0 1.86 1.72 1.88 1.81-.06-.05-.13-.09-.2-.16-.002.02-.02.03-.032.04.47.64.98 1.57.98 2.78-.68.26-2.27-.19-3.16-.3-.24-.02-.83.24-1.183.126-.17-.07-.24-.21-.51-.15-.21-.05-.33.19-.24.38-.19.05-.43.08-.503.22-.06.03-.112.06-.16.1.018.4.25.37.31.67.11-.024.08-.024.2-.09.09.67.48 1.14.71 1.77.2.56.08 2.217-.03 2.77.17.14.26.26.42.447.08-.05.16-.09.24-.14.2.52.34 1.06.32 1.89.36-.13.81.08 1.01.01.14-.04.21-.21.45-.27.66-.3.99 1.3 1.72 1.43.15-.15.71-.69.76-.83.53-.01.89-.08 1.32.06l.09-.17c.2.02.22.046.34.14.12-.26.23-.75.32-.98.13-.06.18-.07.43-.07.01-.22-.16-.57-.02-.97.065-.23.24-.24.31-.53-1.185-.806-.115-1.82-.45-2.46.23-.29.42-.19.7-.4.17-.12.36-.49.51-.65-.07-.43-.73-1.05-.58-1.51.06-.13.24-.21.32-.37.59.2.97.456 1.49.65.25-.23.19-.69.66-.77.03-.17.07-.353.11-.53 0-.03-.01-.05-.01-.07 1.05.18 1.67 1.62 2.2 2.35 0 0 1.47 1.407 1.52 1.44.04.027.2-.06.35.04.09.15.18.31.26.46 1.13 1.046 1.46 1.366 1.95 2.987-.12.06-.35.09-.45.29-.39-.02-.39-.06-.627-.25-.06.074-.05.05-.07.19-.06-.05-.1-.086-.16-.13h-.04c-.02.18-.05.363.04.523.07.12 1.48 1.25 1.65 1.32h.04c-.09-.59-.39-.9-.39-1.63l.23.18h.03c.09-.316.01-.7-.1-.96.026-.21.01-.154.15-.22-.12-.5-.37-.554-.6-.885-.07-.29-.15-.6-.24-.89.03-.03.06-.04.09-.07.16.246.6.706.844.866-.21-.85-1.04-1.58-1.77-1.94-.088-.15-.11-.26-.1-.52-.24-.12-.42-.02-.66-.22-.56-.46-.81-1.183-1.26-1.77-.38-.49-1.11-.69-1.3-1.37.01-.09.03-.18.05-.26-.1-.22-.32-.26-.4-.54.22-.04.205-.1.3-.25.06.01.11.02.17.02.14.18.424.72.53.98.03.01.06.02.08.04.01-.09.03-.19.04-.27.08.136.14.26.2.406.044.03.07.06.12.08l-.146-.35c.35.13.5.76.68.98.28.35.7.54.95.8-.05-.01-.09-.04-.14-.06.1.19.17.24.26.39.07 0 .13.02.19.02-.06-.07-.12-.12-.19-.18.03-.01.05-.02.07-.03.08.06.163.12.24.18.01.03.02.05.03.08-.08.03-.157.04-.23.06.17.17.14.01.34.11.43.21 1.13.94 1.393 1.35.19.57.42 1.13.64 1.7.26.49.85.99 1.07 1.51.12 0 .01.01.12-.02.01.04-.1.22 0 .39.11.16.34.4.61.44-.06.21-.08.16-.08.47.27.38.53.75.69 1.26.04.02.09.06.12.09h.03c-.03-.09-.04-.2-.07-.28.01 0 .03 0 .04.01.08.19.17.39.27.59.02.02.05.03.07.05-.02-.1-.05-.2-.06-.32.07.1.144.2.23.29h.04zm-75.12-30.8c-.2-.11-.48-.16-.78-.18-.06.03-.13.05-.2.08.12.228.71.41.98.48h.03c.05-.17.02-.23-.02-.37m19.37 1.15c.07.13-.03.04.12.12h.04c.01-.02.02-.045.04-.07-.07-.01-.14-.03-.2-.04m2.07 1.86l.08.11c.01 0 .03 0 .04.01v-.044l-.12-.07m-1.31.68l-.28.07c-.03.27-.04.08-.11.23.54-.03 1.06-.11 1.53-.14-.37-.06-.75-.11-1.13-.16m2.56.79c0 .11-.04.05.03.16.04-.03.08-.05.13-.07v-.05c-.06-.02-.11-.03-.16-.04m-8.2 1.28c-.02.03-.03.05-.04.08.89.55 1.5 1.02 2.677 1.38.03-.02.058-.03.08-.03v-.11c-.62-.55-1.673-1.26-2.72-1.32m9.89.63c-.01.04-.03.08-.04.12.14-.07.056.02.12-.11-.02 0-.05-.01-.08-.01"/><path fill="#010101" d="M178.772 26.632c-.185-.012-.368-.037-.547-.05.08-.165.283-.422.215-.674-.086-.38-.786-1.148-1.21-.663-.036-.006-.08-.025-.13-.043-.23-.485-.618-1.08-1.22-1.468-.246-.104-.48-.203-.72-.294-.638-.607-.938-1.086-1.908-1.1.104-.08.21-.146.32-.22-.068-.056-.136-.11-.203-.154.15-.313-.04-.56.03-.853-.35-.356-1.01-.258-1.47-.166 0-.22.07-.135-.12-.22.05-.18.12-.29.26-.376-.03-.08-.06-.17-.08-.26-.41-.08-.8.09-1.19-.03-.09.11-.08.13 0 .27-.06.16-.04.18.09.34l-.09.04c-.14-.02-.07-.03-.16.08.07.13.15.26.24.39v.04l-.52-.37c-.09.16-.05.07-.17.24.21.2.64.35.84.36.03.06.06.1.09.16-.08.04-.14.08-.21.12.08.2.15.2.12.42.13-.01.26-.03.39-.04.02-.06.03-.13.04-.19v-.08h.04c.07.43.29.73.41 1.18h.16c.01-.02.02-.05.04-.08-.03-.07-.06-.13-.08-.19l.24.15h.03c-.05-.12-.08-.25-.13-.37l.32.22c.09.18.08.35.01.57.12.1.24.2.35.3h.06c-.04-.05-.07-.1-.1-.15v-.04c.13.05.24.09.37.15v-.15c.25.1.35.04.55-.11.26.33.15.85.8.75 0 .32.08.43.19.63-.31.25-.61.07-.94.01.04.25.13.21.28.34-.07.06-.11.13-.17.19.01.02.03.05.05.07.1-.04.2-.08.3-.11.11.14.23.28.32.41-.04.25-.25.35-.51.39-.04.04-.08.08-.12.13.13.11.27.21.41.33.41-.22.79.05 1.25.21.11-.05.22-.11.32-.15-.06.13-.05.12-.04.27h-.8c.01.35-.22.75-.53 1.04v.08c.2.01.23-.02.44.1.1-.16.04-.28.34-.35.21-.06.43.06.63.11.01-.14-.03-.39.08-.46 0 0 1.25.1 1.3.13h.11c-.03-.08-.05-.13-.08-.2.6.02.89.01 1.37-.23 0-.02.02-.05.03-.07-.03-.08-.05-.15-.08-.23m-30.83-2.8c-.19-.05-.22.13-.55.17l-.03-.16c.11-.15.23-.26.43-.33.02-.02.03-.04.04-.07l-.05-.05c-.49.03-.59.14-.87.35-.03-.05-.05-.11-.08-.16-.1-.02-.03.04-.11-.04.27-.24.83-.38.94-.5.02-.02.05-.05.08-.07-.17-.16-.59-.13-.87-.16.1-.25.01-.06-.04-.38.23-.04.32-.08.45-.21-.25-.23-.68-.47-1.03-.41-.16-.15-.02-.25-.27-.35-.11.05 0 .07-.13.03-.02.1-.04.06.05.15-.08-.01-.16-.01-.24-.01-.23.01-.14.02-.12-.19-.19.01-.11-.03-.15.09-.14-.08-.23-.13-.39-.13.03-.04.05-.09.08-.12-.15-.08-.05-.05-.19-.01-.02-.03-.06-.05-.09-.08v-.16c.16-.01.32-.01.48-.02V21c-.23-.176-.5-.176-.75-.385-.24.09-.47.19-.7.28.11-.39.8-.745 1.19-.83.06-.068.11-.136.17-.19-.12-.09-.12-.11-.31-.136v-.08c.2.06.34.12.55.1.02-.03.05-.05.08-.07 0-.05.01-.08.03-.12-.22-.07-.43-.13-.63-.19-.24.01-.48.01-.71.01-.15.03-.57.27-.8.39-.42.2-.6.75-1.15.87-.07.14-.07.11-.01.27V21c-.15-.03-.12 0-.2-.08-.25.055-.38.227-.52.393.08.073.16.147.24.202-.33-.056-.74.14-1.12.195.03.117.06.258.08.375.65.172 3.31.706 3.52.933-.05-.006-.1-.006-.15-.012.26.11.53.217.79.315.06-.07.05-.05.07-.19.17.07.35.14.52.22-.33.13-.68.22-1.23.19-.02.05-.03.1-.04.15.83.32 1.5-.07 2.22-.28.06.06.11.14.17.21-.01.32-.2.44-.4.56.05.16.03.12.15.2.18-.05.37-.11.55-.16-.08.14-.11.21-.12.46.22.06.38.08.59.15.3-.14.38-.44.65-.64-.02-.09-.04-.2-.05-.3m22.23-3.65l-.21-.04c-.1.1-.2.19-.31.27.11.15.18.19.19.32.04.02.08.04.11.07.1-.08.19-.16.29-.23-.03-.13-.06-.26-.08-.39"/><path fill="#010101" d="M145.16 20.082v.074c.03-.024.055-.043.08-.074h-.08zm24.783.81c-.043-.018-.098-.05-.153-.073-.05.03-.11.05-.153.08.135.14.22.25.332.46.02 0 .06.01.1.03-.04-.17-.09-.33-.14-.5m-24.82-.66c.03.04.07.08.11.12.02-.03.05-.03.08-.05v-.04c-.07-.01-.14-.03-.2-.05m34.71 1.28c.02.04.05.08.08.11h.03c-.08-.13.02-.04-.12-.12m-9.16-.14c.05.05.08.1.12.15.01-.02.02-.05.04-.07-.06-.03-.11-.05-.17-.08m-.71.05v.08c.03-.03.07-.03.12-.04v-.04h-.12zm.8.29c-.01 0-.03.02-.04.03v.03l.04.04h.04c0-.04.02-.08.03-.11h-.07zm-.17.11v.11h.09c-.06-.12 0-.05-.09-.12m-29.36-.69c-.08 0-.16-.01-.23-.01-.04 0-.07.02-.1.03-.01.04-.03.07-.04.11l.55.06c-.07-.07-.13-.14-.2-.2m5.19.42c-.02.05-.03.1-.05.16.11 0 .22 0 .32.01-.07-.18-.05-.15-.27-.18m25.13.6c-.1.15-.12.21-.32.27.07.21.12.16.28.26.11-.1.16-.38.04-.53m-.28.04c-.02 0-.03.02-.04.03v.03c.02 0 .05.02.08.04.01-.02.02-.03.03-.04l-.08-.08m-35.75-.38c-.14-.09-.08-.01-.12-.2-.18-.18-.1-.11-.04-.35-.04-.01-.08-.03-.11-.05-.15.08-.3.13-.44.19-.01.02-.03.05-.04.07.41.38.79.6 1.37.82.13.08.05 0 .08.13.1.11.15.14.32.21.36-.07.3-.26.83-.25.01-.01.03-.02.04-.04v-.05c-.26-.1-1.9-.47-1.9-.47m36.58.64H172v.16c.067-.02.12-.03.17-.05-.03-.03-.046-.07-.08-.11m.26 1.79c-.012-.02-.03-.05-.036-.08.246-.08.23-.19.387-.27v-.19c-.27-.27-.52-.27-.77-.64-.29-.14-.51-.08-.75.11.03-.1.02-.05.08-.17-.11-.04-.23-.08-.36-.14-.1.13-.32.18-.59.21-.04.26-.03.26-.16.44.15.11.3.09.49.05-.07.19-.14.14-.16.32-.35 0-.71 0-1.08.01.03.23.08.09.17.23-.04.02-.07.03-.11.05.15.14.3.13.52.12-.14.14-.16.17-.28.29.32.41.58.17 1.05.29-.26.18-.19.18-.19.45-.17.17-.16.1 0 .23-.1.18-.06.07-.03.28-.11-.01-.21-.02-.31-.02-.03.07-.05.13-.08.2.16-.03.29-.05.44-.07-.09.06-.18.12-.27.17.47 1.14 2.13-.32 2.85-.3-.03-.51-.25-1.33-.76-1.58m-25.44-1.76l-.04.11c.04-.02.08-.03.11-.03-.02-.03-.05-.06-.07-.08m35.72.93c.03.05.05.12.07.18.11.04.19.07.28.1-.1-.16-.15-.21-.35-.28m-51.06-.86c-.03.06-.07.11-.11.15.03.02.05.03.08.04.11-.08.1-.02.16-.19h-.12zm2.93.17c-.01.05-.02.11-.04.16.04.03.09.05.13.08.23-.03.47-.08.71-.11-.27-.04-.53-.08-.8-.13m38.84 1.02c-.03.08-.05.15-.08.24.02.02.03.06.04.1.08-.01.13-.02.21-.04.01-.04.02-.08.03-.11-.06-.07-.13-.12-.19-.19m-44.28-1.1c-.02.12-.03.09.04.19.03-.02.06-.05.08-.07l-.12-.11m9.67.41h-.08c0 .03-.02.05-.03.08.12-.01.2.05.12-.07m-9.43-.25v.08c.02-.03.05-.06.07-.08h-.07zm9.31.37c-.06 0-.13 0-.2-.02-.08.06-.16.11-.24.16.16.01.31.01.47.02v-.04c-.02-.03-.03-.08-.04-.11m5.08.21c.02.05.05.1.08.16.03-.04.06-.06.08-.09-.05-.02-.1-.05-.15-.08m2.54.16c-.06.03-.11.07-.16.1-.02.04-.03.08-.04.12h.11c.07-.04.13-.06.2-.1v-.12h-.11zm-14.2-.39c.07.03.01.03.07 0h-.08zm11.65.42l-.04.08c.04.02.08.02.12.05.03-.02.07-.04.08-.05-.05-.03-.1-.06-.16-.09m.16.12v.07c.03-.03.06-.05.08-.07-.02 0-.04-.01-.07-.01m39.48 1.06c.09.04.16.09.23.12v-.04c-.09-.08-.08-.04-.23-.08m-2.78.29c-.01.01-.03.05-.04.06.12-.03.05 0 .12-.06h-.08zm-.42.19c-.01.03-.03.05-.04.08.02.01.03.02.05.04l.07-.08v-.04c-.03 0-.05 0-.07-.01m-.09.27c0 .03 0 .06.02.09.02 0 .04.01.07.01-.05-.11 0-.05-.08-.11m-53.18-1.21v.07c.03-.02.05-.04.08-.07h-.08zm-1.47.16l-.04.1c.06-.07.07-.02.04-.1m.71.32c-.06.02-.13.04-.2.07v.07c.14.02.27.03.4.05v-.04c-.08-.118-.04-.1-.19-.15m-2.18.03c-.02.01-.05.03-.08.04v.03l.21-.06c-.04 0-.08 0-.12-.01m1.03.01c.07.035.01.035.08 0h-.1zm-.47.03l.08.08h.04c-.08-.08 0-.03-.13-.08m2.14.194l-.04.08c.07.015.14.05.2.08h.04c.02-.03.03-.05.04-.08-.07-.06-.06-.06-.23-.08m-43.85 2.7c-.13.435-.3.72-.38 1.135l.04-.01c.18-.32.62-.654.34-1.13m-.64 1.44c.11-.085.05-.05.07-.13-.03.04-.05.09-.08.13m35.86.63c-.01.03-.02.05-.03.07h.11c-.03-.02-.05-.04-.08-.07M81.5 32.26c-.034.19-.08.38-.114.57 0 .023.02.05.03.073.02-.005.03-.005.05-.005.04-.19.09-.386.14-.57-.03-.02-.07-.03-.11-.06m107.19 1.08c.04.05.084.11.12.166v-.13c-.036-.01-.08-.03-.12-.04m-92.31-.7c-.03.06-.05.11-.077.16.07-.082.1-.05.07-.16m3.66-.07c-.14.118-.25.13-.32.327.25.03.41-.01.65 0v-.03c-.11-.1-.22-.2-.34-.29m-4.74.55l-.07.12c.05-.03.1-.06.15-.08-.03-.01-.05-.01-.07-.03m95.28 2.74V36h.07c-.06-.126 0-.046-.08-.13m-3.07-.16c.04.084.07.183.12.28-.08.044-.16.087-.23.14 0 .5.35 1.138.68 1.33.02.03.05.05.08.08h.03c-.02-.566-.3-1.61-.68-1.83m.57.206c-.03.01-.06.015-.08.034v.11c.06.01.12.017.19.017-.06-.12-.03-.083-.11-.16M79.6 38.24c-.01.025-.03.05-.04.08.03.05.07.092.11.135h.03c-.012-.19.01-.156-.11-.212m109.78 2.01c-.14-.902-.52-1.86-.99-2.486-.03-.012-.08-.037-.12-.055-.02.12-.05.24-.08.36-.16.084-.11.09-.31.01.03.454.49.88.64 1.252.14.29.03.645.12.866.16.092.19.227.5.276-.02-.104-.03-.22-.04-.326.09.014.1.027.22.1h.04zm5.23-1.61v.167c.03.024.08.05.11.086-.04-.172-.03-.147-.12-.252m.34.316c.03.05.05.1.08.16h.05c-.07-.148 0-.08-.13-.16m-.27.406c.02.06.05.13.08.203-.06-.05-.1-.1-.15-.13.05.08.09.16.15.24.04-.04.07-.07.12-.1-.07-.08-.13-.16-.19-.22m.43.19v.11c.05.05.09.1.16.13v-.16c-.06-.03-.11-.06-.16-.09m-1.35.39c.05.07.11.13.16.2-.05-.11-.07-.13-.16-.2m1.73.81v.11c.05.02.1.06.16.09-.06-.08-.11-.14-.16-.21m-19.1-.61c0 .07.02.13.03.21l.05-.22h-.08m18.14 1.16v.31c.05.05.08.09.12.13.04.02.07.03.11.04.01-.02.03-.05.03-.07-.08-.14-.17-.28-.26-.42m.74.21c-.05-.01-.1-.03-.16-.05.12.12.24.22.35.34.02-.02.05-.04.08-.07-.09-.08-.18-.15-.27-.22m-.46.44c.01.05.03.1.04.16.04.05.1.08.15.13v-.17c-.07-.04-.12-.08-.2-.12M88.88 42v.31c.05-.004.102-.004.145-.01v-.04c-.043-.12-.05-.183-.147-.26m107.38 1.78c.04.08.08.16.11.24.02-.03.034-.056.053-.08-.07-.05-.11-.11-.16-.16m-56.49 66.446l-.03.16c.06-.055.13-.11.19-.16h-.16zm-1.25.07c-.03.03-.08.053-.12.08.02.03.06.046.09.08h.19v-.04c-.04-.043-.1-.085-.15-.12m.32.04v.08l.08-.08h-.08zm-6.25 3.775c-.01.05-.02.08-.03.13.07-.08.03 0 .07-.13h-.04zm-.08.21c0 .03-.02.08-.03.12.03-.03.05-.06.08-.08-.01 0-.02-.02-.04-.03m-2.84 2.18c-.19.03-.37.05-.55.08-.21.48-.69.73-1.09 1v.05c.08.03.14.06.2.09.38-.05.64-.2.86-.36v-.2c.26-.03.42-.16.59-.28v-.35zm-21.53 1.54c.08.04.01.04.09 0h-.08zm-.13 1.16c-.01.03-.03.05-.04.08.03.01.06.03.08.05.02-.01.03-.03.04-.04-.02-.03-.05-.05-.07-.08m9.98 2.78c.04.2.03.25.19.32v-.03c-.06-.15 0-.2-.19-.28m-8.62 1c.07.12.01.02.13.08.01-.01.02-.03.04-.03V123h-.16zm-.69.92c-.08-.06-.07-.06-.24-.08.04.05.06.08.09.12h.16v-.04m.05.75v.12h.11c-.04-.04-.08-.08-.11-.12m.39.56c-.02.02-.03.05-.04.08h.08c-.02-.03-.03-.06-.04-.08m3.55 5.94l-.04.05.09.09c.03-.02.07-.03.11-.04-.05-.03-.11-.06-.16-.09m.7.36c-.03-.01-.07-.02-.11-.04-.07.05-.16.1-.23.16.25.03.35.1.43-.11h-.08zm.95 0c-.07-.01-.13-.02-.2-.04-.03.02-.08.03-.12.05.03.01.06.02.09.04.03.04.08.08.11.12.05-.02.1-.06.16-.08-.01-.03-.02-.05-.03-.07m.35.62v-.03c-.31-.02-.46-.02-.67-.15-.04-.26 0-.35-.27-.43.06.29.15.61.12.79.05.01.08.02.13.04.03-.09.07-.19.11-.27.02.02.05.03.08.04.07.19.18.34.35.43-.06-.09-.13-.18-.2-.27v-.04c.12-.03.23-.05.36-.08m-.62.59l.05.09c.01-.04.02-.06.03-.08h-.07zm2.46.82c-.01.15-.04.07.13.12-.04-.04-.08-.07-.12-.12m1.14.04c.09.13.29.12.47.16.01-.03.03-.05.03-.08-.16-.02-.33-.04-.5-.07m-1.45.08c.08.2.2.27.43.31-.12-.15-.23-.24-.43-.31"/><path fill="#010101" d="M133.206 0C103.682 0 78.344 17.91 67.47 43.473 77.498 25.613 98.71 4.18 133.158 4.21c31.127.032 54.39 18.75 65.795 39.305C188.093 17.933 162.748 0 133.206 0m68.098 93.072c-9.252 28.303-35.27 50.325-68.25 50.325-34.982 0-58.484-21.728-67.933-49.724 9.83 26.08 36.56 44.78 67.98 44.78 31.68.002 58.57-18.993 68.21-45.38"/></svg>